<ttFont>
    <TTGlyph name="A" xMin="-10" yMin="-13" xMax="577" yMax="676">
      <contour>
        <pt x="405" y="30" on="1"/>
        <pt x="392" y="84" on="0"/>
        <pt x="374" y="191" on="1"/>
        <pt x="333" y="188" on="0"/>
        <pt x="290" y="188" on="1"/>
        <pt x="248" y="188" on="0"/>
        <pt x="205" y="191" on="1"/>
        <pt x="131" y="13" on="0"/>
        <pt x="122" y="-13" on="1"/>
        <pt x="-10" y="-10" on="0"/>
        <pt x="-10" y="50" on="1"/>
        <pt x="-10" y="65" on="0"/>
        <pt x="16" y="120" on="0"/>
        <pt x="94" y="272" on="0"/>
        <pt x="130" y="349" on="1"/>
        <pt x="246" y="597" on="0"/>
        <pt x="267" y="670" on="1"/>
        <pt x="317" y="676" on="0"/>
        <pt x="349" y="676" on="1"/>
        <pt x="432" y="676" on="0"/>
        <pt x="444" y="611" on="1"/>
        <pt x="486" y="382" on="0"/>
        <pt x="507" y="293" on="1"/>
        <pt x="553" y="92" on="0"/>
        <pt x="577" y="14" on="1"/>
        <pt x="517" y="-10" on="0"/>
        <pt x="470" y="-10" on="1"/>
        <pt x="414" y="-10" on="0"/>
      </contour>
      <contour>
        <pt x="335" y="549" on="1"/>
        <pt x="297" y="424" on="0"/>
        <pt x="243" y="287" on="1"/>
        <pt x="275" y="285" on="0"/>
        <pt x="309" y="285" on="1"/>
        <pt x="347" y="285" on="0"/>
        <pt x="361" y="287" on="1"/>
        <pt x="345" y="419" on="0"/>
      </contour>
    </TTGlyph>
    <TTGlyph name="AE" xMin="-44" yMin="-10" xMax="811" yMax="665">
      <contour>
        <pt x="792" y="540" on="1"/>
        <pt x="746" y="561" on="0"/>
        <pt x="633" y="561" on="1"/>
        <pt x="600" y="561" on="0"/>
        <pt x="551" y="558" on="1"/>
        <pt x="549" y="524" on="0"/>
        <pt x="533" y="406" on="1"/>
        <pt x="666" y="406" on="0"/>
        <pt x="698" y="410" on="1"/>
        <pt x="700" y="390" on="0"/>
        <pt x="700" y="375" on="1"/>
        <pt x="700" y="310" on="0"/>
        <pt x="656" y="305" on="1"/>
        <pt x="632" y="303" on="0"/>
        <pt x="518" y="303" on="1"/>
        <pt x="498" y="140" on="0"/>
        <pt x="498" y="101" on="1"/>
        <pt x="526" y="99" on="0"/>
        <pt x="562" y="99" on="1"/>
        <pt x="615" y="99" on="0"/>
        <pt x="726" y="112" on="0"/>
        <pt x="743" y="121" on="1"/>
        <pt x="751" y="83" on="0"/>
        <pt x="751" y="65" on="1"/>
        <pt x="751" y="17" on="0"/>
        <pt x="681" y="-3" on="0"/>
        <pt x="558" y="-3" on="1"/>
        <pt x="405" y="-3" on="0"/>
        <pt x="373" y="-1" on="1"/>
        <pt x="349" y="0" on="0"/>
        <pt x="329" y="16" on="0"/>
        <pt x="329" y="34" on="1"/>
        <pt x="329" y="67" on="0"/>
        <pt x="346" y="189" on="1"/>
        <pt x="325" y="188" on="0"/>
        <pt x="283" y="188" on="1"/>
        <pt x="248" y="188" on="0"/>
        <pt x="190" y="190" on="1"/>
        <pt x="96" y="49" on="0"/>
        <pt x="66" y="-10" on="1"/>
        <pt x="-44" y="5" on="0"/>
        <pt x="-44" y="51" on="1"/>
        <pt x="-44" y="70" on="0"/>
        <pt x="-6" y="128" on="0"/>
        <pt x="90" y="263" on="0"/>
        <pt x="113" y="298" on="1"/>
        <pt x="255" y="505" on="0"/>
        <pt x="336" y="654" on="1"/>
        <pt x="512" y="665" on="0"/>
        <pt x="631" y="665" on="1"/>
        <pt x="784" y="665" on="0"/>
        <pt x="803" y="646" on="1"/>
        <pt x="811" y="638" on="0"/>
        <pt x="811" y="618" on="1"/>
        <pt x="811" y="578" on="0"/>
      </contour>
      <contour>
        <pt x="386" y="491" on="1"/>
        <pt x="254" y="286" on="1"/>
        <pt x="268" y="285" on="0"/>
        <pt x="302" y="285" on="1"/>
        <pt x="332" y="285" on="0"/>
        <pt x="360" y="287" on="1"/>
        <pt x="381" y="447" on="0"/>
      </contour>
    </TTGlyph>
    <TTGlyph name="Aacute" xMin="-10" yMin="-13" xMax="577" yMax="946">
      <contour>
        <pt x="405" y="30" on="1"/>
        <pt x="392" y="84" on="0"/>
        <pt x="374" y="191" on="1"/>
        <pt x="333" y="188" on="0"/>
        <pt x="290" y="188" on="1"/>
        <pt x="248" y="188" on="0"/>
        <pt x="205" y="191" on="1"/>
        <pt x="131" y="13" on="0"/>
        <pt x="122" y="-13" on="1"/>
        <pt x="-10" y="-10" on="0"/>
        <pt x="-10" y="50" on="1"/>
        <pt x="-10" y="65" on="0"/>
        <pt x="16" y="120" on="0"/>
        <pt x="94" y="272" on="0"/>
        <pt x="130" y="349" on="1"/>
        <pt x="246" y="597" on="0"/>
        <pt x="267" y="670" on="1"/>
        <pt x="317" y="676" on="0"/>
        <pt x="349" y="676" on="1"/>
        <pt x="432" y="676" on="0"/>
        <pt x="444" y="611" on="1"/>
        <pt x="486" y="382" on="0"/>
        <pt x="507" y="293" on="1"/>
        <pt x="553" y="92" on="0"/>
        <pt x="577" y="14" on="1"/>
        <pt x="517" y="-10" on="0"/>
        <pt x="470" y="-10" on="1"/>
        <pt x="414" y="-10" on="0"/>
      </contour>
      <contour>
        <pt x="490" y="822" on="1"/>
        <pt x="465" y="807" on="0"/>
        <pt x="292" y="734" on="0"/>
        <pt x="273" y="716" on="1"/>
        <pt x="247" y="741" on="0"/>
        <pt x="247" y="772" on="1"/>
        <pt x="247" y="793" on="0"/>
        <pt x="300" y="833" on="0"/>
        <pt x="370" y="864" on="0"/>
        <pt x="454" y="917" on="0"/>
        <pt x="478" y="946" on="1"/>
        <pt x="495" y="935" on="0"/>
        <pt x="519" y="893" on="0"/>
        <pt x="519" y="874" on="1"/>
        <pt x="519" y="840" on="0"/>
      </contour>
      <contour>
        <pt x="335" y="549" on="1"/>
        <pt x="297" y="424" on="0"/>
        <pt x="243" y="287" on="1"/>
        <pt x="275" y="285" on="0"/>
        <pt x="309" y="285" on="1"/>
        <pt x="347" y="285" on="0"/>
        <pt x="361" y="287" on="1"/>
        <pt x="345" y="419" on="0"/>
      </contour>
    </TTGlyph>
    <TTGlyph name="Acircumflex" xMin="-10" yMin="-13" xMax="577" yMax="912">
      <contour>
        <pt x="405" y="30" on="1"/>
        <pt x="392" y="84" on="0"/>
        <pt x="374" y="191" on="1"/>
        <pt x="333" y="188" on="0"/>
        <pt x="290" y="188" on="1"/>
        <pt x="248" y="188" on="0"/>
        <pt x="205" y="191" on="1"/>
        <pt x="131" y="13" on="0"/>
        <pt x="122" y="-13" on="1"/>
        <pt x="-10" y="-10" on="0"/>
        <pt x="-10" y="50" on="1"/>
        <pt x="-10" y="65" on="0"/>
        <pt x="16" y="120" on="0"/>
        <pt x="94" y="272" on="0"/>
        <pt x="130" y="349" on="1"/>
        <pt x="246" y="597" on="0"/>
        <pt x="267" y="670" on="1"/>
        <pt x="317" y="676" on="0"/>
        <pt x="349" y="676" on="1"/>
        <pt x="432" y="676" on="0"/>
        <pt x="444" y="611" on="1"/>
        <pt x="486" y="382" on="0"/>
        <pt x="507" y="293" on="1"/>
        <pt x="553" y="92" on="0"/>
        <pt x="577" y="14" on="1"/>
        <pt x="517" y="-10" on="0"/>
        <pt x="470" y="-10" on="1"/>
        <pt x="414" y="-10" on="0"/>
      </contour>
      <contour>
        <pt x="360" y="912" on="1"/>
        <pt x="399" y="886" on="0"/>
        <pt x="449" y="848" on="0"/>
        <pt x="495" y="793" on="0"/>
        <pt x="495" y="771" on="1"/>
        <pt x="495" y="755" on="0"/>
        <pt x="458" y="719" on="0"/>
        <pt x="429" y="712" on="1"/>
        <pt x="410" y="740" on="0"/>
        <pt x="368" y="784" on="0"/>
        <pt x="356" y="792" on="1"/>
        <pt x="344" y="801" on="1"/>
        <pt x="240" y="720" on="0"/>
        <pt x="218" y="720" on="1"/>
        <pt x="201" y="720" on="0"/>
        <pt x="183" y="735" on="0"/>
        <pt x="171" y="758" on="1"/>
        <pt x="258" y="847" on="0"/>
      </contour>
      <contour>
        <pt x="335" y="549" on="1"/>
        <pt x="297" y="424" on="0"/>
        <pt x="243" y="287" on="1"/>
        <pt x="275" y="285" on="0"/>
        <pt x="309" y="285" on="1"/>
        <pt x="347" y="285" on="0"/>
        <pt x="361" y="287" on="1"/>
        <pt x="345" y="419" on="0"/>
      </contour>
    </TTGlyph>
    <TTGlyph name="Adieresis" xMin="-10" yMin="-13" xMax="577" yMax="892">
      <contour>
        <pt x="405" y="30" on="1"/>
        <pt x="392" y="84" on="0"/>
        <pt x="374" y="191" on="1"/>
        <pt x="333" y="188" on="0"/>
        <pt x="290" y="188" on="1"/>
        <pt x="248" y="188" on="0"/>
        <pt x="205" y="191" on="1"/>
        <pt x="131" y="13" on="0"/>
        <pt x="122" y="-13" on="1"/>
        <pt x="-10" y="-10" on="0"/>
        <pt x="-10" y="50" on="1"/>
        <pt x="-10" y="65" on="0"/>
        <pt x="16" y="120" on="0"/>
        <pt x="94" y="272" on="0"/>
        <pt x="130" y="349" on="1"/>
        <pt x="246" y="597" on="0"/>
        <pt x="267" y="670" on="1"/>
        <pt x="317" y="676" on="0"/>
        <pt x="349" y="676" on="1"/>
        <pt x="432" y="676" on="0"/>
        <pt x="444" y="611" on="1"/>
        <pt x="486" y="382" on="0"/>
        <pt x="507" y="293" on="1"/>
        <pt x="553" y="92" on="0"/>
        <pt x="577" y="14" on="1"/>
        <pt x="517" y="-10" on="0"/>
        <pt x="470" y="-10" on="1"/>
        <pt x="414" y="-10" on="0"/>
      </contour>
      <contour>
        <pt x="219" y="723" on="1"/>
        <pt x="184" y="723" on="0"/>
        <pt x="146" y="765" on="0"/>
        <pt x="146" y="796" on="1"/>
        <pt x="146" y="833" on="0"/>
        <pt x="197" y="892" on="0"/>
        <pt x="240" y="892" on="1"/>
        <pt x="274" y="892" on="0"/>
        <pt x="313" y="846" on="0"/>
        <pt x="313" y="814" on="1"/>
        <pt x="313" y="778" on="0"/>
        <pt x="263" y="723" on="0"/>
      </contour>
      <contour>
        <pt x="447" y="723" on="1"/>
        <pt x="412" y="723" on="0"/>
        <pt x="374" y="765" on="0"/>
        <pt x="374" y="796" on="1"/>
        <pt x="374" y="833" on="0"/>
        <pt x="425" y="892" on="0"/>
        <pt x="468" y="892" on="1"/>
        <pt x="502" y="892" on="0"/>
        <pt x="541" y="846" on="0"/>
        <pt x="541" y="814" on="1"/>
        <pt x="541" y="778" on="0"/>
        <pt x="491" y="723" on="0"/>
      </contour>
      <contour>
        <pt x="335" y="549" on="1"/>
        <pt x="297" y="424" on="0"/>
        <pt x="243" y="287" on="1"/>
        <pt x="275" y="285" on="0"/>
        <pt x="309" y="285" on="1"/>
        <pt x="347" y="285" on="0"/>
        <pt x="361" y="287" on="1"/>
        <pt x="345" y="419" on="0"/>
      </contour>
    </TTGlyph>
    <TTGlyph name="Agrave" xMin="-10" yMin="-13" xMax="577" yMax="948">
      <contour>
        <pt x="405" y="30" on="1"/>
        <pt x="392" y="84" on="0"/>
        <pt x="374" y="191" on="1"/>
        <pt x="333" y="188" on="0"/>
        <pt x="290" y="188" on="1"/>
        <pt x="248" y="188" on="0"/>
        <pt x="205" y="191" on="1"/>
        <pt x="131" y="13" on="0"/>
        <pt x="122" y="-13" on="1"/>
        <pt x="-10" y="-10" on="0"/>
        <pt x="-10" y="50" on="1"/>
        <pt x="-10" y="65" on="0"/>
        <pt x="16" y="120" on="0"/>
        <pt x="94" y="272" on="0"/>
        <pt x="130" y="349" on="1"/>
        <pt x="246" y="597" on="0"/>
        <pt x="267" y="670" on="1"/>
        <pt x="317" y="676" on="0"/>
        <pt x="349" y="676" on="1"/>
        <pt x="432" y="676" on="0"/>
        <pt x="444" y="611" on="1"/>
        <pt x="486" y="382" on="0"/>
        <pt x="507" y="293" on="1"/>
        <pt x="553" y="92" on="0"/>
        <pt x="577" y="14" on="1"/>
        <pt x="517" y="-10" on="0"/>
        <pt x="470" y="-10" on="1"/>
        <pt x="414" y="-10" on="0"/>
      </contour>
      <contour>
        <pt x="235" y="948" on="1"/>
        <pt x="253" y="917" on="0"/>
        <pt x="338" y="849" on="0"/>
        <pt x="399" y="795" on="0"/>
        <pt x="399" y="772" on="1"/>
        <pt x="399" y="754" on="0"/>
        <pt x="384" y="731" on="0"/>
        <pt x="364" y="716" on="1"/>
        <pt x="334" y="742" on="0"/>
        <pt x="232" y="804" on="0"/>
        <pt x="177" y="848" on="0"/>
        <pt x="177" y="872" on="1"/>
        <pt x="177" y="919" on="0"/>
      </contour>
      <contour>
        <pt x="335" y="549" on="1"/>
        <pt x="297" y="424" on="0"/>
        <pt x="243" y="287" on="1"/>
        <pt x="275" y="285" on="0"/>
        <pt x="309" y="285" on="1"/>
        <pt x="347" y="285" on="0"/>
        <pt x="361" y="287" on="1"/>
        <pt x="345" y="419" on="0"/>
      </contour>
    </TTGlyph>
    <TTGlyph name="Aring" xMin="-10" yMin="-13" xMax="577" yMax="966">
      <contour>
        <pt x="405" y="30" on="1"/>
        <pt x="392" y="84" on="0"/>
        <pt x="374" y="191" on="1"/>
        <pt x="333" y="188" on="0"/>
        <pt x="290" y="188" on="1"/>
        <pt x="248" y="188" on="0"/>
        <pt x="205" y="191" on="1"/>
        <pt x="131" y="13" on="0"/>
        <pt x="122" y="-13" on="1"/>
        <pt x="-10" y="-10" on="0"/>
        <pt x="-10" y="50" on="1"/>
        <pt x="-10" y="65" on="0"/>
        <pt x="16" y="120" on="0"/>
        <pt x="94" y="272" on="0"/>
        <pt x="130" y="349" on="1"/>
        <pt x="246" y="597" on="0"/>
        <pt x="267" y="670" on="1"/>
        <pt x="317" y="676" on="0"/>
        <pt x="349" y="676" on="1"/>
        <pt x="432" y="676" on="0"/>
        <pt x="444" y="611" on="1"/>
        <pt x="486" y="382" on="0"/>
        <pt x="507" y="293" on="1"/>
        <pt x="553" y="92" on="0"/>
        <pt x="577" y="14" on="1"/>
        <pt x="517" y="-10" on="0"/>
        <pt x="470" y="-10" on="1"/>
        <pt x="414" y="-10" on="0"/>
      </contour>
      <contour>
        <pt x="339" y="733" on="1"/>
        <pt x="296" y="733" on="0"/>
        <pt x="244" y="786" on="0"/>
        <pt x="244" y="830" on="1"/>
        <pt x="244" y="884" on="0"/>
        <pt x="315" y="966" on="0"/>
        <pt x="370" y="966" on="1"/>
        <pt x="413" y="966" on="0"/>
        <pt x="463" y="914" on="0"/>
        <pt x="463" y="870" on="1"/>
        <pt x="463" y="813" on="0"/>
        <pt x="396" y="733" on="0"/>
      </contour>
      <contour>
        <pt x="335" y="549" on="1"/>
        <pt x="297" y="424" on="0"/>
        <pt x="243" y="287" on="1"/>
        <pt x="275" y="285" on="0"/>
        <pt x="309" y="285" on="1"/>
        <pt x="347" y="285" on="0"/>
        <pt x="361" y="287" on="1"/>
        <pt x="345" y="419" on="0"/>
      </contour>
      <contour>
        <pt x="346" y="783" on="1"/>
        <pt x="373" y="783" on="0"/>
        <pt x="406" y="828" on="0"/>
        <pt x="406" y="857" on="1"/>
        <pt x="406" y="884" on="0"/>
        <pt x="384" y="916" on="0"/>
        <pt x="363" y="916" on="1"/>
        <pt x="336" y="916" on="0"/>
        <pt x="302" y="871" on="0"/>
        <pt x="302" y="842" on="1"/>
        <pt x="302" y="816" on="0"/>
        <pt x="325" y="783" on="0"/>
      </contour>
    </TTGlyph>
    <TTGlyph name="Atilde" xMin="-10" yMin="-13" xMax="577" yMax="871">
      <contour>
        <pt x="405" y="30" on="1"/>
        <pt x="392" y="84" on="0"/>
        <pt x="374" y="191" on="1"/>
        <pt x="333" y="188" on="0"/>
        <pt x="290" y="188" on="1"/>
        <pt x="248" y="188" on="0"/>
        <pt x="205" y="191" on="1"/>
        <pt x="131" y="13" on="0"/>
        <pt x="122" y="-13" on="1"/>
        <pt x="-10" y="-10" on="0"/>
        <pt x="-10" y="50" on="1"/>
        <pt x="-10" y="65" on="0"/>
        <pt x="16" y="120" on="0"/>
        <pt x="94" y="272" on="0"/>
        <pt x="130" y="349" on="1"/>
        <pt x="246" y="597" on="0"/>
        <pt x="267" y="670" on="1"/>
        <pt x="317" y="676" on="0"/>
        <pt x="349" y="676" on="1"/>
        <pt x="432" y="676" on="0"/>
        <pt x="444" y="611" on="1"/>
        <pt x="486" y="382" on="0"/>
        <pt x="507" y="293" on="1"/>
        <pt x="553" y="92" on="0"/>
        <pt x="577" y="14" on="1"/>
        <pt x="517" y="-10" on="0"/>
        <pt x="470" y="-10" on="1"/>
        <pt x="414" y="-10" on="0"/>
      </contour>
      <contour>
        <pt x="518" y="833" on="1"/>
        <pt x="518" y="792" on="0"/>
        <pt x="429" y="727" on="0"/>
        <pt x="384" y="727" on="1"/>
        <pt x="361" y="727" on="0"/>
        <pt x="285" y="770" on="0"/>
        <pt x="269" y="770" on="1"/>
        <pt x="249" y="770" on="0"/>
        <pt x="200" y="730" on="1"/>
        <pt x="169" y="743" on="0"/>
        <pt x="169" y="765" on="1"/>
        <pt x="169" y="805" on="0"/>
        <pt x="260" y="871" on="0"/>
        <pt x="303" y="871" on="1"/>
        <pt x="326" y="871" on="0"/>
        <pt x="402" y="828" on="0"/>
        <pt x="419" y="828" on="1"/>
        <pt x="440" y="828" on="0"/>
        <pt x="487" y="868" on="1"/>
        <pt x="498" y="866" on="0"/>
        <pt x="518" y="847" on="0"/>
      </contour>
      <contour>
        <pt x="335" y="549" on="1"/>
        <pt x="297" y="424" on="0"/>
        <pt x="243" y="287" on="1"/>
        <pt x="275" y="285" on="0"/>
        <pt x="309" y="285" on="1"/>
        <pt x="347" y="285" on="0"/>
        <pt x="361" y="287" on="1"/>
        <pt x="345" y="419" on="0"/>
      </contour>
    </TTGlyph>
    <TTGlyph name="B" xMin="46" yMin="-10" xMax="542" yMax="673">
      <contour>
        <pt x="46" y="56" on="1"/>
        <pt x="74" y="167" on="0"/>
        <pt x="102" y="387" on="1"/>
        <pt x="126" y="572" on="0"/>
        <pt x="126" y="660" on="1"/>
        <pt x="208" y="673" on="0"/>
        <pt x="301" y="673" on="1"/>
        <pt x="542" y="673" on="0"/>
        <pt x="542" y="527" on="1"/>
        <pt x="542" y="464" on="0"/>
        <pt x="477" y="376" on="0"/>
        <pt x="426" y="362" on="1"/>
        <pt x="474" y="337" on="0"/>
        <pt x="526" y="274" on="0"/>
        <pt x="526" y="227" on="1"/>
        <pt x="526" y="120" on="0"/>
        <pt x="376" y="-10" on="0"/>
        <pt x="270" y="-10" on="1"/>
        <pt x="116" y="-10" on="0"/>
      </contour>
      <contour>
        <pt x="280" y="91" on="1"/>
        <pt x="319" y="91" on="0"/>
        <pt x="374" y="157" on="0"/>
        <pt x="374" y="211" on="1"/>
        <pt x="374" y="311" on="0"/>
        <pt x="282" y="311" on="1"/>
        <pt x="266" y="311" on="0"/>
        <pt x="246" y="308" on="1"/>
        <pt x="231" y="200" on="0"/>
        <pt x="211" y="111" on="1"/>
        <pt x="235" y="91" on="0"/>
      </contour>
      <contour>
        <pt x="277" y="566" on="1"/>
        <pt x="268" y="470" on="0"/>
        <pt x="259" y="402" on="1"/>
        <pt x="277" y="400" on="0"/>
        <pt x="288" y="400" on="1"/>
        <pt x="391" y="400" on="0"/>
        <pt x="391" y="499" on="1"/>
        <pt x="391" y="534" on="0"/>
        <pt x="349" y="572" on="0"/>
        <pt x="316" y="572" on="1"/>
        <pt x="296" y="572" on="0"/>
      </contour>
    </TTGlyph>
    <TTGlyph name="C" xMin="44" yMin="-10" xMax="583" yMax="673">
      <contour>
        <pt x="456" y="170" on="1"/>
        <pt x="530" y="143" on="0"/>
        <pt x="530" y="102" on="1"/>
        <pt x="530" y="60" on="0"/>
        <pt x="400" y="-10" on="0"/>
        <pt x="311" y="-10" on="1"/>
        <pt x="187" y="-10" on="0"/>
        <pt x="44" y="139" on="0"/>
        <pt x="44" y="264" on="1"/>
        <pt x="44" y="368" on="0"/>
        <pt x="113" y="532" on="0"/>
        <pt x="223" y="626" on="0"/>
        <pt x="346" y="673" on="0"/>
        <pt x="408" y="673" on="1"/>
        <pt x="483" y="673" on="0"/>
        <pt x="583" y="609" on="0"/>
        <pt x="583" y="555" on="1"/>
        <pt x="583" y="526" on="0"/>
        <pt x="531" y="489" on="0"/>
        <pt x="489" y="484" on="1"/>
        <pt x="480" y="528" on="0"/>
        <pt x="425" y="572" on="0"/>
        <pt x="390" y="572" on="1"/>
        <pt x="310" y="572" on="0"/>
        <pt x="212" y="401" on="0"/>
        <pt x="212" y="287" on="1"/>
        <pt x="212" y="200" on="0"/>
        <pt x="278" y="91" on="0"/>
        <pt x="345" y="91" on="1"/>
        <pt x="411" y="91" on="0"/>
      </contour>
    </TTGlyph>
    <TTGlyph name="Ccedilla" xMin="44" yMin="-252" xMax="583" yMax="673">
      <contour>
        <pt x="456" y="170" on="1"/>
        <pt x="530" y="143" on="0"/>
        <pt x="530" y="102" on="1"/>
        <pt x="530" y="62" on="0"/>
        <pt x="414" y="-5" on="0"/>
        <pt x="331" y="-9" on="1"/>
        <pt x="326" y="-22" on="0"/>
        <pt x="326" y="-32" on="1"/>
        <pt x="326" y="-41" on="0"/>
        <pt x="348" y="-60" on="0"/>
        <pt x="374" y="-76" on="0"/>
        <pt x="396" y="-109" on="0"/>
        <pt x="396" y="-131" on="1"/>
        <pt x="396" y="-183" on="0"/>
        <pt x="289" y="-252" on="0"/>
        <pt x="231" y="-252" on="1"/>
        <pt x="170" y="-252" on="0"/>
        <pt x="170" y="-211" on="1"/>
        <pt x="170" y="-186" on="0"/>
        <pt x="200" y="-153" on="1"/>
        <pt x="211" y="-166" on="0"/>
        <pt x="232" y="-166" on="1"/>
        <pt x="248" y="-166" on="0"/>
        <pt x="267" y="-145" on="0"/>
        <pt x="267" y="-129" on="1"/>
        <pt x="267" y="-114" on="0"/>
        <pt x="232" y="-74" on="0"/>
        <pt x="232" y="-60" on="1"/>
        <pt x="232" y="-36" on="0"/>
        <pt x="249" y="-4" on="1"/>
        <pt x="153" y="13" on="0"/>
        <pt x="44" y="156" on="0"/>
        <pt x="44" y="264" on="1"/>
        <pt x="44" y="368" on="0"/>
        <pt x="113" y="532" on="0"/>
        <pt x="223" y="626" on="0"/>
        <pt x="346" y="673" on="0"/>
        <pt x="408" y="673" on="1"/>
        <pt x="483" y="673" on="0"/>
        <pt x="583" y="609" on="0"/>
        <pt x="583" y="555" on="1"/>
        <pt x="583" y="526" on="0"/>
        <pt x="531" y="489" on="0"/>
        <pt x="489" y="484" on="1"/>
        <pt x="480" y="528" on="0"/>
        <pt x="425" y="572" on="0"/>
        <pt x="390" y="572" on="1"/>
        <pt x="310" y="572" on="0"/>
        <pt x="212" y="401" on="0"/>
        <pt x="212" y="287" on="1"/>
        <pt x="212" y="200" on="0"/>
        <pt x="278" y="91" on="0"/>
        <pt x="345" y="91" on="1"/>
        <pt x="411" y="91" on="0"/>
      </contour>
    </TTGlyph>
    <TTGlyph name="D" xMin="46" yMin="-10" xMax="652" yMax="673">
      <contour>
        <pt x="279" y="570" on="1"/>
        <pt x="259" y="327" on="0"/>
        <pt x="215" y="116" on="1"/>
        <pt x="251" y="91" on="0"/>
        <pt x="307" y="91" on="1"/>
        <pt x="356" y="91" on="0"/>
        <pt x="431" y="148" on="0"/>
        <pt x="470" y="239" on="0"/>
        <pt x="488" y="334" on="0"/>
        <pt x="488" y="382" on="1"/>
        <pt x="488" y="477" on="0"/>
        <pt x="401" y="572" on="0"/>
        <pt x="320" y="572" on="1"/>
        <pt x="305" y="572" on="0"/>
      </contour>
      <contour>
        <pt x="46" y="53" on="1"/>
        <pt x="75" y="184" on="0"/>
        <pt x="122" y="531" on="0"/>
        <pt x="125" y="661" on="1"/>
        <pt x="191" y="673" on="0"/>
        <pt x="298" y="673" on="1"/>
        <pt x="652" y="673" on="0"/>
        <pt x="652" y="404" on="1"/>
        <pt x="652" y="324" on="0"/>
        <pt x="600" y="177" on="0"/>
        <pt x="505" y="60" on="0"/>
        <pt x="355" y="-10" on="0"/>
        <pt x="264" y="-10" on="1"/>
        <pt x="117" y="-10" on="0"/>
      </contour>
    </TTGlyph>
    <TTGlyph name="Delta" xMin="-1" yMin="0" xMax="591" yMax="645">
      <contour>
        <pt x="543" y="0" on="1"/>
        <pt x="35" y="0" on="1"/>
        <pt x="-1" y="0" on="0"/>
        <pt x="-1" y="34" on="1"/>
        <pt x="-1" y="42" on="0"/>
        <pt x="0" y="47" on="1"/>
        <pt x="237" y="472" on="0"/>
        <pt x="311" y="618" on="1"/>
        <pt x="324" y="645" on="0"/>
        <pt x="379" y="645" on="1"/>
        <pt x="400" y="645" on="0"/>
        <pt x="427" y="640" on="1"/>
        <pt x="538" y="229" on="0"/>
        <pt x="591" y="48" on="1"/>
        <pt x="584" y="0" on="0"/>
      </contour>
      <contour>
        <pt x="322" y="467" on="1"/>
        <pt x="134" y="119" on="1"/>
        <pt x="182" y="112" on="0"/>
        <pt x="281" y="112" on="1"/>
        <pt x="376" y="112" on="0"/>
        <pt x="415" y="117" on="1"/>
      </contour>
    </TTGlyph>
    <TTGlyph name="E" xMin="54" yMin="-3" xMax="536" yMax="665">
      <contour>
        <pt x="517" y="540" on="1"/>
        <pt x="471" y="561" on="0"/>
        <pt x="358" y="561" on="1"/>
        <pt x="326" y="561" on="0"/>
        <pt x="276" y="558" on="1"/>
        <pt x="274" y="524" on="0"/>
        <pt x="258" y="406" on="1"/>
        <pt x="391" y="406" on="0"/>
        <pt x="423" y="410" on="1"/>
        <pt x="425" y="390" on="0"/>
        <pt x="425" y="375" on="1"/>
        <pt x="425" y="310" on="0"/>
        <pt x="381" y="305" on="1"/>
        <pt x="357" y="303" on="0"/>
        <pt x="243" y="303" on="1"/>
        <pt x="223" y="140" on="0"/>
        <pt x="223" y="101" on="1"/>
        <pt x="251" y="99" on="0"/>
        <pt x="287" y="99" on="1"/>
        <pt x="340" y="99" on="0"/>
        <pt x="451" y="112" on="0"/>
        <pt x="468" y="121" on="1"/>
        <pt x="476" y="83" on="0"/>
        <pt x="476" y="65" on="1"/>
        <pt x="476" y="17" on="0"/>
        <pt x="406" y="-3" on="0"/>
        <pt x="283" y="-3" on="1"/>
        <pt x="130" y="-3" on="0"/>
        <pt x="98" y="-1" on="1"/>
        <pt x="74" y="0" on="0"/>
        <pt x="54" y="16" on="0"/>
        <pt x="54" y="34" on="1"/>
        <pt x="54" y="62" on="0"/>
        <pt x="121" y="550" on="0"/>
        <pt x="121" y="631" on="1"/>
        <pt x="121" y="649" on="0"/>
        <pt x="120" y="656" on="1"/>
        <pt x="238" y="665" on="0"/>
        <pt x="356" y="665" on="1"/>
        <pt x="509" y="665" on="0"/>
        <pt x="528" y="646" on="1"/>
        <pt x="536" y="638" on="0"/>
        <pt x="536" y="618" on="1"/>
        <pt x="536" y="578" on="0"/>
      </contour>
    </TTGlyph>
    <TTGlyph name="Eacute" xMin="54" yMin="-3" xMax="536" yMax="946">
      <contour>
        <pt x="517" y="540" on="1"/>
        <pt x="471" y="561" on="0"/>
        <pt x="358" y="561" on="1"/>
        <pt x="326" y="561" on="0"/>
        <pt x="276" y="558" on="1"/>
        <pt x="274" y="524" on="0"/>
        <pt x="258" y="406" on="1"/>
        <pt x="391" y="406" on="0"/>
        <pt x="423" y="410" on="1"/>
        <pt x="425" y="390" on="0"/>
        <pt x="425" y="375" on="1"/>
        <pt x="425" y="310" on="0"/>
        <pt x="381" y="305" on="1"/>
        <pt x="357" y="303" on="0"/>
        <pt x="243" y="303" on="1"/>
        <pt x="223" y="140" on="0"/>
        <pt x="223" y="101" on="1"/>
        <pt x="251" y="99" on="0"/>
        <pt x="287" y="99" on="1"/>
        <pt x="340" y="99" on="0"/>
        <pt x="451" y="112" on="0"/>
        <pt x="468" y="121" on="1"/>
        <pt x="476" y="83" on="0"/>
        <pt x="476" y="65" on="1"/>
        <pt x="476" y="17" on="0"/>
        <pt x="406" y="-3" on="0"/>
        <pt x="283" y="-3" on="1"/>
        <pt x="130" y="-3" on="0"/>
        <pt x="98" y="-1" on="1"/>
        <pt x="74" y="0" on="0"/>
        <pt x="54" y="16" on="0"/>
        <pt x="54" y="34" on="1"/>
        <pt x="54" y="62" on="0"/>
        <pt x="121" y="550" on="0"/>
        <pt x="121" y="631" on="1"/>
        <pt x="121" y="649" on="0"/>
        <pt x="120" y="656" on="1"/>
        <pt x="238" y="665" on="0"/>
        <pt x="356" y="665" on="1"/>
        <pt x="509" y="665" on="0"/>
        <pt x="528" y="646" on="1"/>
        <pt x="536" y="638" on="0"/>
        <pt x="536" y="618" on="1"/>
        <pt x="536" y="578" on="0"/>
      </contour>
      <contour>
        <pt x="502" y="822" on="1"/>
        <pt x="477" y="807" on="0"/>
        <pt x="304" y="734" on="0"/>
        <pt x="285" y="716" on="1"/>
        <pt x="259" y="741" on="0"/>
        <pt x="259" y="772" on="1"/>
        <pt x="259" y="793" on="0"/>
        <pt x="312" y="833" on="0"/>
        <pt x="382" y="864" on="0"/>
        <pt x="466" y="917" on="0"/>
        <pt x="490" y="946" on="1"/>
        <pt x="507" y="935" on="0"/>
        <pt x="531" y="893" on="0"/>
        <pt x="531" y="874" on="1"/>
        <pt x="531" y="840" on="0"/>
      </contour>
    </TTGlyph>
    <TTGlyph name="Ecircumflex" xMin="54" yMin="-3" xMax="536" yMax="912">
      <contour>
        <pt x="517" y="540" on="1"/>
        <pt x="471" y="561" on="0"/>
        <pt x="358" y="561" on="1"/>
        <pt x="326" y="561" on="0"/>
        <pt x="276" y="558" on="1"/>
        <pt x="274" y="524" on="0"/>
        <pt x="258" y="406" on="1"/>
        <pt x="391" y="406" on="0"/>
        <pt x="423" y="410" on="1"/>
        <pt x="425" y="390" on="0"/>
        <pt x="425" y="375" on="1"/>
        <pt x="425" y="310" on="0"/>
        <pt x="381" y="305" on="1"/>
        <pt x="357" y="303" on="0"/>
        <pt x="243" y="303" on="1"/>
        <pt x="223" y="140" on="0"/>
        <pt x="223" y="101" on="1"/>
        <pt x="251" y="99" on="0"/>
        <pt x="287" y="99" on="1"/>
        <pt x="340" y="99" on="0"/>
        <pt x="451" y="112" on="0"/>
        <pt x="468" y="121" on="1"/>
        <pt x="476" y="83" on="0"/>
        <pt x="476" y="65" on="1"/>
        <pt x="476" y="17" on="0"/>
        <pt x="406" y="-3" on="0"/>
        <pt x="283" y="-3" on="1"/>
        <pt x="130" y="-3" on="0"/>
        <pt x="98" y="-1" on="1"/>
        <pt x="74" y="0" on="0"/>
        <pt x="54" y="16" on="0"/>
        <pt x="54" y="34" on="1"/>
        <pt x="54" y="62" on="0"/>
        <pt x="121" y="550" on="0"/>
        <pt x="121" y="631" on="1"/>
        <pt x="121" y="649" on="0"/>
        <pt x="120" y="656" on="1"/>
        <pt x="238" y="665" on="0"/>
        <pt x="356" y="665" on="1"/>
        <pt x="509" y="665" on="0"/>
        <pt x="528" y="646" on="1"/>
        <pt x="536" y="638" on="0"/>
        <pt x="536" y="618" on="1"/>
        <pt x="536" y="578" on="0"/>
      </contour>
      <contour>
        <pt x="372" y="912" on="1"/>
        <pt x="411" y="886" on="0"/>
        <pt x="461" y="848" on="0"/>
        <pt x="507" y="793" on="0"/>
        <pt x="507" y="771" on="1"/>
        <pt x="507" y="755" on="0"/>
        <pt x="470" y="719" on="0"/>
        <pt x="441" y="712" on="1"/>
        <pt x="422" y="740" on="0"/>
        <pt x="380" y="784" on="0"/>
        <pt x="368" y="792" on="1"/>
        <pt x="356" y="801" on="1"/>
        <pt x="253" y="720" on="0"/>
        <pt x="230" y="720" on="1"/>
        <pt x="213" y="720" on="0"/>
        <pt x="195" y="735" on="0"/>
        <pt x="183" y="758" on="1"/>
        <pt x="270" y="847" on="0"/>
      </contour>
    </TTGlyph>
    <TTGlyph name="Edieresis" xMin="54" yMin="-3" xMax="553" yMax="892">
      <contour>
        <pt x="517" y="540" on="1"/>
        <pt x="471" y="561" on="0"/>
        <pt x="358" y="561" on="1"/>
        <pt x="326" y="561" on="0"/>
        <pt x="276" y="558" on="1"/>
        <pt x="274" y="524" on="0"/>
        <pt x="258" y="406" on="1"/>
        <pt x="391" y="406" on="0"/>
        <pt x="423" y="410" on="1"/>
        <pt x="425" y="390" on="0"/>
        <pt x="425" y="375" on="1"/>
        <pt x="425" y="310" on="0"/>
        <pt x="381" y="305" on="1"/>
        <pt x="357" y="303" on="0"/>
        <pt x="243" y="303" on="1"/>
        <pt x="223" y="140" on="0"/>
        <pt x="223" y="101" on="1"/>
        <pt x="251" y="99" on="0"/>
        <pt x="287" y="99" on="1"/>
        <pt x="340" y="99" on="0"/>
        <pt x="451" y="112" on="0"/>
        <pt x="468" y="121" on="1"/>
        <pt x="476" y="83" on="0"/>
        <pt x="476" y="65" on="1"/>
        <pt x="476" y="17" on="0"/>
        <pt x="406" y="-3" on="0"/>
        <pt x="283" y="-3" on="1"/>
        <pt x="130" y="-3" on="0"/>
        <pt x="98" y="-1" on="1"/>
        <pt x="74" y="0" on="0"/>
        <pt x="54" y="16" on="0"/>
        <pt x="54" y="34" on="1"/>
        <pt x="54" y="62" on="0"/>
        <pt x="121" y="550" on="0"/>
        <pt x="121" y="631" on="1"/>
        <pt x="121" y="649" on="0"/>
        <pt x="120" y="656" on="1"/>
        <pt x="238" y="665" on="0"/>
        <pt x="356" y="665" on="1"/>
        <pt x="509" y="665" on="0"/>
        <pt x="528" y="646" on="1"/>
        <pt x="536" y="638" on="0"/>
        <pt x="536" y="618" on="1"/>
        <pt x="536" y="578" on="0"/>
      </contour>
      <contour>
        <pt x="231" y="723" on="1"/>
        <pt x="196" y="723" on="0"/>
        <pt x="158" y="765" on="0"/>
        <pt x="158" y="796" on="1"/>
        <pt x="158" y="833" on="0"/>
        <pt x="209" y="892" on="0"/>
        <pt x="252" y="892" on="1"/>
        <pt x="286" y="892" on="0"/>
        <pt x="325" y="846" on="0"/>
        <pt x="325" y="814" on="1"/>
        <pt x="325" y="778" on="0"/>
        <pt x="275" y="723" on="0"/>
      </contour>
      <contour>
        <pt x="459" y="723" on="1"/>
        <pt x="424" y="723" on="0"/>
        <pt x="386" y="765" on="0"/>
        <pt x="386" y="796" on="1"/>
        <pt x="386" y="833" on="0"/>
        <pt x="437" y="892" on="0"/>
        <pt x="480" y="892" on="1"/>
        <pt x="514" y="892" on="0"/>
        <pt x="553" y="846" on="0"/>
        <pt x="553" y="814" on="1"/>
        <pt x="553" y="778" on="0"/>
        <pt x="503" y="723" on="0"/>
      </contour>
    </TTGlyph>
    <TTGlyph name="Egrave" xMin="54" yMin="-3" xMax="536" yMax="948">
      <contour>
        <pt x="517" y="540" on="1"/>
        <pt x="471" y="561" on="0"/>
        <pt x="358" y="561" on="1"/>
        <pt x="326" y="561" on="0"/>
        <pt x="276" y="558" on="1"/>
        <pt x="274" y="524" on="0"/>
        <pt x="258" y="406" on="1"/>
        <pt x="391" y="406" on="0"/>
        <pt x="423" y="410" on="1"/>
        <pt x="425" y="390" on="0"/>
        <pt x="425" y="375" on="1"/>
        <pt x="425" y="310" on="0"/>
        <pt x="381" y="305" on="1"/>
        <pt x="357" y="303" on="0"/>
        <pt x="243" y="303" on="1"/>
        <pt x="223" y="140" on="0"/>
        <pt x="223" y="101" on="1"/>
        <pt x="251" y="99" on="0"/>
        <pt x="287" y="99" on="1"/>
        <pt x="340" y="99" on="0"/>
        <pt x="451" y="112" on="0"/>
        <pt x="468" y="121" on="1"/>
        <pt x="476" y="83" on="0"/>
        <pt x="476" y="65" on="1"/>
        <pt x="476" y="17" on="0"/>
        <pt x="406" y="-3" on="0"/>
        <pt x="283" y="-3" on="1"/>
        <pt x="130" y="-3" on="0"/>
        <pt x="98" y="-1" on="1"/>
        <pt x="74" y="0" on="0"/>
        <pt x="54" y="16" on="0"/>
        <pt x="54" y="34" on="1"/>
        <pt x="54" y="62" on="0"/>
        <pt x="121" y="550" on="0"/>
        <pt x="121" y="631" on="1"/>
        <pt x="121" y="649" on="0"/>
        <pt x="120" y="656" on="1"/>
        <pt x="238" y="665" on="0"/>
        <pt x="356" y="665" on="1"/>
        <pt x="509" y="665" on="0"/>
        <pt x="528" y="646" on="1"/>
        <pt x="536" y="638" on="0"/>
        <pt x="536" y="618" on="1"/>
        <pt x="536" y="578" on="0"/>
      </contour>
      <contour>
        <pt x="247" y="948" on="1"/>
        <pt x="265" y="917" on="0"/>
        <pt x="350" y="849" on="0"/>
        <pt x="411" y="795" on="0"/>
        <pt x="411" y="772" on="1"/>
        <pt x="411" y="754" on="0"/>
        <pt x="396" y="731" on="0"/>
        <pt x="376" y="716" on="1"/>
        <pt x="346" y="742" on="0"/>
        <pt x="244" y="804" on="0"/>
        <pt x="189" y="848" on="0"/>
        <pt x="189" y="872" on="1"/>
        <pt x="189" y="919" on="0"/>
      </contour>
    </TTGlyph>
    <TTGlyph name="Eth" xMin="36" yMin="-10" xMax="696" yMax="673">
      <contour>
        <pt x="90" y="53" on="1"/>
        <pt x="114" y="163" on="0"/>
        <pt x="135" y="303" on="1"/>
        <pt x="69" y="303" on="0"/>
        <pt x="38" y="299" on="1"/>
        <pt x="36" y="319" on="0"/>
        <pt x="36" y="334" on="1"/>
        <pt x="36" y="399" on="0"/>
        <pt x="80" y="404" on="1"/>
        <pt x="110" y="406" on="0"/>
        <pt x="149" y="406" on="1"/>
        <pt x="166" y="545" on="0"/>
        <pt x="169" y="661" on="1"/>
        <pt x="235" y="673" on="0"/>
        <pt x="342" y="673" on="1"/>
        <pt x="696" y="673" on="0"/>
        <pt x="696" y="404" on="1"/>
        <pt x="696" y="324" on="0"/>
        <pt x="644" y="177" on="0"/>
        <pt x="549" y="60" on="0"/>
        <pt x="399" y="-10" on="0"/>
        <pt x="308" y="-10" on="1"/>
        <pt x="161" y="-10" on="0"/>
      </contour>
      <contour>
        <pt x="323" y="570" on="1"/>
        <pt x="319" y="508" on="0"/>
        <pt x="306" y="406" on="1"/>
        <pt x="428" y="406" on="0"/>
        <pt x="459" y="410" on="1"/>
        <pt x="461" y="390" on="0"/>
        <pt x="461" y="375" on="1"/>
        <pt x="461" y="310" on="0"/>
        <pt x="417" y="305" on="1"/>
        <pt x="394" y="303" on="0"/>
        <pt x="292" y="303" on="1"/>
        <pt x="276" y="196" on="0"/>
        <pt x="259" y="116" on="1"/>
        <pt x="295" y="91" on="0"/>
        <pt x="351" y="91" on="1"/>
        <pt x="400" y="91" on="0"/>
        <pt x="475" y="148" on="0"/>
        <pt x="514" y="239" on="0"/>
        <pt x="532" y="334" on="0"/>
        <pt x="532" y="382" on="1"/>
        <pt x="532" y="477" on="0"/>
        <pt x="445" y="572" on="0"/>
        <pt x="364" y="572" on="1"/>
        <pt x="349" y="572" on="0"/>
      </contour>
    </TTGlyph>
    <TTGlyph name="Euro" xMin="24" yMin="-9" xMax="602" yMax="673">
      <contour>
        <pt x="459" y="244" on="1"/>
        <pt x="254" y="244" on="1"/>
        <pt x="263" y="161" on="0"/>
        <pt x="342" y="88" on="0"/>
        <pt x="388" y="88" on="1"/>
        <pt x="452" y="88" on="0"/>
        <pt x="493" y="124" on="1"/>
        <pt x="525" y="100" on="0"/>
        <pt x="525" y="60" on="1"/>
        <pt x="525" y="-9" on="0"/>
        <pt x="373" y="-9" on="1"/>
        <pt x="322" y="-9" on="0"/>
        <pt x="235" y="15" on="0"/>
        <pt x="155" y="69" on="0"/>
        <pt x="105" y="172" on="0"/>
        <pt x="99" y="244" on="1"/>
        <pt x="65" y="242" on="0"/>
        <pt x="25" y="236" on="1"/>
        <pt x="24" y="242" on="0"/>
        <pt x="24" y="251" on="1"/>
        <pt x="24" y="273" on="0"/>
        <pt x="45" y="299" on="0"/>
        <pt x="65" y="299" on="1"/>
        <pt x="97" y="299" on="1"/>
        <pt x="97" y="318" on="0"/>
        <pt x="103" y="354" on="1"/>
        <pt x="75" y="352" on="0"/>
        <pt x="40" y="347" on="1"/>
        <pt x="39" y="353" on="0"/>
        <pt x="39" y="362" on="1"/>
        <pt x="39" y="384" on="0"/>
        <pt x="60" y="410" on="0"/>
        <pt x="80" y="410" on="1"/>
        <pt x="117" y="410" on="1"/>
        <pt x="154" y="523" on="0"/>
        <pt x="336" y="673" on="0"/>
        <pt x="467" y="673" on="1"/>
        <pt x="602" y="673" on="0"/>
        <pt x="602" y="610" on="1"/>
        <pt x="602" y="591" on="0"/>
        <pt x="572" y="552" on="0"/>
        <pt x="549" y="541" on="1"/>
        <pt x="513" y="577" on="0"/>
        <pt x="447" y="577" on="1"/>
        <pt x="391" y="577" on="0"/>
        <pt x="298" y="481" on="0"/>
        <pt x="272" y="410" on="1"/>
        <pt x="297" y="410" on="1"/>
        <pt x="430" y="410" on="0"/>
        <pt x="514" y="418" on="1"/>
        <pt x="515" y="406" on="1"/>
        <pt x="515" y="355" on="0"/>
        <pt x="474" y="355" on="1"/>
        <pt x="257" y="355" on="1"/>
        <pt x="251" y="317" on="0"/>
        <pt x="251" y="299" on="1"/>
        <pt x="282" y="299" on="1"/>
        <pt x="415" y="299" on="0"/>
        <pt x="499" y="307" on="1"/>
        <pt x="500" y="295" on="1"/>
        <pt x="500" y="244" on="0"/>
      </contour>
    </TTGlyph>
    <TTGlyph name="Eurooldstyle" xMin="22" yMin="-10" xMax="582" yMax="590">
      <contour>
        <pt x="447" y="204" on="1"/>
        <pt x="252" y="204" on="1"/>
        <pt x="264" y="144" on="0"/>
        <pt x="337" y="88" on="0"/>
        <pt x="381" y="88" on="1"/>
        <pt x="441" y="88" on="0"/>
        <pt x="487" y="122" on="1"/>
        <pt x="515" y="82" on="0"/>
        <pt x="515" y="55" on="1"/>
        <pt x="515" y="-10" on="0"/>
        <pt x="365" y="-10" on="1"/>
        <pt x="121" y="-10" on="0"/>
        <pt x="97" y="204" on="1"/>
        <pt x="61" y="202" on="0"/>
        <pt x="24" y="195" on="1"/>
        <pt x="22" y="202" on="0"/>
        <pt x="22" y="211" on="1"/>
        <pt x="22" y="259" on="0"/>
        <pt x="64" y="259" on="1"/>
        <pt x="95" y="259" on="1"/>
        <pt x="95" y="283" on="0"/>
        <pt x="100" y="313" on="1"/>
        <pt x="70" y="311" on="0"/>
        <pt x="37" y="305" on="1"/>
        <pt x="35" y="312" on="0"/>
        <pt x="35" y="321" on="1"/>
        <pt x="35" y="369" on="0"/>
        <pt x="77" y="369" on="1"/>
        <pt x="115" y="369" on="1"/>
        <pt x="149" y="466" on="0"/>
        <pt x="320" y="590" on="0"/>
        <pt x="452" y="590" on="1"/>
        <pt x="505" y="590" on="0"/>
        <pt x="582" y="562" on="0"/>
        <pt x="582" y="529" on="1"/>
        <pt x="582" y="490" on="0"/>
        <pt x="532" y="457" on="1"/>
        <pt x="495" y="494" on="0"/>
        <pt x="430" y="494" on="1"/>
        <pt x="376" y="494" on="0"/>
        <pt x="293" y="424" on="0"/>
        <pt x="270" y="369" on="1"/>
        <pt x="281" y="369" on="1"/>
        <pt x="405" y="369" on="0"/>
        <pt x="500" y="378" on="1"/>
        <pt x="502" y="365" on="1"/>
        <pt x="502" y="314" on="0"/>
        <pt x="460" y="314" on="1"/>
        <pt x="252" y="314" on="1"/>
        <pt x="247" y="282" on="0"/>
        <pt x="247" y="259" on="1"/>
        <pt x="268" y="259" on="1"/>
        <pt x="392" y="259" on="0"/>
        <pt x="487" y="268" on="1"/>
        <pt x="489" y="255" on="1"/>
        <pt x="489" y="204" on="0"/>
      </contour>
    </TTGlyph>
    <TTGlyph name="F" xMin="54" yMin="-3" xMax="541" yMax="665">
      <contour>
        <pt x="104" y="437" on="1"/>
        <pt x="121" y="568" on="0"/>
        <pt x="121" y="631" on="1"/>
        <pt x="121" y="649" on="0"/>
        <pt x="120" y="656" on="1"/>
        <pt x="238" y="665" on="0"/>
        <pt x="361" y="665" on="1"/>
        <pt x="514" y="665" on="0"/>
        <pt x="533" y="646" on="1"/>
        <pt x="541" y="638" on="0"/>
        <pt x="541" y="618" on="1"/>
        <pt x="541" y="578" on="0"/>
        <pt x="522" y="540" on="1"/>
        <pt x="476" y="561" on="0"/>
        <pt x="363" y="561" on="1"/>
        <pt x="326" y="561" on="0"/>
        <pt x="276" y="558" on="1"/>
        <pt x="274" y="524" on="0"/>
        <pt x="258" y="406" on="1"/>
        <pt x="391" y="406" on="0"/>
        <pt x="423" y="410" on="1"/>
        <pt x="425" y="390" on="0"/>
        <pt x="425" y="375" on="1"/>
        <pt x="425" y="310" on="0"/>
        <pt x="381" y="305" on="1"/>
        <pt x="357" y="303" on="0"/>
        <pt x="243" y="303" on="1"/>
        <pt x="230" y="199" on="1"/>
        <pt x="218" y="113" on="0"/>
        <pt x="218" y="67" on="1"/>
        <pt x="218" y="33" on="0"/>
        <pt x="222" y="8" on="1"/>
        <pt x="189" y="-3" on="0"/>
        <pt x="131" y="-3" on="1"/>
        <pt x="89" y="-3" on="0"/>
        <pt x="54" y="27" on="0"/>
        <pt x="54" y="59" on="1"/>
        <pt x="54" y="65" on="0"/>
        <pt x="64" y="136" on="0"/>
        <pt x="90" y="327" on="0"/>
      </contour>
    </TTGlyph>
    <TTGlyph name="G" xMin="44" yMin="-10" xMax="583" yMax="673">
      <contour>
        <pt x="409" y="295" on="1"/>
        <pt x="445" y="304" on="0"/>
        <pt x="482" y="304" on="1"/>
        <pt x="566" y="304" on="0"/>
        <pt x="566" y="253" on="1"/>
        <pt x="566" y="248" on="0"/>
        <pt x="554" y="199" on="0"/>
        <pt x="537" y="116" on="0"/>
        <pt x="532" y="78" on="1"/>
        <pt x="524" y="40" on="0"/>
        <pt x="397" y="-10" on="0"/>
        <pt x="310" y="-10" on="1"/>
        <pt x="186" y="-10" on="0"/>
        <pt x="44" y="139" on="0"/>
        <pt x="44" y="264" on="1"/>
        <pt x="44" y="447" on="0"/>
        <pt x="252" y="673" on="0"/>
        <pt x="415" y="673" on="1"/>
        <pt x="487" y="673" on="0"/>
        <pt x="583" y="607" on="0"/>
        <pt x="583" y="556" on="1"/>
        <pt x="583" y="527" on="0"/>
        <pt x="531" y="489" on="0"/>
        <pt x="489" y="484" on="1"/>
        <pt x="480" y="528" on="0"/>
        <pt x="426" y="572" on="0"/>
        <pt x="392" y="572" on="1"/>
        <pt x="314" y="572" on="0"/>
        <pt x="212" y="408" on="0"/>
        <pt x="212" y="293" on="1"/>
        <pt x="212" y="203" on="0"/>
        <pt x="268" y="91" on="0"/>
        <pt x="323" y="91" on="1"/>
        <pt x="367" y="91" on="0"/>
        <pt x="396" y="123" on="1"/>
        <pt x="403" y="208" on="0"/>
      </contour>
    </TTGlyph>
    <TTGlyph name="H" xMin="54" yMin="-3" xMax="652" yMax="666">
      <contour>
        <pt x="570" y="666" on="1"/>
        <pt x="652" y="666" on="0"/>
        <pt x="652" y="613" on="1"/>
        <pt x="652" y="608" on="0"/>
        <pt x="643" y="554" on="0"/>
        <pt x="626" y="448" on="0"/>
        <pt x="619" y="392" on="1"/>
        <pt x="594" y="199" on="1"/>
        <pt x="582" y="113" on="0"/>
        <pt x="582" y="67" on="1"/>
        <pt x="582" y="33" on="0"/>
        <pt x="586" y="8" on="1"/>
        <pt x="553" y="-3" on="0"/>
        <pt x="495" y="-3" on="1"/>
        <pt x="453" y="-3" on="0"/>
        <pt x="418" y="27" on="0"/>
        <pt x="418" y="59" on="1"/>
        <pt x="418" y="65" on="0"/>
        <pt x="424" y="111" on="0"/>
        <pt x="442" y="244" on="0"/>
        <pt x="451" y="309" on="1"/>
        <pt x="437" y="309" on="0"/>
        <pt x="381" y="308" on="0"/>
        <pt x="366" y="308" on="1"/>
        <pt x="326" y="308" on="0"/>
        <pt x="244" y="310" on="1"/>
        <pt x="230" y="199" on="1"/>
        <pt x="218" y="113" on="0"/>
        <pt x="218" y="67" on="1"/>
        <pt x="218" y="33" on="0"/>
        <pt x="222" y="8" on="1"/>
        <pt x="189" y="-3" on="0"/>
        <pt x="131" y="-3" on="1"/>
        <pt x="89" y="-3" on="0"/>
        <pt x="54" y="27" on="0"/>
        <pt x="54" y="59" on="1"/>
        <pt x="54" y="65" on="0"/>
        <pt x="64" y="136" on="0"/>
        <pt x="90" y="327" on="0"/>
        <pt x="104" y="437" on="1"/>
        <pt x="123" y="590" on="0"/>
        <pt x="126" y="660" on="1"/>
        <pt x="157" y="666" on="0"/>
        <pt x="206" y="666" on="1"/>
        <pt x="288" y="666" on="0"/>
        <pt x="288" y="613" on="1"/>
        <pt x="288" y="608" on="0"/>
        <pt x="279" y="559" on="0"/>
        <pt x="263" y="460" on="0"/>
        <pt x="257" y="409" on="1"/>
        <pt x="296" y="408" on="0"/>
        <pt x="376" y="408" on="1"/>
        <pt x="434" y="408" on="0"/>
        <pt x="464" y="409" on="1"/>
        <pt x="468" y="437" on="1"/>
        <pt x="487" y="590" on="0"/>
        <pt x="490" y="660" on="1"/>
        <pt x="521" y="666" on="0"/>
      </contour>
    </TTGlyph>
    <TTGlyph name="I" xMin="54" yMin="-3" xMax="288" yMax="666">
      <contour>
        <pt x="206" y="666" on="1"/>
        <pt x="288" y="666" on="0"/>
        <pt x="288" y="613" on="1"/>
        <pt x="288" y="608" on="0"/>
        <pt x="279" y="554" on="0"/>
        <pt x="262" y="448" on="0"/>
        <pt x="255" y="392" on="1"/>
        <pt x="230" y="199" on="1"/>
        <pt x="218" y="113" on="0"/>
        <pt x="218" y="67" on="1"/>
        <pt x="218" y="33" on="0"/>
        <pt x="222" y="8" on="1"/>
        <pt x="189" y="-3" on="0"/>
        <pt x="131" y="-3" on="1"/>
        <pt x="89" y="-3" on="0"/>
        <pt x="54" y="27" on="0"/>
        <pt x="54" y="59" on="1"/>
        <pt x="54" y="65" on="0"/>
        <pt x="64" y="136" on="0"/>
        <pt x="90" y="327" on="0"/>
        <pt x="104" y="437" on="1"/>
        <pt x="123" y="590" on="0"/>
        <pt x="126" y="660" on="1"/>
        <pt x="157" y="666" on="0"/>
      </contour>
    </TTGlyph>
    <TTGlyph name="Iacute" xMin="54" yMin="-3" xMax="397" yMax="946">
      <contour>
        <pt x="206" y="666" on="1"/>
        <pt x="288" y="666" on="0"/>
        <pt x="288" y="613" on="1"/>
        <pt x="288" y="608" on="0"/>
        <pt x="279" y="554" on="0"/>
        <pt x="262" y="448" on="0"/>
        <pt x="255" y="392" on="1"/>
        <pt x="230" y="199" on="1"/>
        <pt x="218" y="113" on="0"/>
        <pt x="218" y="67" on="1"/>
        <pt x="218" y="33" on="0"/>
        <pt x="222" y="8" on="1"/>
        <pt x="189" y="-3" on="0"/>
        <pt x="131" y="-3" on="1"/>
        <pt x="89" y="-3" on="0"/>
        <pt x="54" y="27" on="0"/>
        <pt x="54" y="59" on="1"/>
        <pt x="54" y="65" on="0"/>
        <pt x="64" y="136" on="0"/>
        <pt x="90" y="327" on="0"/>
        <pt x="104" y="437" on="1"/>
        <pt x="123" y="590" on="0"/>
        <pt x="126" y="660" on="1"/>
        <pt x="157" y="666" on="0"/>
      </contour>
      <contour>
        <pt x="368" y="822" on="1"/>
        <pt x="343" y="807" on="0"/>
        <pt x="170" y="734" on="0"/>
        <pt x="151" y="716" on="1"/>
        <pt x="125" y="741" on="0"/>
        <pt x="125" y="772" on="1"/>
        <pt x="125" y="793" on="0"/>
        <pt x="178" y="833" on="0"/>
        <pt x="248" y="864" on="0"/>
        <pt x="332" y="917" on="0"/>
        <pt x="356" y="946" on="1"/>
        <pt x="373" y="935" on="0"/>
        <pt x="397" y="893" on="0"/>
        <pt x="397" y="874" on="1"/>
        <pt x="397" y="840" on="0"/>
      </contour>
    </TTGlyph>
    <TTGlyph name="Icircumflex" xMin="49" yMin="-3" xMax="373" yMax="912">
      <contour>
        <pt x="206" y="666" on="1"/>
        <pt x="288" y="666" on="0"/>
        <pt x="288" y="613" on="1"/>
        <pt x="288" y="608" on="0"/>
        <pt x="279" y="554" on="0"/>
        <pt x="262" y="448" on="0"/>
        <pt x="255" y="392" on="1"/>
        <pt x="230" y="199" on="1"/>
        <pt x="218" y="113" on="0"/>
        <pt x="218" y="67" on="1"/>
        <pt x="218" y="33" on="0"/>
        <pt x="222" y="8" on="1"/>
        <pt x="189" y="-3" on="0"/>
        <pt x="131" y="-3" on="1"/>
        <pt x="89" y="-3" on="0"/>
        <pt x="54" y="27" on="0"/>
        <pt x="54" y="59" on="1"/>
        <pt x="54" y="65" on="0"/>
        <pt x="64" y="136" on="0"/>
        <pt x="90" y="327" on="0"/>
        <pt x="104" y="437" on="1"/>
        <pt x="123" y="590" on="0"/>
        <pt x="126" y="660" on="1"/>
        <pt x="157" y="666" on="0"/>
      </contour>
      <contour>
        <pt x="238" y="912" on="1"/>
        <pt x="277" y="886" on="0"/>
        <pt x="327" y="848" on="0"/>
        <pt x="373" y="793" on="0"/>
        <pt x="373" y="771" on="1"/>
        <pt x="373" y="755" on="0"/>
        <pt x="336" y="719" on="0"/>
        <pt x="307" y="712" on="1"/>
        <pt x="288" y="740" on="0"/>
        <pt x="246" y="784" on="0"/>
        <pt x="234" y="792" on="1"/>
        <pt x="222" y="801" on="1"/>
        <pt x="119" y="720" on="0"/>
        <pt x="96" y="720" on="1"/>
        <pt x="79" y="720" on="0"/>
        <pt x="61" y="735" on="0"/>
        <pt x="49" y="758" on="1"/>
        <pt x="136" y="847" on="0"/>
      </contour>
    </TTGlyph>
    <TTGlyph name="Idieresis" xMin="24" yMin="-3" xMax="419" yMax="892">
      <contour>
        <pt x="206" y="666" on="1"/>
        <pt x="288" y="666" on="0"/>
        <pt x="288" y="613" on="1"/>
        <pt x="288" y="608" on="0"/>
        <pt x="279" y="554" on="0"/>
        <pt x="262" y="448" on="0"/>
        <pt x="255" y="392" on="1"/>
        <pt x="230" y="199" on="1"/>
        <pt x="218" y="113" on="0"/>
        <pt x="218" y="67" on="1"/>
        <pt x="218" y="33" on="0"/>
        <pt x="222" y="8" on="1"/>
        <pt x="189" y="-3" on="0"/>
        <pt x="131" y="-3" on="1"/>
        <pt x="89" y="-3" on="0"/>
        <pt x="54" y="27" on="0"/>
        <pt x="54" y="59" on="1"/>
        <pt x="54" y="65" on="0"/>
        <pt x="64" y="136" on="0"/>
        <pt x="90" y="327" on="0"/>
        <pt x="104" y="437" on="1"/>
        <pt x="123" y="590" on="0"/>
        <pt x="126" y="660" on="1"/>
        <pt x="157" y="666" on="0"/>
      </contour>
      <contour>
        <pt x="97" y="723" on="1"/>
        <pt x="62" y="723" on="0"/>
        <pt x="24" y="765" on="0"/>
        <pt x="24" y="796" on="1"/>
        <pt x="24" y="833" on="0"/>
        <pt x="75" y="892" on="0"/>
        <pt x="118" y="892" on="1"/>
        <pt x="152" y="892" on="0"/>
        <pt x="191" y="846" on="0"/>
        <pt x="191" y="814" on="1"/>
        <pt x="191" y="778" on="0"/>
        <pt x="141" y="723" on="0"/>
      </contour>
      <contour>
        <pt x="325" y="723" on="1"/>
        <pt x="290" y="723" on="0"/>
        <pt x="252" y="765" on="0"/>
        <pt x="252" y="796" on="1"/>
        <pt x="252" y="833" on="0"/>
        <pt x="303" y="892" on="0"/>
        <pt x="346" y="892" on="1"/>
        <pt x="380" y="892" on="0"/>
        <pt x="419" y="846" on="0"/>
        <pt x="419" y="814" on="1"/>
        <pt x="419" y="778" on="0"/>
        <pt x="369" y="723" on="0"/>
      </contour>
    </TTGlyph>
    <TTGlyph name="Igrave" xMin="54" yMin="-3" xMax="297" yMax="948">
      <contour>
        <pt x="206" y="666" on="1"/>
        <pt x="288" y="666" on="0"/>
        <pt x="288" y="613" on="1"/>
        <pt x="288" y="608" on="0"/>
        <pt x="279" y="554" on="0"/>
        <pt x="262" y="448" on="0"/>
        <pt x="255" y="392" on="1"/>
        <pt x="230" y="199" on="1"/>
        <pt x="218" y="113" on="0"/>
        <pt x="218" y="67" on="1"/>
        <pt x="218" y="33" on="0"/>
        <pt x="222" y="8" on="1"/>
        <pt x="189" y="-3" on="0"/>
        <pt x="131" y="-3" on="1"/>
        <pt x="89" y="-3" on="0"/>
        <pt x="54" y="27" on="0"/>
        <pt x="54" y="59" on="1"/>
        <pt x="54" y="65" on="0"/>
        <pt x="64" y="136" on="0"/>
        <pt x="90" y="327" on="0"/>
        <pt x="104" y="437" on="1"/>
        <pt x="123" y="590" on="0"/>
        <pt x="126" y="660" on="1"/>
        <pt x="157" y="666" on="0"/>
      </contour>
      <contour>
        <pt x="133" y="948" on="1"/>
        <pt x="151" y="917" on="0"/>
        <pt x="236" y="849" on="0"/>
        <pt x="297" y="795" on="0"/>
        <pt x="297" y="772" on="1"/>
        <pt x="297" y="754" on="0"/>
        <pt x="282" y="731" on="0"/>
        <pt x="262" y="716" on="1"/>
        <pt x="232" y="742" on="0"/>
        <pt x="130" y="804" on="0"/>
        <pt x="75" y="848" on="0"/>
        <pt x="75" y="872" on="1"/>
        <pt x="75" y="919" on="0"/>
      </contour>
    </TTGlyph>
    <TTGlyph name="J" xMin="0" yMin="-119" xMax="362" yMax="666">
      <contour>
        <pt x="1" y="-16" on="1"/>
        <pt x="77" y="-10" on="0"/>
        <pt x="129" y="67" on="0"/>
        <pt x="142" y="164" on="1"/>
        <pt x="179" y="441" on="1"/>
        <pt x="192" y="536" on="0"/>
        <pt x="200" y="660" on="1"/>
        <pt x="234" y="666" on="0"/>
        <pt x="280" y="666" on="1"/>
        <pt x="362" y="666" on="0"/>
        <pt x="362" y="613" on="1"/>
        <pt x="362" y="607" on="0"/>
        <pt x="353" y="551" on="0"/>
        <pt x="336" y="449" on="0"/>
        <pt x="330" y="407" on="1"/>
        <pt x="289" y="122" on="1"/>
        <pt x="273" y="16" on="0"/>
        <pt x="142" y="-119" on="0"/>
        <pt x="59" y="-119" on="1"/>
        <pt x="0" y="-119" on="0"/>
        <pt x="0" y="-45" on="1"/>
        <pt x="0" y="-26" on="0"/>
      </contour>
    </TTGlyph>
    <TTGlyph name="J_alt" xMin="-60" yMin="-141" xMax="427" yMax="666">
      <contour>
        <pt x="344" y="666" on="1"/>
        <pt x="427" y="666" on="0"/>
        <pt x="427" y="613" on="1"/>
        <pt x="427" y="606" on="0"/>
        <pt x="416" y="552" on="0"/>
        <pt x="397" y="452" on="0"/>
        <pt x="390" y="405" on="1"/>
        <pt x="382" y="349" on="0"/>
        <pt x="359" y="187" on="0"/>
        <pt x="343" y="73" on="0"/>
        <pt x="342" y="69" on="1"/>
        <pt x="325" y="-27" on="0"/>
        <pt x="184" y="-141" on="0"/>
        <pt x="80" y="-141" on="1"/>
        <pt x="23" y="-141" on="0"/>
        <pt x="-60" y="-99" on="0"/>
        <pt x="-60" y="-68" on="1"/>
        <pt x="-60" y="-34" on="0"/>
        <pt x="-13" y="4" on="1"/>
        <pt x="25" y="-43" on="0"/>
        <pt x="85" y="-43" on="1"/>
        <pt x="121" y="-43" on="0"/>
        <pt x="178" y="17" on="0"/>
        <pt x="188" y="83" on="1"/>
        <pt x="240" y="439" on="1"/>
        <pt x="254" y="530" on="0"/>
        <pt x="264" y="658" on="1"/>
        <pt x="297" y="666" on="0"/>
      </contour>
    </TTGlyph>
    <TTGlyph name="K" xMin="54" yMin="-10" xMax="577" yMax="668">
      <contour>
        <pt x="206" y="666" on="1"/>
        <pt x="288" y="666" on="0"/>
        <pt x="288" y="613" on="1"/>
        <pt x="288" y="608" on="0"/>
        <pt x="279" y="559" on="0"/>
        <pt x="263" y="463" on="0"/>
        <pt x="257" y="413" on="1"/>
        <pt x="366" y="500" on="0"/>
        <pt x="459" y="616" on="0"/>
        <pt x="476" y="668" on="1"/>
        <pt x="573" y="652" on="0"/>
        <pt x="573" y="606" on="1"/>
        <pt x="573" y="566" on="0"/>
        <pt x="490" y="479" on="0"/>
        <pt x="365" y="379" on="1"/>
        <pt x="412" y="276" on="0"/>
        <pt x="498" y="126" on="1"/>
        <pt x="508" y="107" on="0"/>
        <pt x="532" y="98" on="0"/>
        <pt x="555" y="98" on="1"/>
        <pt x="564" y="98" on="0"/>
        <pt x="574" y="101" on="1"/>
        <pt x="577" y="85" on="0"/>
        <pt x="577" y="70" on="1"/>
        <pt x="577" y="-10" on="0"/>
        <pt x="489" y="-10" on="1"/>
        <pt x="455" y="-10" on="0"/>
        <pt x="409" y="14" on="0"/>
        <pt x="385" y="47" on="1"/>
        <pt x="355" y="88" on="0"/>
        <pt x="279" y="233" on="0"/>
        <pt x="256" y="298" on="1"/>
        <pt x="241" y="288" on="1"/>
        <pt x="230" y="199" on="1"/>
        <pt x="218" y="113" on="0"/>
        <pt x="218" y="67" on="1"/>
        <pt x="218" y="33" on="0"/>
        <pt x="222" y="8" on="1"/>
        <pt x="189" y="-3" on="0"/>
        <pt x="131" y="-3" on="1"/>
        <pt x="89" y="-3" on="0"/>
        <pt x="54" y="27" on="0"/>
        <pt x="54" y="59" on="1"/>
        <pt x="54" y="65" on="0"/>
        <pt x="64" y="136" on="0"/>
        <pt x="90" y="327" on="0"/>
        <pt x="104" y="437" on="1"/>
        <pt x="123" y="590" on="0"/>
        <pt x="126" y="660" on="1"/>
        <pt x="157" y="666" on="0"/>
      </contour>
    </TTGlyph>
    <TTGlyph name="L" xMin="54" yMin="-2" xMax="454" yMax="666">
      <contour>
        <pt x="107" y="454" on="1"/>
        <pt x="119" y="547" on="0"/>
        <pt x="126" y="660" on="1"/>
        <pt x="155" y="666" on="0"/>
        <pt x="203" y="666" on="1"/>
        <pt x="288" y="666" on="0"/>
        <pt x="288" y="614" on="1"/>
        <pt x="288" y="608" on="0"/>
        <pt x="277" y="549" on="0"/>
        <pt x="260" y="449" on="0"/>
        <pt x="254" y="408" on="1"/>
        <pt x="250" y="382" on="0"/>
        <pt x="241" y="314" on="0"/>
        <pt x="236" y="279" on="0"/>
        <pt x="229" y="232" on="0"/>
        <pt x="226" y="209" on="0"/>
        <pt x="222" y="177" on="0"/>
        <pt x="220" y="161" on="0"/>
        <pt x="218" y="139" on="0"/>
        <pt x="218" y="125" on="0"/>
        <pt x="217" y="109" on="0"/>
        <pt x="217" y="101" on="1"/>
        <pt x="231" y="100" on="0"/>
        <pt x="265" y="100" on="1"/>
        <pt x="317" y="100" on="0"/>
        <pt x="426" y="113" on="0"/>
        <pt x="443" y="122" on="1"/>
        <pt x="454" y="93" on="0"/>
        <pt x="454" y="63" on="1"/>
        <pt x="454" y="47" on="0"/>
        <pt x="444" y="25" on="0"/>
        <pt x="420" y="11" on="0"/>
        <pt x="397" y="2" on="0"/>
        <pt x="353" y="-1" on="0"/>
        <pt x="321" y="-2" on="0"/>
        <pt x="292" y="-2" on="1"/>
        <pt x="151" y="-2" on="0"/>
        <pt x="106" y="1" on="1"/>
        <pt x="54" y="6" on="0"/>
        <pt x="54" y="55" on="1"/>
        <pt x="54" y="95" on="0"/>
      </contour>
    </TTGlyph>
    <TTGlyph name="Lslash" xMin="-38" yMin="-2" xMax="459" yMax="666">
      <contour>
        <pt x="112" y="454" on="1"/>
        <pt x="124" y="547" on="0"/>
        <pt x="131" y="660" on="1"/>
        <pt x="160" y="666" on="0"/>
        <pt x="208" y="666" on="1"/>
        <pt x="293" y="666" on="0"/>
        <pt x="293" y="614" on="1"/>
        <pt x="293" y="609" on="0"/>
        <pt x="284" y="559" on="0"/>
        <pt x="268" y="472" on="0"/>
        <pt x="263" y="436" on="1"/>
        <pt x="324" y="479" on="0"/>
        <pt x="359" y="514" on="1"/>
        <pt x="398" y="494" on="0"/>
        <pt x="398" y="464" on="1"/>
        <pt x="398" y="444" on="0"/>
        <pt x="370" y="424" on="1"/>
        <pt x="249" y="339" on="1"/>
        <pt x="222" y="152" on="0"/>
        <pt x="222" y="101" on="1"/>
        <pt x="236" y="100" on="0"/>
        <pt x="270" y="100" on="1"/>
        <pt x="322" y="100" on="0"/>
        <pt x="431" y="113" on="0"/>
        <pt x="448" y="122" on="1"/>
        <pt x="459" y="93" on="0"/>
        <pt x="459" y="63" on="1"/>
        <pt x="459" y="47" on="0"/>
        <pt x="449" y="25" on="0"/>
        <pt x="425" y="11" on="0"/>
        <pt x="402" y="2" on="0"/>
        <pt x="358" y="-1" on="0"/>
        <pt x="326" y="-2" on="0"/>
        <pt x="297" y="-2" on="1"/>
        <pt x="156" y="-2" on="0"/>
        <pt x="111" y="1" on="1"/>
        <pt x="59" y="6" on="0"/>
        <pt x="59" y="55" on="1"/>
        <pt x="59" y="78" on="0"/>
        <pt x="78" y="218" on="1"/>
        <pt x="40" y="189" on="0"/>
        <pt x="1" y="155" on="1"/>
        <pt x="-38" y="179" on="0"/>
        <pt x="-38" y="207" on="1"/>
        <pt x="-38" y="226" on="0"/>
        <pt x="-10" y="245" on="1"/>
        <pt x="92" y="316" on="1"/>
      </contour>
    </TTGlyph>
    <TTGlyph name="M" xMin="54" yMin="-3" xMax="814" yMax="670">
      <contour>
        <pt x="770" y="436" on="1"/>
        <pt x="737" y="203" on="1"/>
        <pt x="723" y="111" on="0"/>
        <pt x="723" y="59" on="1"/>
        <pt x="723" y="33" on="0"/>
        <pt x="727" y="8" on="1"/>
        <pt x="691" y="-3" on="0"/>
        <pt x="632" y="-3" on="1"/>
        <pt x="592" y="-3" on="0"/>
        <pt x="559" y="29" on="0"/>
        <pt x="559" y="61" on="1"/>
        <pt x="559" y="97" on="0"/>
        <pt x="633" y="463" on="1"/>
        <pt x="510" y="185" on="0"/>
        <pt x="460" y="3" on="1"/>
        <pt x="427" y="-2" on="0"/>
        <pt x="401" y="-2" on="1"/>
        <pt x="323" y="-2" on="0"/>
        <pt x="312" y="46" on="1"/>
        <pt x="290" y="145" on="0"/>
        <pt x="239" y="463" on="1"/>
        <pt x="207" y="146" on="0"/>
        <pt x="207" y="59" on="1"/>
        <pt x="207" y="39" on="0"/>
        <pt x="211" y="5" on="1"/>
        <pt x="176" y="-3" on="0"/>
        <pt x="126" y="-3" on="1"/>
        <pt x="54" y="-3" on="0"/>
        <pt x="54" y="55" on="1"/>
        <pt x="54" y="64" on="0"/>
        <pt x="62" y="116" on="0"/>
        <pt x="76" y="204" on="0"/>
        <pt x="80" y="231" on="1"/>
        <pt x="116" y="483" on="1"/>
        <pt x="126" y="555" on="0"/>
        <pt x="126" y="610" on="1"/>
        <pt x="126" y="636" on="0"/>
        <pt x="123" y="659" on="1"/>
        <pt x="171" y="667" on="0"/>
        <pt x="222" y="667" on="1"/>
        <pt x="275" y="667" on="0"/>
        <pt x="318" y="627" on="0"/>
        <pt x="332" y="573" on="1"/>
        <pt x="345" y="523" on="0"/>
        <pt x="369" y="402" on="0"/>
        <pt x="382" y="324" on="0"/>
        <pt x="406" y="172" on="0"/>
        <pt x="411" y="142" on="1"/>
        <pt x="497" y="404" on="0"/>
        <pt x="602" y="609" on="1"/>
        <pt x="633" y="670" on="0"/>
        <pt x="722" y="670" on="1"/>
        <pt x="763" y="670" on="0"/>
        <pt x="814" y="659" on="1"/>
        <pt x="790" y="594" on="0"/>
      </contour>
    </TTGlyph>
    <TTGlyph name="N" xMin="54" yMin="-3" xMax="632" yMax="667">
      <contour>
        <pt x="554" y="5" on="1"/>
        <pt x="525" y="-3" on="0"/>
        <pt x="492" y="-3" on="1"/>
        <pt x="419" y="-3" on="0"/>
        <pt x="400" y="42" on="1"/>
        <pt x="375" y="98" on="0"/>
        <pt x="275" y="373" on="0"/>
        <pt x="248" y="436" on="1"/>
        <pt x="208" y="133" on="0"/>
        <pt x="208" y="63" on="1"/>
        <pt x="208" y="43" on="0"/>
        <pt x="212" y="9" on="1"/>
        <pt x="179" y="-3" on="0"/>
        <pt x="136" y="-3" on="1"/>
        <pt x="90" y="-3" on="0"/>
        <pt x="54" y="26" on="0"/>
        <pt x="54" y="57" on="1"/>
        <pt x="54" y="66" on="0"/>
        <pt x="63" y="126" on="0"/>
        <pt x="76" y="215" on="0"/>
        <pt x="80" y="243" on="1"/>
        <pt x="87" y="303" on="0"/>
        <pt x="111" y="478" on="0"/>
        <pt x="120" y="564" on="0"/>
        <pt x="120" y="602" on="1"/>
        <pt x="120" y="634" on="0"/>
        <pt x="116" y="655" on="1"/>
        <pt x="154" y="667" on="0"/>
        <pt x="193" y="667" on="1"/>
        <pt x="262" y="667" on="0"/>
        <pt x="292" y="618" on="1"/>
        <pt x="302" y="602" on="0"/>
        <pt x="329" y="546" on="0"/>
        <pt x="362" y="466" on="0"/>
        <pt x="389" y="400" on="0"/>
        <pt x="430" y="296" on="0"/>
        <pt x="441" y="270" on="1"/>
        <pt x="458" y="429" on="1"/>
        <pt x="477" y="589" on="0"/>
        <pt x="481" y="660" on="1"/>
        <pt x="512" y="666" on="0"/>
        <pt x="548" y="666" on="1"/>
        <pt x="632" y="666" on="0"/>
        <pt x="632" y="607" on="1"/>
        <pt x="632" y="600" on="0"/>
        <pt x="620" y="534" on="0"/>
        <pt x="603" y="433" on="0"/>
        <pt x="593" y="351" on="0"/>
        <pt x="568" y="164" on="0"/>
        <pt x="557" y="55" on="0"/>
      </contour>
    </TTGlyph>
    <TTGlyph name="Ntilde" xMin="54" yMin="-3" xMax="632" yMax="871">
      <contour>
        <pt x="554" y="5" on="1"/>
        <pt x="525" y="-3" on="0"/>
        <pt x="492" y="-3" on="1"/>
        <pt x="419" y="-3" on="0"/>
        <pt x="400" y="42" on="1"/>
        <pt x="375" y="98" on="0"/>
        <pt x="275" y="373" on="0"/>
        <pt x="248" y="436" on="1"/>
        <pt x="208" y="133" on="0"/>
        <pt x="208" y="63" on="1"/>
        <pt x="208" y="43" on="0"/>
        <pt x="212" y="9" on="1"/>
        <pt x="179" y="-3" on="0"/>
        <pt x="136" y="-3" on="1"/>
        <pt x="90" y="-3" on="0"/>
        <pt x="54" y="26" on="0"/>
        <pt x="54" y="57" on="1"/>
        <pt x="54" y="66" on="0"/>
        <pt x="63" y="126" on="0"/>
        <pt x="76" y="215" on="0"/>
        <pt x="80" y="243" on="1"/>
        <pt x="87" y="303" on="0"/>
        <pt x="111" y="478" on="0"/>
        <pt x="120" y="564" on="0"/>
        <pt x="120" y="602" on="1"/>
        <pt x="120" y="634" on="0"/>
        <pt x="116" y="655" on="1"/>
        <pt x="154" y="667" on="0"/>
        <pt x="193" y="667" on="1"/>
        <pt x="262" y="667" on="0"/>
        <pt x="292" y="618" on="1"/>
        <pt x="302" y="602" on="0"/>
        <pt x="329" y="546" on="0"/>
        <pt x="362" y="466" on="0"/>
        <pt x="389" y="400" on="0"/>
        <pt x="430" y="296" on="0"/>
        <pt x="441" y="270" on="1"/>
        <pt x="458" y="429" on="1"/>
        <pt x="477" y="589" on="0"/>
        <pt x="481" y="660" on="1"/>
        <pt x="512" y="666" on="0"/>
        <pt x="548" y="666" on="1"/>
        <pt x="632" y="666" on="0"/>
        <pt x="632" y="607" on="1"/>
        <pt x="632" y="600" on="0"/>
        <pt x="620" y="534" on="0"/>
        <pt x="603" y="433" on="0"/>
        <pt x="593" y="351" on="0"/>
        <pt x="568" y="164" on="0"/>
        <pt x="557" y="55" on="0"/>
      </contour>
      <contour>
        <pt x="578" y="833" on="1"/>
        <pt x="578" y="792" on="0"/>
        <pt x="489" y="727" on="0"/>
        <pt x="444" y="727" on="1"/>
        <pt x="421" y="727" on="0"/>
        <pt x="345" y="770" on="0"/>
        <pt x="329" y="770" on="1"/>
        <pt x="309" y="770" on="0"/>
        <pt x="260" y="730" on="1"/>
        <pt x="229" y="743" on="0"/>
        <pt x="229" y="765" on="1"/>
        <pt x="229" y="805" on="0"/>
        <pt x="320" y="871" on="0"/>
        <pt x="363" y="871" on="1"/>
        <pt x="386" y="871" on="0"/>
        <pt x="462" y="828" on="0"/>
        <pt x="479" y="828" on="1"/>
        <pt x="500" y="828" on="0"/>
        <pt x="547" y="868" on="1"/>
        <pt x="558" y="866" on="0"/>
        <pt x="578" y="847" on="0"/>
      </contour>
    </TTGlyph>
    <TTGlyph name="O" xMin="44" yMin="-10" xMax="655" yMax="673">
      <contour>
        <pt x="368" y="572" on="1"/>
        <pt x="299" y="572" on="0"/>
        <pt x="212" y="410" on="0"/>
        <pt x="212" y="295" on="1"/>
        <pt x="212" y="207" on="0"/>
        <pt x="269" y="91" on="0"/>
        <pt x="329" y="91" on="1"/>
        <pt x="401" y="91" on="0"/>
        <pt x="486" y="259" on="0"/>
        <pt x="486" y="374" on="1"/>
        <pt x="486" y="459" on="0"/>
        <pt x="429" y="572" on="0"/>
      </contour>
      <contour>
        <pt x="301" y="-10" on="1"/>
        <pt x="180" y="-10" on="0"/>
        <pt x="44" y="137" on="0"/>
        <pt x="44" y="263" on="1"/>
        <pt x="44" y="438" on="0"/>
        <pt x="239" y="673" on="0"/>
        <pt x="395" y="673" on="1"/>
        <pt x="517" y="673" on="0"/>
        <pt x="655" y="529" on="0"/>
        <pt x="655" y="402" on="1"/>
        <pt x="655" y="230" on="0"/>
        <pt x="459" y="-10" on="0"/>
      </contour>
    </TTGlyph>
    <TTGlyph name="OE" xMin="44" yMin="-10" xMax="918" yMax="674">
      <contour>
        <pt x="899" y="540" on="1"/>
        <pt x="853" y="561" on="0"/>
        <pt x="740" y="561" on="1"/>
        <pt x="708" y="561" on="0"/>
        <pt x="658" y="558" on="1"/>
        <pt x="656" y="524" on="0"/>
        <pt x="640" y="406" on="1"/>
        <pt x="773" y="406" on="0"/>
        <pt x="805" y="410" on="1"/>
        <pt x="807" y="390" on="0"/>
        <pt x="807" y="375" on="1"/>
        <pt x="807" y="310" on="0"/>
        <pt x="763" y="305" on="1"/>
        <pt x="739" y="303" on="0"/>
        <pt x="625" y="303" on="1"/>
        <pt x="605" y="140" on="0"/>
        <pt x="605" y="101" on="1"/>
        <pt x="633" y="99" on="0"/>
        <pt x="669" y="99" on="1"/>
        <pt x="722" y="99" on="0"/>
        <pt x="833" y="112" on="0"/>
        <pt x="850" y="121" on="1"/>
        <pt x="858" y="83" on="0"/>
        <pt x="858" y="65" on="1"/>
        <pt x="858" y="17" on="0"/>
        <pt x="788" y="-3" on="0"/>
        <pt x="665" y="-3" on="1"/>
        <pt x="512" y="-3" on="0"/>
        <pt x="480" y="-1" on="1"/>
        <pt x="452" y="0" on="0"/>
        <pt x="438" y="27" on="1"/>
        <pt x="368" y="-10" on="0"/>
        <pt x="301" y="-10" on="1"/>
        <pt x="180" y="-10" on="0"/>
        <pt x="44" y="137" on="0"/>
        <pt x="44" y="263" on="1"/>
        <pt x="44" y="438" on="0"/>
        <pt x="239" y="674" on="0"/>
        <pt x="395" y="674" on="1"/>
        <pt x="454" y="674" on="0"/>
        <pt x="503" y="650" on="1"/>
        <pt x="622" y="665" on="0"/>
        <pt x="738" y="665" on="1"/>
        <pt x="891" y="665" on="0"/>
        <pt x="910" y="646" on="1"/>
        <pt x="918" y="638" on="0"/>
        <pt x="918" y="618" on="1"/>
        <pt x="918" y="578" on="0"/>
      </contour>
      <contour>
        <pt x="368" y="572" on="1"/>
        <pt x="299" y="572" on="0"/>
        <pt x="212" y="410" on="0"/>
        <pt x="212" y="295" on="1"/>
        <pt x="212" y="207" on="0"/>
        <pt x="269" y="91" on="0"/>
        <pt x="329" y="91" on="1"/>
        <pt x="403" y="91" on="0"/>
        <pt x="447" y="144" on="1"/>
        <pt x="450" y="166" on="0"/>
        <pt x="488" y="443" on="0"/>
        <pt x="495" y="511" on="1"/>
        <pt x="441" y="572" on="0"/>
      </contour>
    </TTGlyph>
    <TTGlyph name="Oacute" xMin="44" yMin="-10" xMax="655" yMax="946">
      <contour>
        <pt x="368" y="572" on="1"/>
        <pt x="299" y="572" on="0"/>
        <pt x="212" y="410" on="0"/>
        <pt x="212" y="295" on="1"/>
        <pt x="212" y="207" on="0"/>
        <pt x="269" y="91" on="0"/>
        <pt x="329" y="91" on="1"/>
        <pt x="401" y="91" on="0"/>
        <pt x="486" y="259" on="0"/>
        <pt x="486" y="374" on="1"/>
        <pt x="486" y="459" on="0"/>
        <pt x="429" y="572" on="0"/>
      </contour>
      <contour>
        <pt x="301" y="-10" on="1"/>
        <pt x="180" y="-10" on="0"/>
        <pt x="44" y="137" on="0"/>
        <pt x="44" y="263" on="1"/>
        <pt x="44" y="438" on="0"/>
        <pt x="239" y="673" on="0"/>
        <pt x="395" y="673" on="1"/>
        <pt x="517" y="673" on="0"/>
        <pt x="655" y="529" on="0"/>
        <pt x="655" y="402" on="1"/>
        <pt x="655" y="230" on="0"/>
        <pt x="459" y="-10" on="0"/>
      </contour>
      <contour>
        <pt x="556" y="822" on="1"/>
        <pt x="531" y="807" on="0"/>
        <pt x="358" y="734" on="0"/>
        <pt x="339" y="716" on="1"/>
        <pt x="313" y="741" on="0"/>
        <pt x="313" y="772" on="1"/>
        <pt x="313" y="793" on="0"/>
        <pt x="366" y="833" on="0"/>
        <pt x="436" y="864" on="0"/>
        <pt x="520" y="917" on="0"/>
        <pt x="544" y="946" on="1"/>
        <pt x="561" y="935" on="0"/>
        <pt x="585" y="893" on="0"/>
        <pt x="585" y="874" on="1"/>
        <pt x="585" y="840" on="0"/>
      </contour>
    </TTGlyph>
    <TTGlyph name="Ocircumflex" xMin="44" yMin="-10" xMax="655" yMax="912">
      <contour>
        <pt x="368" y="572" on="1"/>
        <pt x="299" y="572" on="0"/>
        <pt x="212" y="410" on="0"/>
        <pt x="212" y="295" on="1"/>
        <pt x="212" y="207" on="0"/>
        <pt x="269" y="91" on="0"/>
        <pt x="329" y="91" on="1"/>
        <pt x="401" y="91" on="0"/>
        <pt x="486" y="259" on="0"/>
        <pt x="486" y="374" on="1"/>
        <pt x="486" y="459" on="0"/>
        <pt x="429" y="572" on="0"/>
      </contour>
      <contour>
        <pt x="301" y="-10" on="1"/>
        <pt x="180" y="-10" on="0"/>
        <pt x="44" y="137" on="0"/>
        <pt x="44" y="263" on="1"/>
        <pt x="44" y="438" on="0"/>
        <pt x="239" y="673" on="0"/>
        <pt x="395" y="673" on="1"/>
        <pt x="517" y="673" on="0"/>
        <pt x="655" y="529" on="0"/>
        <pt x="655" y="402" on="1"/>
        <pt x="655" y="230" on="0"/>
        <pt x="459" y="-10" on="0"/>
      </contour>
      <contour>
        <pt x="426" y="912" on="1"/>
        <pt x="465" y="886" on="0"/>
        <pt x="515" y="848" on="0"/>
        <pt x="561" y="793" on="0"/>
        <pt x="561" y="771" on="1"/>
        <pt x="561" y="755" on="0"/>
        <pt x="524" y="719" on="0"/>
        <pt x="495" y="712" on="1"/>
        <pt x="476" y="740" on="0"/>
        <pt x="434" y="784" on="0"/>
        <pt x="422" y="792" on="1"/>
        <pt x="410" y="801" on="1"/>
        <pt x="306" y="720" on="0"/>
        <pt x="284" y="720" on="1"/>
        <pt x="267" y="720" on="0"/>
        <pt x="249" y="735" on="0"/>
        <pt x="237" y="758" on="1"/>
        <pt x="324" y="847" on="0"/>
      </contour>
    </TTGlyph>
    <TTGlyph name="Odieresis" xMin="44" yMin="-10" xMax="655" yMax="892">
      <contour>
        <pt x="368" y="572" on="1"/>
        <pt x="299" y="572" on="0"/>
        <pt x="212" y="410" on="0"/>
        <pt x="212" y="295" on="1"/>
        <pt x="212" y="207" on="0"/>
        <pt x="269" y="91" on="0"/>
        <pt x="329" y="91" on="1"/>
        <pt x="401" y="91" on="0"/>
        <pt x="486" y="259" on="0"/>
        <pt x="486" y="374" on="1"/>
        <pt x="486" y="459" on="0"/>
        <pt x="429" y="572" on="0"/>
      </contour>
      <contour>
        <pt x="301" y="-10" on="1"/>
        <pt x="180" y="-10" on="0"/>
        <pt x="44" y="137" on="0"/>
        <pt x="44" y="263" on="1"/>
        <pt x="44" y="438" on="0"/>
        <pt x="239" y="673" on="0"/>
        <pt x="395" y="673" on="1"/>
        <pt x="517" y="673" on="0"/>
        <pt x="655" y="529" on="0"/>
        <pt x="655" y="402" on="1"/>
        <pt x="655" y="230" on="0"/>
        <pt x="459" y="-10" on="0"/>
      </contour>
      <contour>
        <pt x="285" y="723" on="1"/>
        <pt x="250" y="723" on="0"/>
        <pt x="212" y="765" on="0"/>
        <pt x="212" y="796" on="1"/>
        <pt x="212" y="833" on="0"/>
        <pt x="263" y="892" on="0"/>
        <pt x="306" y="892" on="1"/>
        <pt x="340" y="892" on="0"/>
        <pt x="379" y="846" on="0"/>
        <pt x="379" y="814" on="1"/>
        <pt x="379" y="778" on="0"/>
        <pt x="329" y="723" on="0"/>
      </contour>
      <contour>
        <pt x="513" y="723" on="1"/>
        <pt x="478" y="723" on="0"/>
        <pt x="440" y="765" on="0"/>
        <pt x="440" y="796" on="1"/>
        <pt x="440" y="833" on="0"/>
        <pt x="491" y="892" on="0"/>
        <pt x="534" y="892" on="1"/>
        <pt x="568" y="892" on="0"/>
        <pt x="607" y="846" on="0"/>
        <pt x="607" y="814" on="1"/>
        <pt x="607" y="778" on="0"/>
        <pt x="557" y="723" on="0"/>
      </contour>
    </TTGlyph>
    <TTGlyph name="Ograve" xMin="44" yMin="-10" xMax="655" yMax="948">
      <contour>
        <pt x="368" y="572" on="1"/>
        <pt x="299" y="572" on="0"/>
        <pt x="212" y="410" on="0"/>
        <pt x="212" y="295" on="1"/>
        <pt x="212" y="207" on="0"/>
        <pt x="269" y="91" on="0"/>
        <pt x="329" y="91" on="1"/>
        <pt x="401" y="91" on="0"/>
        <pt x="486" y="259" on="0"/>
        <pt x="486" y="374" on="1"/>
        <pt x="486" y="459" on="0"/>
        <pt x="429" y="572" on="0"/>
      </contour>
      <contour>
        <pt x="301" y="-10" on="1"/>
        <pt x="180" y="-10" on="0"/>
        <pt x="44" y="137" on="0"/>
        <pt x="44" y="263" on="1"/>
        <pt x="44" y="438" on="0"/>
        <pt x="239" y="673" on="0"/>
        <pt x="395" y="673" on="1"/>
        <pt x="517" y="673" on="0"/>
        <pt x="655" y="529" on="0"/>
        <pt x="655" y="402" on="1"/>
        <pt x="655" y="230" on="0"/>
        <pt x="459" y="-10" on="0"/>
      </contour>
      <contour>
        <pt x="301" y="948" on="1"/>
        <pt x="319" y="917" on="0"/>
        <pt x="404" y="849" on="0"/>
        <pt x="465" y="795" on="0"/>
        <pt x="465" y="772" on="1"/>
        <pt x="465" y="754" on="0"/>
        <pt x="450" y="731" on="0"/>
        <pt x="430" y="716" on="1"/>
        <pt x="400" y="742" on="0"/>
        <pt x="298" y="804" on="0"/>
        <pt x="243" y="848" on="0"/>
        <pt x="243" y="872" on="1"/>
        <pt x="243" y="919" on="0"/>
      </contour>
    </TTGlyph>
    <TTGlyph name="Omega" xMin="36" yMin="0" xMax="792" yMax="678">
      <contour>
        <pt x="482" y="678" on="1"/>
        <pt x="605" y="678" on="0"/>
        <pt x="764" y="533" on="0"/>
        <pt x="764" y="415" on="1"/>
        <pt x="764" y="202" on="0"/>
        <pt x="537" y="94" on="1"/>
        <pt x="689" y="94" on="1"/>
        <pt x="718" y="129" on="0"/>
        <pt x="752" y="191" on="1"/>
        <pt x="762" y="195" on="0"/>
        <pt x="768" y="195" on="1"/>
        <pt x="792" y="195" on="0"/>
        <pt x="792" y="175" on="1"/>
        <pt x="792" y="162" on="0"/>
        <pt x="744" y="0" on="1"/>
        <pt x="507" y="0" on="1"/>
        <pt x="446" y="0" on="0"/>
        <pt x="446" y="51" on="1"/>
        <pt x="446" y="68" on="0"/>
        <pt x="453" y="100" on="1"/>
        <pt x="528" y="149" on="0"/>
        <pt x="608" y="317" on="0"/>
        <pt x="608" y="415" on="1"/>
        <pt x="608" y="497" on="0"/>
        <pt x="538" y="587" on="0"/>
        <pt x="469" y="587" on="1"/>
        <pt x="402" y="587" on="0"/>
        <pt x="308" y="495" on="0"/>
        <pt x="270" y="370" on="0"/>
        <pt x="270" y="301" on="1"/>
        <pt x="270" y="171" on="0"/>
        <pt x="357" y="100" on="1"/>
        <pt x="358" y="94" on="0"/>
        <pt x="358" y="83" on="1"/>
        <pt x="358" y="0" on="0"/>
        <pt x="277" y="0" on="1"/>
        <pt x="41" y="0" on="1"/>
        <pt x="36" y="56" on="0"/>
        <pt x="36" y="151" on="1"/>
        <pt x="36" y="194" on="0"/>
        <pt x="65" y="194" on="1"/>
        <pt x="74" y="194" on="0"/>
        <pt x="82" y="191" on="1"/>
        <pt x="108" y="115" on="0"/>
        <pt x="119" y="94" on="1"/>
        <pt x="272" y="94" on="1"/>
        <pt x="196" y="136" on="0"/>
        <pt x="117" y="245" on="0"/>
        <pt x="117" y="324" on="1"/>
        <pt x="117" y="474" on="0"/>
        <pt x="328" y="678" on="0"/>
      </contour>
    </TTGlyph>
    <TTGlyph name="Oslash" xMin="44" yMin="-84" xMax="655" yMax="745">
      <contour>
        <pt x="301" y="-10" on="1"/>
        <pt x="241" y="-10" on="0"/>
        <pt x="193" y="8" on="1"/>
        <pt x="140" y="-84" on="1"/>
        <pt x="116" y="-83" on="0"/>
        <pt x="84" y="-61" on="0"/>
        <pt x="84" y="-43" on="1"/>
        <pt x="84" y="-29" on="0"/>
        <pt x="96" y="-11" on="1"/>
        <pt x="132" y="44" on="1"/>
        <pt x="44" y="117" on="0"/>
        <pt x="44" y="263" on="1"/>
        <pt x="44" y="438" on="0"/>
        <pt x="239" y="674" on="0"/>
        <pt x="395" y="674" on="1"/>
        <pt x="466" y="674" on="0"/>
        <pt x="523" y="647" on="1"/>
        <pt x="535" y="666" on="0"/>
        <pt x="575" y="735" on="0"/>
        <pt x="581" y="745" on="1"/>
        <pt x="605" y="744" on="0"/>
        <pt x="637" y="722" on="0"/>
        <pt x="637" y="704" on="1"/>
        <pt x="637" y="692" on="0"/>
        <pt x="625" y="672" on="1"/>
        <pt x="581" y="606" on="1"/>
        <pt x="655" y="534" on="0"/>
        <pt x="655" y="402" on="1"/>
        <pt x="655" y="230" on="0"/>
        <pt x="459" y="-10" on="0"/>
      </contour>
      <contour>
        <pt x="368" y="572" on="1"/>
        <pt x="299" y="572" on="0"/>
        <pt x="212" y="410" on="0"/>
        <pt x="212" y="295" on="1"/>
        <pt x="212" y="234" on="0"/>
        <pt x="225" y="188" on="1"/>
        <pt x="448" y="530" on="1"/>
        <pt x="417" y="572" on="0"/>
      </contour>
      <contour>
        <pt x="486" y="374" on="1"/>
        <pt x="486" y="416" on="0"/>
        <pt x="479" y="450" on="1"/>
        <pt x="263" y="118" on="1"/>
        <pt x="290" y="91" on="0"/>
        <pt x="329" y="91" on="1"/>
        <pt x="401" y="91" on="0"/>
        <pt x="486" y="259" on="0"/>
      </contour>
    </TTGlyph>
    <TTGlyph name="Otilde" xMin="44" yMin="-10" xMax="655" yMax="871">
      <contour>
        <pt x="368" y="572" on="1"/>
        <pt x="299" y="572" on="0"/>
        <pt x="212" y="410" on="0"/>
        <pt x="212" y="295" on="1"/>
        <pt x="212" y="207" on="0"/>
        <pt x="269" y="91" on="0"/>
        <pt x="329" y="91" on="1"/>
        <pt x="401" y="91" on="0"/>
        <pt x="486" y="259" on="0"/>
        <pt x="486" y="374" on="1"/>
        <pt x="486" y="459" on="0"/>
        <pt x="429" y="572" on="0"/>
      </contour>
      <contour>
        <pt x="301" y="-10" on="1"/>
        <pt x="180" y="-10" on="0"/>
        <pt x="44" y="137" on="0"/>
        <pt x="44" y="263" on="1"/>
        <pt x="44" y="438" on="0"/>
        <pt x="239" y="673" on="0"/>
        <pt x="395" y="673" on="1"/>
        <pt x="517" y="673" on="0"/>
        <pt x="655" y="529" on="0"/>
        <pt x="655" y="402" on="1"/>
        <pt x="655" y="230" on="0"/>
        <pt x="459" y="-10" on="0"/>
      </contour>
      <contour>
        <pt x="584" y="833" on="1"/>
        <pt x="584" y="792" on="0"/>
        <pt x="495" y="727" on="0"/>
        <pt x="450" y="727" on="1"/>
        <pt x="427" y="727" on="0"/>
        <pt x="351" y="770" on="0"/>
        <pt x="335" y="770" on="1"/>
        <pt x="315" y="770" on="0"/>
        <pt x="266" y="730" on="1"/>
        <pt x="235" y="743" on="0"/>
        <pt x="235" y="765" on="1"/>
        <pt x="235" y="805" on="0"/>
        <pt x="326" y="871" on="0"/>
        <pt x="369" y="871" on="1"/>
        <pt x="392" y="871" on="0"/>
        <pt x="469" y="828" on="0"/>
        <pt x="485" y="828" on="1"/>
        <pt x="506" y="828" on="0"/>
        <pt x="553" y="868" on="1"/>
        <pt x="564" y="866" on="0"/>
        <pt x="584" y="847" on="0"/>
      </contour>
    </TTGlyph>
    <TTGlyph name="P" xMin="54" yMin="-3" xMax="540" yMax="673">
      <contour>
        <pt x="237" y="255" on="1"/>
        <pt x="218" y="100" on="0"/>
        <pt x="218" y="67" on="1"/>
        <pt x="218" y="33" on="0"/>
        <pt x="222" y="8" on="1"/>
        <pt x="189" y="-3" on="0"/>
        <pt x="131" y="-3" on="1"/>
        <pt x="89" y="-3" on="0"/>
        <pt x="54" y="27" on="0"/>
        <pt x="54" y="59" on="1"/>
        <pt x="54" y="65" on="0"/>
        <pt x="65" y="137" on="0"/>
        <pt x="90" y="325" on="0"/>
        <pt x="104" y="437" on="1"/>
        <pt x="122" y="592" on="0"/>
        <pt x="122" y="661" on="1"/>
        <pt x="201" y="673" on="0"/>
        <pt x="286" y="673" on="1"/>
        <pt x="338" y="673" on="0"/>
        <pt x="423" y="656" on="0"/>
        <pt x="498" y="616" on="0"/>
        <pt x="540" y="541" on="0"/>
        <pt x="540" y="488" on="1"/>
        <pt x="540" y="366" on="0"/>
        <pt x="411" y="223" on="0"/>
        <pt x="330" y="223" on="1"/>
        <pt x="274" y="223" on="0"/>
      </contour>
      <contour>
        <pt x="313" y="573" on="1"/>
        <pt x="295" y="573" on="0"/>
        <pt x="274" y="569" on="1"/>
        <pt x="264" y="458" on="0"/>
        <pt x="257" y="408" on="1"/>
        <pt x="247" y="342" on="1"/>
        <pt x="276" y="324" on="0"/>
        <pt x="299" y="324" on="1"/>
        <pt x="338" y="324" on="0"/>
        <pt x="386" y="409" on="0"/>
        <pt x="386" y="477" on="1"/>
        <pt x="386" y="531" on="0"/>
        <pt x="348" y="573" on="0"/>
      </contour>
    </TTGlyph>
    <TTGlyph name="Q" xMin="44" yMin="-198" xMax="758" yMax="674">
      <contour>
        <pt x="655" y="402" on="1"/>
        <pt x="655" y="245" on="0"/>
        <pt x="491" y="15" on="0"/>
        <pt x="354" y="-6" on="1"/>
        <pt x="377" y="-49" on="0"/>
        <pt x="482" y="-91" on="0"/>
        <pt x="546" y="-91" on="1"/>
        <pt x="647" y="-91" on="0"/>
        <pt x="693" y="-2" on="1"/>
        <pt x="758" y="-33" on="0"/>
        <pt x="758" y="-81" on="1"/>
        <pt x="758" y="-124" on="0"/>
        <pt x="694" y="-180" on="0"/>
        <pt x="618" y="-198" on="0"/>
        <pt x="577" y="-198" on="1"/>
        <pt x="320" y="-198" on="0"/>
        <pt x="252" y="-6" on="1"/>
        <pt x="153" y="8" on="0"/>
        <pt x="44" y="150" on="0"/>
        <pt x="44" y="263" on="1"/>
        <pt x="44" y="438" on="0"/>
        <pt x="239" y="674" on="0"/>
        <pt x="395" y="674" on="1"/>
        <pt x="517" y="674" on="0"/>
        <pt x="655" y="529" on="0"/>
      </contour>
      <contour>
        <pt x="368" y="572" on="1"/>
        <pt x="299" y="572" on="0"/>
        <pt x="212" y="410" on="0"/>
        <pt x="212" y="295" on="1"/>
        <pt x="212" y="207" on="0"/>
        <pt x="269" y="91" on="0"/>
        <pt x="329" y="91" on="1"/>
        <pt x="401" y="91" on="0"/>
        <pt x="486" y="259" on="0"/>
        <pt x="486" y="374" on="1"/>
        <pt x="486" y="459" on="0"/>
        <pt x="429" y="572" on="0"/>
      </contour>
    </TTGlyph>
    <TTGlyph name="Q_alt" xMin="44" yMin="-220" xMax="655" yMax="674">
      <contour>
        <pt x="655" y="402" on="1"/>
        <pt x="655" y="246" on="0"/>
        <pt x="492" y="16" on="0"/>
        <pt x="356" y="-5" on="1"/>
        <pt x="374" y="-56" on="0"/>
        <pt x="467" y="-120" on="0"/>
        <pt x="519" y="-120" on="1"/>
        <pt x="580" y="-120" on="0"/>
        <pt x="621" y="-75" on="1"/>
        <pt x="651" y="-112" on="0"/>
        <pt x="651" y="-180" on="0"/>
        <pt x="585" y="-220" on="0"/>
        <pt x="528" y="-220" on="1"/>
        <pt x="429" y="-220" on="0"/>
        <pt x="282" y="-105" on="0"/>
        <pt x="255" y="-7" on="1"/>
        <pt x="155" y="6" on="0"/>
        <pt x="44" y="149" on="0"/>
        <pt x="44" y="263" on="1"/>
        <pt x="44" y="438" on="0"/>
        <pt x="239" y="674" on="0"/>
        <pt x="395" y="674" on="1"/>
        <pt x="517" y="674" on="0"/>
        <pt x="655" y="529" on="0"/>
      </contour>
      <contour>
        <pt x="368" y="572" on="1"/>
        <pt x="299" y="572" on="0"/>
        <pt x="212" y="410" on="0"/>
        <pt x="212" y="295" on="1"/>
        <pt x="212" y="207" on="0"/>
        <pt x="269" y="91" on="0"/>
        <pt x="329" y="91" on="1"/>
        <pt x="401" y="91" on="0"/>
        <pt x="486" y="259" on="0"/>
        <pt x="486" y="374" on="1"/>
        <pt x="486" y="459" on="0"/>
        <pt x="429" y="572" on="0"/>
      </contour>
    </TTGlyph>
    <TTGlyph name="R" xMin="54" yMin="-10" xMax="568" yMax="673">
      <contour>
        <pt x="491" y="123" on="1"/>
        <pt x="500" y="109" on="0"/>
        <pt x="519" y="98" on="0"/>
        <pt x="540" y="98" on="1"/>
        <pt x="554" y="98" on="0"/>
        <pt x="565" y="101" on="1"/>
        <pt x="568" y="83" on="0"/>
        <pt x="568" y="65" on="1"/>
        <pt x="568" y="27" on="0"/>
        <pt x="518" y="-10" on="0"/>
        <pt x="480" y="-10" on="1"/>
        <pt x="419" y="-10" on="0"/>
        <pt x="365" y="45" on="0"/>
        <pt x="340" y="115" on="1"/>
        <pt x="315" y="184" on="0"/>
        <pt x="290" y="264" on="1"/>
        <pt x="282" y="273" on="0"/>
        <pt x="282" y="292" on="1"/>
        <pt x="282" y="319" on="0"/>
        <pt x="295" y="345" on="1"/>
        <pt x="299" y="344" on="0"/>
        <pt x="307" y="344" on="1"/>
        <pt x="327" y="344" on="0"/>
        <pt x="356" y="372" on="0"/>
        <pt x="370" y="416" on="0"/>
        <pt x="376" y="459" on="0"/>
        <pt x="376" y="480" on="1"/>
        <pt x="376" y="536" on="0"/>
        <pt x="344" y="574" on="0"/>
        <pt x="308" y="574" on="1"/>
        <pt x="287" y="574" on="0"/>
        <pt x="274" y="570" on="1"/>
        <pt x="269" y="506" on="0"/>
        <pt x="256" y="402" on="1"/>
        <pt x="230" y="199" on="1"/>
        <pt x="218" y="98" on="0"/>
        <pt x="218" y="61" on="1"/>
        <pt x="218" y="29" on="0"/>
        <pt x="222" y="8" on="1"/>
        <pt x="189" y="-3" on="0"/>
        <pt x="131" y="-3" on="1"/>
        <pt x="54" y="-3" on="0"/>
        <pt x="54" y="54" on="1"/>
        <pt x="54" y="65" on="0"/>
        <pt x="61" y="119" on="0"/>
        <pt x="74" y="205" on="0"/>
        <pt x="77" y="231" on="1"/>
        <pt x="103" y="431" on="1"/>
        <pt x="121" y="564" on="0"/>
        <pt x="121" y="661" on="1"/>
        <pt x="200" y="673" on="0"/>
        <pt x="286" y="673" on="1"/>
        <pt x="421" y="673" on="0"/>
        <pt x="545" y="567" on="0"/>
        <pt x="545" y="487" on="1"/>
        <pt x="545" y="412" on="0"/>
        <pt x="476" y="300" on="0"/>
        <pt x="424" y="288" on="1"/>
        <pt x="461" y="171" on="0"/>
      </contour>
    </TTGlyph>
    <TTGlyph name="S" xMin="23" yMin="-10" xMax="520" yMax="671">
      <contour>
        <pt x="432" y="490" on="1"/>
        <pt x="423" y="525" on="0"/>
        <pt x="363" y="566" on="0"/>
        <pt x="330" y="566" on="1"/>
        <pt x="291" y="566" on="0"/>
        <pt x="236" y="516" on="0"/>
        <pt x="236" y="470" on="1"/>
        <pt x="236" y="442" on="0"/>
        <pt x="287" y="407" on="0"/>
        <pt x="360" y="384" on="0"/>
        <pt x="434" y="354" on="0"/>
        <pt x="485" y="285" on="0"/>
        <pt x="485" y="233" on="1"/>
        <pt x="485" y="118" on="0"/>
        <pt x="338" y="-10" on="0"/>
        <pt x="213" y="-10" on="1"/>
        <pt x="139" y="-10" on="0"/>
        <pt x="23" y="51" on="0"/>
        <pt x="23" y="94" on="1"/>
        <pt x="23" y="148" on="0"/>
        <pt x="98" y="172" on="1"/>
        <pt x="113" y="136" on="0"/>
        <pt x="183" y="93" on="0"/>
        <pt x="221" y="93" on="1"/>
        <pt x="263" y="93" on="0"/>
        <pt x="322" y="146" on="0"/>
        <pt x="322" y="198" on="1"/>
        <pt x="322" y="219" on="0"/>
        <pt x="296" y="249" on="0"/>
        <pt x="253" y="265" on="0"/>
        <pt x="202" y="281" on="0"/>
        <pt x="152" y="305" on="0"/>
        <pt x="109" y="339" on="0"/>
        <pt x="83" y="403" on="0"/>
        <pt x="83" y="446" on="1"/>
        <pt x="83" y="552" on="0"/>
        <pt x="233" y="671" on="0"/>
        <pt x="349" y="671" on="1"/>
        <pt x="411" y="671" on="0"/>
        <pt x="520" y="617" on="0"/>
        <pt x="520" y="570" on="1"/>
        <pt x="520" y="541" on="0"/>
        <pt x="478" y="497" on="0"/>
      </contour>
    </TTGlyph>
    <TTGlyph name="Scaron" xMin="23" yMin="-10" xMax="520" yMax="916">
      <contour>
        <pt x="432" y="490" on="1"/>
        <pt x="423" y="525" on="0"/>
        <pt x="363" y="566" on="0"/>
        <pt x="330" y="566" on="1"/>
        <pt x="291" y="566" on="0"/>
        <pt x="236" y="516" on="0"/>
        <pt x="236" y="470" on="1"/>
        <pt x="236" y="442" on="0"/>
        <pt x="287" y="407" on="0"/>
        <pt x="360" y="384" on="0"/>
        <pt x="434" y="354" on="0"/>
        <pt x="485" y="285" on="0"/>
        <pt x="485" y="233" on="1"/>
        <pt x="485" y="118" on="0"/>
        <pt x="338" y="-10" on="0"/>
        <pt x="213" y="-10" on="1"/>
        <pt x="139" y="-10" on="0"/>
        <pt x="23" y="51" on="0"/>
        <pt x="23" y="94" on="1"/>
        <pt x="23" y="148" on="0"/>
        <pt x="98" y="172" on="1"/>
        <pt x="113" y="136" on="0"/>
        <pt x="183" y="93" on="0"/>
        <pt x="221" y="93" on="1"/>
        <pt x="263" y="93" on="0"/>
        <pt x="322" y="146" on="0"/>
        <pt x="322" y="198" on="1"/>
        <pt x="322" y="219" on="0"/>
        <pt x="296" y="249" on="0"/>
        <pt x="253" y="265" on="0"/>
        <pt x="202" y="281" on="0"/>
        <pt x="152" y="305" on="0"/>
        <pt x="109" y="339" on="0"/>
        <pt x="83" y="403" on="0"/>
        <pt x="83" y="446" on="1"/>
        <pt x="83" y="552" on="0"/>
        <pt x="233" y="671" on="0"/>
        <pt x="349" y="671" on="1"/>
        <pt x="411" y="671" on="0"/>
        <pt x="520" y="617" on="0"/>
        <pt x="520" y="570" on="1"/>
        <pt x="520" y="541" on="0"/>
        <pt x="478" y="497" on="0"/>
      </contour>
      <contour>
        <pt x="314" y="712" on="1"/>
        <pt x="178" y="805" on="0"/>
        <pt x="178" y="857" on="1"/>
        <pt x="178" y="894" on="0"/>
        <pt x="238" y="916" on="1"/>
        <pt x="252" y="892" on="0"/>
        <pt x="298" y="846" on="0"/>
        <pt x="314" y="835" on="1"/>
        <pt x="330" y="824" on="1"/>
        <pt x="386" y="870" on="0"/>
        <pt x="435" y="904" on="0"/>
        <pt x="454" y="904" on="1"/>
        <pt x="476" y="904" on="0"/>
        <pt x="504" y="866" on="1"/>
        <pt x="414" y="776" on="0"/>
      </contour>
    </TTGlyph>
    <TTGlyph name="T" xMin="41" yMin="-3" xMax="541" yMax="664">
      <contour>
        <pt x="43" y="558" on="1"/>
        <pt x="41" y="576" on="0"/>
        <pt x="41" y="592" on="1"/>
        <pt x="41" y="658" on="0"/>
        <pt x="91" y="660" on="1"/>
        <pt x="114" y="661" on="0"/>
        <pt x="188" y="661" on="1"/>
        <pt x="367" y="661" on="1"/>
        <pt x="506" y="661" on="0"/>
        <pt x="538" y="664" on="1"/>
        <pt x="541" y="628" on="0"/>
        <pt x="541" y="626" on="1"/>
        <pt x="541" y="564" on="0"/>
        <pt x="492" y="563" on="1"/>
        <pt x="463" y="562" on="0"/>
        <pt x="362" y="562" on="1"/>
        <pt x="356" y="521" on="0"/>
        <pt x="332" y="351" on="0"/>
        <pt x="321" y="270" on="0"/>
        <pt x="307" y="158" on="0"/>
        <pt x="301" y="88" on="0"/>
        <pt x="301" y="65" on="1"/>
        <pt x="301" y="33" on="0"/>
        <pt x="305" y="8" on="1"/>
        <pt x="272" y="-3" on="0"/>
        <pt x="215" y="-3" on="1"/>
        <pt x="173" y="-3" on="0"/>
        <pt x="137" y="27" on="0"/>
        <pt x="137" y="59" on="1"/>
        <pt x="137" y="70" on="0"/>
        <pt x="159" y="221" on="0"/>
        <pt x="191" y="463" on="0"/>
        <pt x="201" y="560" on="1"/>
        <pt x="86" y="560" on="0"/>
      </contour>
    </TTGlyph>
    <TTGlyph name="Thorn" xMin="46" yMin="-3" xMax="526" yMax="666">
      <contour>
        <pt x="198" y="666" on="1"/>
        <pt x="280" y="666" on="0"/>
        <pt x="280" y="613" on="1"/>
        <pt x="280" y="610" on="0"/>
        <pt x="273" y="570" on="1"/>
        <pt x="526" y="568" on="0"/>
        <pt x="526" y="385" on="1"/>
        <pt x="526" y="263" on="0"/>
        <pt x="397" y="120" on="0"/>
        <pt x="316" y="120" on="1"/>
        <pt x="250" y="120" on="0"/>
        <pt x="216" y="160" on="1"/>
        <pt x="210" y="114" on="0"/>
        <pt x="210" y="67" on="1"/>
        <pt x="210" y="33" on="0"/>
        <pt x="214" y="8" on="1"/>
        <pt x="181" y="-3" on="0"/>
        <pt x="123" y="-3" on="1"/>
        <pt x="81" y="-3" on="0"/>
        <pt x="46" y="27" on="0"/>
        <pt x="46" y="59" on="1"/>
        <pt x="46" y="65" on="0"/>
        <pt x="56" y="136" on="0"/>
        <pt x="82" y="327" on="0"/>
        <pt x="96" y="437" on="1"/>
        <pt x="115" y="590" on="0"/>
        <pt x="118" y="660" on="1"/>
        <pt x="149" y="666" on="0"/>
      </contour>
      <contour>
        <pt x="299" y="470" on="1"/>
        <pt x="287" y="470" on="0"/>
        <pt x="257" y="466" on="1"/>
        <pt x="252" y="438" on="0"/>
        <pt x="247" y="392" on="1"/>
        <pt x="227" y="241" on="1"/>
        <pt x="262" y="221" on="0"/>
        <pt x="285" y="221" on="1"/>
        <pt x="324" y="221" on="0"/>
        <pt x="372" y="306" on="0"/>
        <pt x="372" y="374" on="1"/>
        <pt x="372" y="428" on="0"/>
        <pt x="334" y="470" on="0"/>
      </contour>
    </TTGlyph>
    <TTGlyph name="U" xMin="71" yMin="-10" xMax="648" yMax="666">
      <contour>
        <pt x="442" y="274" on="1"/>
        <pt x="482" y="576" on="0"/>
        <pt x="486" y="660" on="1"/>
        <pt x="517" y="666" on="0"/>
        <pt x="566" y="666" on="1"/>
        <pt x="648" y="666" on="0"/>
        <pt x="648" y="613" on="1"/>
        <pt x="648" y="608" on="0"/>
        <pt x="639" y="554" on="0"/>
        <pt x="622" y="448" on="0"/>
        <pt x="615" y="392" on="1"/>
        <pt x="591" y="199" on="1"/>
        <pt x="579" y="113" on="0"/>
        <pt x="579" y="67" on="1"/>
        <pt x="579" y="33" on="0"/>
        <pt x="583" y="8" on="1"/>
        <pt x="547" y="-3" on="0"/>
        <pt x="491" y="-3" on="1"/>
        <pt x="444" y="-3" on="0"/>
        <pt x="414" y="30" on="0"/>
        <pt x="414" y="65" on="1"/>
        <pt x="414" y="68" on="0"/>
        <pt x="417" y="86" on="0"/>
        <pt x="421" y="118" on="0"/>
        <pt x="423" y="132" on="1"/>
        <pt x="380" y="64" on="0"/>
        <pt x="266" y="-10" on="0"/>
        <pt x="211" y="-10" on="1"/>
        <pt x="144" y="-10" on="0"/>
        <pt x="71" y="86" on="0"/>
        <pt x="71" y="157" on="1"/>
        <pt x="71" y="181" on="0"/>
        <pt x="121" y="557" on="0"/>
        <pt x="126" y="659" on="1"/>
        <pt x="157" y="666" on="0"/>
        <pt x="206" y="666" on="1"/>
        <pt x="288" y="666" on="0"/>
        <pt x="288" y="613" on="1"/>
        <pt x="288" y="610" on="0"/>
        <pt x="280" y="562" on="0"/>
        <pt x="265" y="465" on="0"/>
        <pt x="259" y="421" on="1"/>
        <pt x="229" y="224" on="0"/>
        <pt x="229" y="193" on="1"/>
        <pt x="229" y="102" on="0"/>
        <pt x="288" y="102" on="1"/>
        <pt x="326" y="102" on="0"/>
        <pt x="418" y="200" on="0"/>
      </contour>
    </TTGlyph>
    <TTGlyph name="Uacute" xMin="71" yMin="-10" xMax="648" yMax="946">
      <contour>
        <pt x="442" y="274" on="1"/>
        <pt x="482" y="576" on="0"/>
        <pt x="486" y="660" on="1"/>
        <pt x="517" y="666" on="0"/>
        <pt x="566" y="666" on="1"/>
        <pt x="648" y="666" on="0"/>
        <pt x="648" y="613" on="1"/>
        <pt x="648" y="608" on="0"/>
        <pt x="639" y="554" on="0"/>
        <pt x="622" y="448" on="0"/>
        <pt x="615" y="392" on="1"/>
        <pt x="591" y="199" on="1"/>
        <pt x="579" y="113" on="0"/>
        <pt x="579" y="67" on="1"/>
        <pt x="579" y="33" on="0"/>
        <pt x="583" y="8" on="1"/>
        <pt x="547" y="-3" on="0"/>
        <pt x="491" y="-3" on="1"/>
        <pt x="444" y="-3" on="0"/>
        <pt x="414" y="30" on="0"/>
        <pt x="414" y="65" on="1"/>
        <pt x="414" y="68" on="0"/>
        <pt x="417" y="86" on="0"/>
        <pt x="421" y="118" on="0"/>
        <pt x="423" y="132" on="1"/>
        <pt x="380" y="64" on="0"/>
        <pt x="266" y="-10" on="0"/>
        <pt x="211" y="-10" on="1"/>
        <pt x="144" y="-10" on="0"/>
        <pt x="71" y="86" on="0"/>
        <pt x="71" y="157" on="1"/>
        <pt x="71" y="181" on="0"/>
        <pt x="121" y="557" on="0"/>
        <pt x="126" y="659" on="1"/>
        <pt x="157" y="666" on="0"/>
        <pt x="206" y="666" on="1"/>
        <pt x="288" y="666" on="0"/>
        <pt x="288" y="613" on="1"/>
        <pt x="288" y="610" on="0"/>
        <pt x="280" y="562" on="0"/>
        <pt x="265" y="465" on="0"/>
        <pt x="259" y="421" on="1"/>
        <pt x="229" y="224" on="0"/>
        <pt x="229" y="193" on="1"/>
        <pt x="229" y="102" on="0"/>
        <pt x="288" y="102" on="1"/>
        <pt x="326" y="102" on="0"/>
        <pt x="418" y="200" on="0"/>
      </contour>
      <contour>
        <pt x="566" y="822" on="1"/>
        <pt x="541" y="807" on="0"/>
        <pt x="368" y="734" on="0"/>
        <pt x="349" y="716" on="1"/>
        <pt x="323" y="741" on="0"/>
        <pt x="323" y="772" on="1"/>
        <pt x="323" y="793" on="0"/>
        <pt x="376" y="833" on="0"/>
        <pt x="446" y="864" on="0"/>
        <pt x="530" y="917" on="0"/>
        <pt x="554" y="946" on="1"/>
        <pt x="571" y="935" on="0"/>
        <pt x="595" y="893" on="0"/>
        <pt x="595" y="874" on="1"/>
        <pt x="595" y="840" on="0"/>
      </contour>
    </TTGlyph>
    <TTGlyph name="Ucircumflex" xMin="71" yMin="-10" xMax="648" yMax="912">
      <contour>
        <pt x="442" y="274" on="1"/>
        <pt x="482" y="576" on="0"/>
        <pt x="486" y="660" on="1"/>
        <pt x="517" y="666" on="0"/>
        <pt x="566" y="666" on="1"/>
        <pt x="648" y="666" on="0"/>
        <pt x="648" y="613" on="1"/>
        <pt x="648" y="608" on="0"/>
        <pt x="639" y="554" on="0"/>
        <pt x="622" y="448" on="0"/>
        <pt x="615" y="392" on="1"/>
        <pt x="591" y="199" on="1"/>
        <pt x="579" y="113" on="0"/>
        <pt x="579" y="67" on="1"/>
        <pt x="579" y="33" on="0"/>
        <pt x="583" y="8" on="1"/>
        <pt x="547" y="-3" on="0"/>
        <pt x="491" y="-3" on="1"/>
        <pt x="444" y="-3" on="0"/>
        <pt x="414" y="30" on="0"/>
        <pt x="414" y="65" on="1"/>
        <pt x="414" y="68" on="0"/>
        <pt x="417" y="86" on="0"/>
        <pt x="421" y="118" on="0"/>
        <pt x="423" y="132" on="1"/>
        <pt x="380" y="64" on="0"/>
        <pt x="266" y="-10" on="0"/>
        <pt x="211" y="-10" on="1"/>
        <pt x="144" y="-10" on="0"/>
        <pt x="71" y="86" on="0"/>
        <pt x="71" y="157" on="1"/>
        <pt x="71" y="181" on="0"/>
        <pt x="121" y="557" on="0"/>
        <pt x="126" y="659" on="1"/>
        <pt x="157" y="666" on="0"/>
        <pt x="206" y="666" on="1"/>
        <pt x="288" y="666" on="0"/>
        <pt x="288" y="613" on="1"/>
        <pt x="288" y="610" on="0"/>
        <pt x="280" y="562" on="0"/>
        <pt x="265" y="465" on="0"/>
        <pt x="259" y="421" on="1"/>
        <pt x="229" y="224" on="0"/>
        <pt x="229" y="193" on="1"/>
        <pt x="229" y="102" on="0"/>
        <pt x="288" y="102" on="1"/>
        <pt x="326" y="102" on="0"/>
        <pt x="418" y="200" on="0"/>
      </contour>
      <contour>
        <pt x="436" y="912" on="1"/>
        <pt x="475" y="886" on="0"/>
        <pt x="525" y="848" on="0"/>
        <pt x="571" y="793" on="0"/>
        <pt x="571" y="771" on="1"/>
        <pt x="571" y="755" on="0"/>
        <pt x="534" y="719" on="0"/>
        <pt x="505" y="712" on="1"/>
        <pt x="486" y="740" on="0"/>
        <pt x="444" y="784" on="0"/>
        <pt x="432" y="792" on="1"/>
        <pt x="420" y="801" on="1"/>
        <pt x="316" y="720" on="0"/>
        <pt x="294" y="720" on="1"/>
        <pt x="277" y="720" on="0"/>
        <pt x="259" y="735" on="0"/>
        <pt x="247" y="758" on="1"/>
        <pt x="334" y="847" on="0"/>
      </contour>
    </TTGlyph>
    <TTGlyph name="Udieresis" xMin="71" yMin="-10" xMax="648" yMax="892">
      <contour>
        <pt x="442" y="274" on="1"/>
        <pt x="482" y="576" on="0"/>
        <pt x="486" y="660" on="1"/>
        <pt x="517" y="666" on="0"/>
        <pt x="566" y="666" on="1"/>
        <pt x="648" y="666" on="0"/>
        <pt x="648" y="613" on="1"/>
        <pt x="648" y="608" on="0"/>
        <pt x="639" y="554" on="0"/>
        <pt x="622" y="448" on="0"/>
        <pt x="615" y="392" on="1"/>
        <pt x="591" y="199" on="1"/>
        <pt x="579" y="113" on="0"/>
        <pt x="579" y="67" on="1"/>
        <pt x="579" y="33" on="0"/>
        <pt x="583" y="8" on="1"/>
        <pt x="547" y="-3" on="0"/>
        <pt x="491" y="-3" on="1"/>
        <pt x="444" y="-3" on="0"/>
        <pt x="414" y="30" on="0"/>
        <pt x="414" y="65" on="1"/>
        <pt x="414" y="68" on="0"/>
        <pt x="417" y="86" on="0"/>
        <pt x="421" y="118" on="0"/>
        <pt x="423" y="132" on="1"/>
        <pt x="380" y="64" on="0"/>
        <pt x="266" y="-10" on="0"/>
        <pt x="211" y="-10" on="1"/>
        <pt x="144" y="-10" on="0"/>
        <pt x="71" y="86" on="0"/>
        <pt x="71" y="157" on="1"/>
        <pt x="71" y="181" on="0"/>
        <pt x="121" y="557" on="0"/>
        <pt x="126" y="659" on="1"/>
        <pt x="157" y="666" on="0"/>
        <pt x="206" y="666" on="1"/>
        <pt x="288" y="666" on="0"/>
        <pt x="288" y="613" on="1"/>
        <pt x="288" y="610" on="0"/>
        <pt x="280" y="562" on="0"/>
        <pt x="265" y="465" on="0"/>
        <pt x="259" y="421" on="1"/>
        <pt x="229" y="224" on="0"/>
        <pt x="229" y="193" on="1"/>
        <pt x="229" y="102" on="0"/>
        <pt x="288" y="102" on="1"/>
        <pt x="326" y="102" on="0"/>
        <pt x="418" y="200" on="0"/>
      </contour>
      <contour>
        <pt x="295" y="723" on="1"/>
        <pt x="260" y="723" on="0"/>
        <pt x="222" y="765" on="0"/>
        <pt x="222" y="796" on="1"/>
        <pt x="222" y="833" on="0"/>
        <pt x="273" y="892" on="0"/>
        <pt x="316" y="892" on="1"/>
        <pt x="350" y="892" on="0"/>
        <pt x="389" y="846" on="0"/>
        <pt x="389" y="814" on="1"/>
        <pt x="389" y="778" on="0"/>
        <pt x="339" y="723" on="0"/>
      </contour>
      <contour>
        <pt x="523" y="723" on="1"/>
        <pt x="488" y="723" on="0"/>
        <pt x="450" y="765" on="0"/>
        <pt x="450" y="796" on="1"/>
        <pt x="450" y="833" on="0"/>
        <pt x="501" y="892" on="0"/>
        <pt x="544" y="892" on="1"/>
        <pt x="578" y="892" on="0"/>
        <pt x="617" y="846" on="0"/>
        <pt x="617" y="814" on="1"/>
        <pt x="617" y="778" on="0"/>
        <pt x="567" y="723" on="0"/>
      </contour>
    </TTGlyph>
    <TTGlyph name="Ugrave" xMin="71" yMin="-10" xMax="648" yMax="948">
      <contour>
        <pt x="442" y="274" on="1"/>
        <pt x="482" y="576" on="0"/>
        <pt x="486" y="660" on="1"/>
        <pt x="517" y="666" on="0"/>
        <pt x="566" y="666" on="1"/>
        <pt x="648" y="666" on="0"/>
        <pt x="648" y="613" on="1"/>
        <pt x="648" y="608" on="0"/>
        <pt x="639" y="554" on="0"/>
        <pt x="622" y="448" on="0"/>
        <pt x="615" y="392" on="1"/>
        <pt x="591" y="199" on="1"/>
        <pt x="579" y="113" on="0"/>
        <pt x="579" y="67" on="1"/>
        <pt x="579" y="33" on="0"/>
        <pt x="583" y="8" on="1"/>
        <pt x="547" y="-3" on="0"/>
        <pt x="491" y="-3" on="1"/>
        <pt x="444" y="-3" on="0"/>
        <pt x="414" y="30" on="0"/>
        <pt x="414" y="65" on="1"/>
        <pt x="414" y="68" on="0"/>
        <pt x="417" y="86" on="0"/>
        <pt x="421" y="118" on="0"/>
        <pt x="423" y="132" on="1"/>
        <pt x="380" y="64" on="0"/>
        <pt x="266" y="-10" on="0"/>
        <pt x="211" y="-10" on="1"/>
        <pt x="144" y="-10" on="0"/>
        <pt x="71" y="86" on="0"/>
        <pt x="71" y="157" on="1"/>
        <pt x="71" y="181" on="0"/>
        <pt x="121" y="557" on="0"/>
        <pt x="126" y="659" on="1"/>
        <pt x="157" y="666" on="0"/>
        <pt x="206" y="666" on="1"/>
        <pt x="288" y="666" on="0"/>
        <pt x="288" y="613" on="1"/>
        <pt x="288" y="610" on="0"/>
        <pt x="280" y="562" on="0"/>
        <pt x="265" y="465" on="0"/>
        <pt x="259" y="421" on="1"/>
        <pt x="229" y="224" on="0"/>
        <pt x="229" y="193" on="1"/>
        <pt x="229" y="102" on="0"/>
        <pt x="288" y="102" on="1"/>
        <pt x="326" y="102" on="0"/>
        <pt x="418" y="200" on="0"/>
      </contour>
      <contour>
        <pt x="311" y="948" on="1"/>
        <pt x="329" y="917" on="0"/>
        <pt x="414" y="849" on="0"/>
        <pt x="475" y="795" on="0"/>
        <pt x="475" y="772" on="1"/>
        <pt x="475" y="754" on="0"/>
        <pt x="460" y="731" on="0"/>
        <pt x="440" y="716" on="1"/>
        <pt x="410" y="742" on="0"/>
        <pt x="308" y="804" on="0"/>
        <pt x="253" y="848" on="0"/>
        <pt x="253" y="872" on="1"/>
        <pt x="253" y="919" on="0"/>
      </contour>
    </TTGlyph>
    <TTGlyph name="V" xMin="72" yMin="-10" xMax="632" yMax="674">
      <contour>
        <pt x="105" y="521" on="1"/>
        <pt x="105" y="594" on="0"/>
        <pt x="78" y="650" on="1"/>
        <pt x="114" y="674" on="0"/>
        <pt x="174" y="674" on="1"/>
        <pt x="272" y="674" on="0"/>
        <pt x="272" y="579" on="1"/>
        <pt x="272" y="532" on="0"/>
        <pt x="231" y="279" on="0"/>
        <pt x="231" y="220" on="1"/>
        <pt x="231" y="124" on="0"/>
        <pt x="249" y="88" on="1"/>
        <pt x="301" y="95" on="0"/>
        <pt x="385" y="197" on="0"/>
        <pt x="432" y="340" on="0"/>
        <pt x="457" y="485" on="0"/>
        <pt x="457" y="609" on="0"/>
        <pt x="440" y="653" on="1"/>
        <pt x="479" y="674" on="0"/>
        <pt x="536" y="674" on="1"/>
        <pt x="632" y="674" on="0"/>
        <pt x="632" y="594" on="1"/>
        <pt x="632" y="540" on="0"/>
        <pt x="602" y="393" on="0"/>
        <pt x="534" y="225" on="0"/>
        <pt x="440" y="84" on="0"/>
        <pt x="296" y="-10" on="0"/>
        <pt x="212" y="-10" on="1"/>
        <pt x="182" y="-10" on="0"/>
        <pt x="152" y="1" on="1"/>
        <pt x="72" y="67" on="0"/>
        <pt x="72" y="191" on="1"/>
        <pt x="72" y="255" on="0"/>
        <pt x="105" y="439" on="0"/>
      </contour>
    </TTGlyph>
    <TTGlyph name="W" xMin="72" yMin="-10" xMax="973" yMax="674">
      <contour>
        <pt x="105" y="521" on="1"/>
        <pt x="105" y="594" on="0"/>
        <pt x="78" y="650" on="1"/>
        <pt x="114" y="674" on="0"/>
        <pt x="174" y="674" on="1"/>
        <pt x="272" y="674" on="0"/>
        <pt x="272" y="579" on="1"/>
        <pt x="272" y="532" on="0"/>
        <pt x="231" y="279" on="0"/>
        <pt x="231" y="220" on="1"/>
        <pt x="231" y="124" on="0"/>
        <pt x="249" y="88" on="1"/>
        <pt x="299" y="95" on="0"/>
        <pt x="378" y="197" on="0"/>
        <pt x="424" y="340" on="0"/>
        <pt x="447" y="485" on="0"/>
        <pt x="447" y="609" on="0"/>
        <pt x="430" y="653" on="1"/>
        <pt x="469" y="674" on="0"/>
        <pt x="526" y="674" on="1"/>
        <pt x="622" y="674" on="0"/>
        <pt x="622" y="594" on="1"/>
        <pt x="622" y="476" on="0"/>
        <pt x="568" y="329" on="1"/>
        <pt x="566" y="297" on="0"/>
        <pt x="566" y="280" on="1"/>
        <pt x="566" y="161" on="0"/>
        <pt x="600" y="88" on="1"/>
        <pt x="650" y="95" on="0"/>
        <pt x="729" y="197" on="0"/>
        <pt x="775" y="340" on="0"/>
        <pt x="798" y="485" on="0"/>
        <pt x="798" y="609" on="0"/>
        <pt x="781" y="653" on="1"/>
        <pt x="820" y="674" on="0"/>
        <pt x="877" y="674" on="1"/>
        <pt x="973" y="674" on="0"/>
        <pt x="973" y="594" on="1"/>
        <pt x="973" y="540" on="0"/>
        <pt x="944" y="393" on="0"/>
        <pt x="878" y="225" on="0"/>
        <pt x="786" y="84" on="0"/>
        <pt x="644" y="-10" on="0"/>
        <pt x="562" y="-10" on="1"/>
        <pt x="533" y="-10" on="0"/>
        <pt x="503" y="1" on="1"/>
        <pt x="459" y="28" on="0"/>
        <pt x="443" y="106" on="1"/>
        <pt x="340" y="-10" on="0"/>
        <pt x="211" y="-10" on="1"/>
        <pt x="182" y="-10" on="0"/>
        <pt x="152" y="1" on="1"/>
        <pt x="72" y="67" on="0"/>
        <pt x="72" y="191" on="1"/>
        <pt x="72" y="255" on="0"/>
        <pt x="105" y="439" on="0"/>
      </contour>
    </TTGlyph>
    <TTGlyph name="X" xMin="6" yMin="-10" xMax="581" yMax="674">
      <contour>
        <pt x="565" y="76" on="1"/>
        <pt x="502" y="-10" on="0"/>
        <pt x="443" y="-10" on="1"/>
        <pt x="431" y="-10" on="0"/>
        <pt x="408" y="-1" on="0"/>
        <pt x="387" y="19" on="0"/>
        <pt x="369" y="39" on="0"/>
        <pt x="350" y="76" on="0"/>
        <pt x="337" y="103" on="0"/>
        <pt x="318" y="152" on="0"/>
        <pt x="307" y="182" on="0"/>
        <pt x="286" y="238" on="0"/>
        <pt x="281" y="253" on="1"/>
        <pt x="237" y="200" on="0"/>
        <pt x="148" y="41" on="0"/>
        <pt x="134" y="-10" on="1"/>
        <pt x="73" y="1" on="0"/>
        <pt x="6" y="34" on="0"/>
        <pt x="6" y="66" on="1"/>
        <pt x="6" y="84" on="0"/>
        <pt x="35" y="136" on="0"/>
        <pt x="102" y="210" on="0"/>
        <pt x="142" y="252" on="0"/>
        <pt x="235" y="342" on="0"/>
        <pt x="240" y="347" on="1"/>
        <pt x="192" y="449" on="0"/>
        <pt x="122" y="552" on="0"/>
        <pt x="70" y="588" on="1"/>
        <pt x="136" y="673" on="0"/>
        <pt x="191" y="673" on="1"/>
        <pt x="235" y="673" on="0"/>
        <pt x="265" y="615" on="1"/>
        <pt x="296" y="553" on="0"/>
        <pt x="333" y="435" on="1"/>
        <pt x="374" y="498" on="0"/>
        <pt x="441" y="636" on="0"/>
        <pt x="448" y="674" on="1"/>
        <pt x="489" y="666" on="0"/>
        <pt x="538" y="652" on="0"/>
        <pt x="581" y="619" on="0"/>
        <pt x="581" y="596" on="1"/>
        <pt x="581" y="584" on="0"/>
        <pt x="567" y="551" on="0"/>
        <pt x="536" y="508" on="0"/>
        <pt x="509" y="474" on="0"/>
        <pt x="461" y="421" on="0"/>
        <pt x="437" y="395" on="0"/>
        <pt x="387" y="343" on="0"/>
        <pt x="384" y="340" on="1"/>
        <pt x="420" y="250" on="0"/>
        <pt x="504" y="115" on="0"/>
      </contour>
    </TTGlyph>
    <TTGlyph name="Y" xMin="45" yMin="-3" xMax="565" yMax="672">
      <contour>
        <pt x="188" y="282" on="1"/>
        <pt x="101" y="556" on="0"/>
        <pt x="45" y="609" on="1"/>
        <pt x="79" y="642" on="0"/>
        <pt x="126" y="668" on="0"/>
        <pt x="154" y="668" on="1"/>
        <pt x="179" y="668" on="0"/>
        <pt x="212" y="649" on="0"/>
        <pt x="222" y="621" on="1"/>
        <pt x="265" y="509" on="0"/>
        <pt x="302" y="389" on="1"/>
        <pt x="338" y="445" on="0"/>
        <pt x="428" y="637" on="0"/>
        <pt x="432" y="672" on="1"/>
        <pt x="565" y="672" on="0"/>
        <pt x="565" y="609" on="1"/>
        <pt x="565" y="558" on="0"/>
        <pt x="344" y="282" on="1"/>
        <pt x="334" y="199" on="1"/>
        <pt x="322" y="96" on="0"/>
        <pt x="322" y="67" on="1"/>
        <pt x="322" y="33" on="0"/>
        <pt x="326" y="8" on="1"/>
        <pt x="293" y="-3" on="0"/>
        <pt x="235" y="-3" on="1"/>
        <pt x="193" y="-3" on="0"/>
        <pt x="158" y="27" on="0"/>
        <pt x="158" y="59" on="1"/>
        <pt x="158" y="64" on="0"/>
        <pt x="164" y="109" on="0"/>
        <pt x="180" y="224" on="0"/>
      </contour>
    </TTGlyph>
    <TTGlyph name="Yacute" xMin="45" yMin="-3" xMax="565" yMax="946">
      <contour>
        <pt x="188" y="282" on="1"/>
        <pt x="101" y="556" on="0"/>
        <pt x="45" y="609" on="1"/>
        <pt x="79" y="642" on="0"/>
        <pt x="126" y="668" on="0"/>
        <pt x="154" y="668" on="1"/>
        <pt x="179" y="668" on="0"/>
        <pt x="212" y="649" on="0"/>
        <pt x="222" y="621" on="1"/>
        <pt x="265" y="509" on="0"/>
        <pt x="302" y="389" on="1"/>
        <pt x="338" y="445" on="0"/>
        <pt x="428" y="637" on="0"/>
        <pt x="432" y="672" on="1"/>
        <pt x="565" y="672" on="0"/>
        <pt x="565" y="609" on="1"/>
        <pt x="565" y="558" on="0"/>
        <pt x="344" y="282" on="1"/>
        <pt x="334" y="199" on="1"/>
        <pt x="322" y="96" on="0"/>
        <pt x="322" y="67" on="1"/>
        <pt x="322" y="33" on="0"/>
        <pt x="326" y="8" on="1"/>
        <pt x="293" y="-3" on="0"/>
        <pt x="235" y="-3" on="1"/>
        <pt x="193" y="-3" on="0"/>
        <pt x="158" y="27" on="0"/>
        <pt x="158" y="59" on="1"/>
        <pt x="158" y="64" on="0"/>
        <pt x="164" y="109" on="0"/>
        <pt x="180" y="224" on="0"/>
      </contour>
      <contour>
        <pt x="512" y="822" on="1"/>
        <pt x="487" y="807" on="0"/>
        <pt x="314" y="734" on="0"/>
        <pt x="295" y="716" on="1"/>
        <pt x="269" y="741" on="0"/>
        <pt x="269" y="772" on="1"/>
        <pt x="269" y="793" on="0"/>
        <pt x="322" y="833" on="0"/>
        <pt x="392" y="864" on="0"/>
        <pt x="476" y="917" on="0"/>
        <pt x="500" y="946" on="1"/>
        <pt x="517" y="935" on="0"/>
        <pt x="541" y="893" on="0"/>
        <pt x="541" y="874" on="1"/>
        <pt x="541" y="840" on="0"/>
      </contour>
    </TTGlyph>
    <TTGlyph name="Ydieresis" xMin="45" yMin="-3" xMax="565" yMax="892">
      <contour>
        <pt x="188" y="282" on="1"/>
        <pt x="101" y="556" on="0"/>
        <pt x="45" y="609" on="1"/>
        <pt x="79" y="642" on="0"/>
        <pt x="126" y="668" on="0"/>
        <pt x="154" y="668" on="1"/>
        <pt x="179" y="668" on="0"/>
        <pt x="212" y="649" on="0"/>
        <pt x="222" y="621" on="1"/>
        <pt x="265" y="509" on="0"/>
        <pt x="302" y="389" on="1"/>
        <pt x="338" y="445" on="0"/>
        <pt x="428" y="637" on="0"/>
        <pt x="432" y="672" on="1"/>
        <pt x="565" y="672" on="0"/>
        <pt x="565" y="609" on="1"/>
        <pt x="565" y="558" on="0"/>
        <pt x="344" y="282" on="1"/>
        <pt x="334" y="199" on="1"/>
        <pt x="322" y="96" on="0"/>
        <pt x="322" y="67" on="1"/>
        <pt x="322" y="33" on="0"/>
        <pt x="326" y="8" on="1"/>
        <pt x="293" y="-3" on="0"/>
        <pt x="235" y="-3" on="1"/>
        <pt x="193" y="-3" on="0"/>
        <pt x="158" y="27" on="0"/>
        <pt x="158" y="59" on="1"/>
        <pt x="158" y="64" on="0"/>
        <pt x="164" y="109" on="0"/>
        <pt x="180" y="224" on="0"/>
      </contour>
      <contour>
        <pt x="241" y="723" on="1"/>
        <pt x="206" y="723" on="0"/>
        <pt x="168" y="765" on="0"/>
        <pt x="168" y="796" on="1"/>
        <pt x="168" y="833" on="0"/>
        <pt x="219" y="892" on="0"/>
        <pt x="262" y="892" on="1"/>
        <pt x="296" y="892" on="0"/>
        <pt x="335" y="846" on="0"/>
        <pt x="335" y="814" on="1"/>
        <pt x="335" y="778" on="0"/>
        <pt x="285" y="723" on="0"/>
      </contour>
      <contour>
        <pt x="469" y="723" on="1"/>
        <pt x="434" y="723" on="0"/>
        <pt x="396" y="765" on="0"/>
        <pt x="396" y="796" on="1"/>
        <pt x="396" y="833" on="0"/>
        <pt x="447" y="892" on="0"/>
        <pt x="490" y="892" on="1"/>
        <pt x="524" y="892" on="0"/>
        <pt x="563" y="846" on="0"/>
        <pt x="563" y="814" on="1"/>
        <pt x="563" y="778" on="0"/>
        <pt x="513" y="723" on="0"/>
      </contour>
    </TTGlyph>
    <TTGlyph name="Z" xMin="36" yMin="-10" xMax="584" yMax="667">
      <contour>
        <pt x="154" y="667" on="1"/>
        <pt x="188" y="667" on="0"/>
        <pt x="424" y="640" on="0"/>
        <pt x="481" y="640" on="1"/>
        <pt x="534" y="640" on="0"/>
        <pt x="561" y="653" on="1"/>
        <pt x="584" y="630" on="0"/>
        <pt x="584" y="590" on="1"/>
        <pt x="584" y="554" on="0"/>
        <pt x="564" y="531" on="1"/>
        <pt x="306" y="236" on="1"/>
        <pt x="254" y="175" on="0"/>
        <pt x="219" y="123" on="1"/>
        <pt x="226" y="124" on="0"/>
        <pt x="242" y="124" on="1"/>
        <pt x="275" y="124" on="0"/>
        <pt x="416" y="98" on="0"/>
        <pt x="447" y="98" on="1"/>
        <pt x="504" y="98" on="0"/>
        <pt x="535" y="114" on="1"/>
        <pt x="550" y="80" on="0"/>
        <pt x="550" y="56" on="1"/>
        <pt x="550" y="20" on="0"/>
        <pt x="496" y="-10" on="0"/>
        <pt x="425" y="-10" on="1"/>
        <pt x="394" y="-10" on="0"/>
        <pt x="210" y="15" on="0"/>
        <pt x="156" y="15" on="1"/>
        <pt x="101" y="15" on="0"/>
        <pt x="63" y="3" on="1"/>
        <pt x="36" y="30" on="0"/>
        <pt x="36" y="61" on="1"/>
        <pt x="36" y="84" on="0"/>
        <pt x="52" y="114" on="1"/>
        <pt x="106" y="211" on="0"/>
        <pt x="388" y="535" on="1"/>
        <pt x="353" y="535" on="0"/>
        <pt x="203" y="558" on="0"/>
        <pt x="125" y="558" on="0"/>
        <pt x="87" y="539" on="1"/>
        <pt x="73" y="574" on="0"/>
        <pt x="73" y="601" on="1"/>
        <pt x="73" y="667" on="0"/>
      </contour>
    </TTGlyph>
    <TTGlyph name="Zcaron" xMin="36" yMin="-10" xMax="584" yMax="916">
      <contour>
        <pt x="154" y="667" on="1"/>
        <pt x="188" y="667" on="0"/>
        <pt x="424" y="640" on="0"/>
        <pt x="481" y="640" on="1"/>
        <pt x="534" y="640" on="0"/>
        <pt x="561" y="653" on="1"/>
        <pt x="584" y="630" on="0"/>
        <pt x="584" y="590" on="1"/>
        <pt x="584" y="554" on="0"/>
        <pt x="564" y="531" on="1"/>
        <pt x="306" y="236" on="1"/>
        <pt x="254" y="175" on="0"/>
        <pt x="219" y="123" on="1"/>
        <pt x="226" y="124" on="0"/>
        <pt x="242" y="124" on="1"/>
        <pt x="275" y="124" on="0"/>
        <pt x="416" y="98" on="0"/>
        <pt x="447" y="98" on="1"/>
        <pt x="504" y="98" on="0"/>
        <pt x="535" y="114" on="1"/>
        <pt x="550" y="80" on="0"/>
        <pt x="550" y="56" on="1"/>
        <pt x="550" y="20" on="0"/>
        <pt x="496" y="-10" on="0"/>
        <pt x="425" y="-10" on="1"/>
        <pt x="394" y="-10" on="0"/>
        <pt x="210" y="15" on="0"/>
        <pt x="156" y="15" on="1"/>
        <pt x="101" y="15" on="0"/>
        <pt x="63" y="3" on="1"/>
        <pt x="36" y="30" on="0"/>
        <pt x="36" y="61" on="1"/>
        <pt x="36" y="84" on="0"/>
        <pt x="52" y="114" on="1"/>
        <pt x="106" y="211" on="0"/>
        <pt x="388" y="535" on="1"/>
        <pt x="353" y="535" on="0"/>
        <pt x="203" y="558" on="0"/>
        <pt x="125" y="558" on="0"/>
        <pt x="87" y="539" on="1"/>
        <pt x="73" y="574" on="0"/>
        <pt x="73" y="601" on="1"/>
        <pt x="73" y="667" on="0"/>
      </contour>
      <contour>
        <pt x="353" y="712" on="1"/>
        <pt x="217" y="805" on="0"/>
        <pt x="217" y="857" on="1"/>
        <pt x="217" y="894" on="0"/>
        <pt x="277" y="916" on="1"/>
        <pt x="291" y="892" on="0"/>
        <pt x="337" y="846" on="0"/>
        <pt x="353" y="835" on="1"/>
        <pt x="369" y="824" on="1"/>
        <pt x="425" y="870" on="0"/>
        <pt x="474" y="904" on="0"/>
        <pt x="493" y="904" on="1"/>
        <pt x="515" y="904" on="0"/>
        <pt x="543" y="866" on="1"/>
        <pt x="453" y="776" on="0"/>
      </contour>
    </TTGlyph>
    <TTGlyph name="a" xMin="26" yMin="-10" xMax="492" yMax="483">
      <contour>
        <pt x="310" y="189" on="1"/>
        <pt x="335" y="358" on="1"/>
        <pt x="305" y="394" on="0"/>
        <pt x="274" y="394" on="1"/>
        <pt x="232" y="394" on="0"/>
        <pt x="184" y="272" on="0"/>
        <pt x="184" y="196" on="1"/>
        <pt x="184" y="146" on="0"/>
        <pt x="206" y="79" on="0"/>
        <pt x="227" y="79" on="1"/>
        <pt x="246" y="79" on="0"/>
        <pt x="294" y="140" on="0"/>
      </contour>
      <contour>
        <pt x="303" y="104" on="1"/>
        <pt x="275" y="49" on="0"/>
        <pt x="195" y="-10" on="0"/>
        <pt x="152" y="-10" on="1"/>
        <pt x="96" y="-10" on="0"/>
        <pt x="26" y="81" on="0"/>
        <pt x="26" y="168" on="1"/>
        <pt x="26" y="246" on="0"/>
        <pt x="84" y="386" on="0"/>
        <pt x="209" y="483" on="0"/>
        <pt x="293" y="483" on="1"/>
        <pt x="395" y="483" on="0"/>
        <pt x="492" y="417" on="1"/>
        <pt x="447" y="205" on="0"/>
        <pt x="447" y="124" on="1"/>
        <pt x="447" y="86" on="0"/>
        <pt x="479" y="66" on="1"/>
        <pt x="453" y="-10" on="0"/>
        <pt x="379" y="-10" on="1"/>
        <pt x="338" y="-10" on="0"/>
        <pt x="302" y="34" on="0"/>
        <pt x="302" y="79" on="1"/>
        <pt x="302" y="95" on="0"/>
      </contour>
    </TTGlyph>
    <TTGlyph name="aacute" xMin="35" yMin="-10" xMax="504" yMax="753">
      <contour>
        <pt x="319" y="189" on="1"/>
        <pt x="344" y="358" on="1"/>
        <pt x="314" y="394" on="0"/>
        <pt x="283" y="394" on="1"/>
        <pt x="254" y="394" on="0"/>
        <pt x="212" y="331" on="0"/>
        <pt x="193" y="244" on="0"/>
        <pt x="193" y="196" on="1"/>
        <pt x="193" y="146" on="0"/>
        <pt x="215" y="79" on="0"/>
        <pt x="236" y="79" on="1"/>
        <pt x="255" y="79" on="0"/>
        <pt x="303" y="140" on="0"/>
      </contour>
      <contour>
        <pt x="312" y="104" on="1"/>
        <pt x="284" y="49" on="0"/>
        <pt x="204" y="-10" on="0"/>
        <pt x="161" y="-10" on="1"/>
        <pt x="105" y="-10" on="0"/>
        <pt x="35" y="81" on="0"/>
        <pt x="35" y="168" on="1"/>
        <pt x="35" y="246" on="0"/>
        <pt x="93" y="386" on="0"/>
        <pt x="218" y="483" on="0"/>
        <pt x="302" y="483" on="1"/>
        <pt x="404" y="483" on="0"/>
        <pt x="501" y="417" on="1"/>
        <pt x="456" y="205" on="0"/>
        <pt x="456" y="124" on="1"/>
        <pt x="456" y="86" on="0"/>
        <pt x="488" y="66" on="1"/>
        <pt x="462" y="-10" on="0"/>
        <pt x="388" y="-10" on="1"/>
        <pt x="347" y="-10" on="0"/>
        <pt x="311" y="34" on="0"/>
        <pt x="311" y="79" on="1"/>
        <pt x="311" y="95" on="0"/>
      </contour>
      <contour>
        <pt x="475" y="629" on="1"/>
        <pt x="450" y="614" on="0"/>
        <pt x="277" y="541" on="0"/>
        <pt x="258" y="523" on="1"/>
        <pt x="232" y="548" on="0"/>
        <pt x="232" y="579" on="1"/>
        <pt x="232" y="600" on="0"/>
        <pt x="285" y="640" on="0"/>
        <pt x="355" y="671" on="0"/>
        <pt x="439" y="724" on="0"/>
        <pt x="463" y="753" on="1"/>
        <pt x="480" y="742" on="0"/>
        <pt x="504" y="700" on="0"/>
        <pt x="504" y="681" on="1"/>
        <pt x="504" y="647" on="0"/>
      </contour>
    </TTGlyph>
    <TTGlyph name="acircumflex" xMin="35" yMin="-10" xMax="501" yMax="719">
      <contour>
        <pt x="319" y="189" on="1"/>
        <pt x="344" y="358" on="1"/>
        <pt x="314" y="394" on="0"/>
        <pt x="283" y="394" on="1"/>
        <pt x="254" y="394" on="0"/>
        <pt x="212" y="331" on="0"/>
        <pt x="193" y="244" on="0"/>
        <pt x="193" y="196" on="1"/>
        <pt x="193" y="146" on="0"/>
        <pt x="215" y="79" on="0"/>
        <pt x="236" y="79" on="1"/>
        <pt x="255" y="79" on="0"/>
        <pt x="303" y="140" on="0"/>
      </contour>
      <contour>
        <pt x="312" y="104" on="1"/>
        <pt x="284" y="49" on="0"/>
        <pt x="204" y="-10" on="0"/>
        <pt x="161" y="-10" on="1"/>
        <pt x="105" y="-10" on="0"/>
        <pt x="35" y="81" on="0"/>
        <pt x="35" y="168" on="1"/>
        <pt x="35" y="246" on="0"/>
        <pt x="93" y="386" on="0"/>
        <pt x="218" y="483" on="0"/>
        <pt x="302" y="483" on="1"/>
        <pt x="404" y="483" on="0"/>
        <pt x="501" y="417" on="1"/>
        <pt x="456" y="205" on="0"/>
        <pt x="456" y="124" on="1"/>
        <pt x="456" y="86" on="0"/>
        <pt x="488" y="66" on="1"/>
        <pt x="462" y="-10" on="0"/>
        <pt x="388" y="-10" on="1"/>
        <pt x="347" y="-10" on="0"/>
        <pt x="311" y="34" on="0"/>
        <pt x="311" y="79" on="1"/>
        <pt x="311" y="95" on="0"/>
      </contour>
      <contour>
        <pt x="345" y="719" on="1"/>
        <pt x="384" y="693" on="0"/>
        <pt x="434" y="655" on="0"/>
        <pt x="480" y="600" on="0"/>
        <pt x="480" y="578" on="1"/>
        <pt x="480" y="562" on="0"/>
        <pt x="443" y="526" on="0"/>
        <pt x="414" y="519" on="1"/>
        <pt x="395" y="547" on="0"/>
        <pt x="353" y="592" on="0"/>
        <pt x="341" y="600" on="1"/>
        <pt x="329" y="608" on="1"/>
        <pt x="226" y="527" on="0"/>
        <pt x="203" y="527" on="1"/>
        <pt x="186" y="527" on="0"/>
        <pt x="168" y="542" on="0"/>
        <pt x="156" y="565" on="1"/>
        <pt x="243" y="654" on="0"/>
      </contour>
    </TTGlyph>
    <TTGlyph name="acute" xMin="0" yMin="523" xMax="272" yMax="753">
      <contour>
        <pt x="243" y="629" on="1"/>
        <pt x="218" y="614" on="0"/>
        <pt x="45" y="541" on="0"/>
        <pt x="26" y="523" on="1"/>
        <pt x="0" y="548" on="0"/>
        <pt x="0" y="579" on="1"/>
        <pt x="0" y="600" on="0"/>
        <pt x="53" y="640" on="0"/>
        <pt x="123" y="671" on="0"/>
        <pt x="207" y="724" on="0"/>
        <pt x="231" y="753" on="1"/>
        <pt x="248" y="742" on="0"/>
        <pt x="272" y="700" on="0"/>
        <pt x="272" y="681" on="1"/>
        <pt x="272" y="647" on="0"/>
      </contour>
    </TTGlyph>
    <TTGlyph name="adieresis" xMin="35" yMin="-10" xMax="526" yMax="699">
      <contour>
        <pt x="319" y="189" on="1"/>
        <pt x="344" y="358" on="1"/>
        <pt x="314" y="394" on="0"/>
        <pt x="283" y="394" on="1"/>
        <pt x="254" y="394" on="0"/>
        <pt x="212" y="331" on="0"/>
        <pt x="193" y="244" on="0"/>
        <pt x="193" y="196" on="1"/>
        <pt x="193" y="146" on="0"/>
        <pt x="215" y="79" on="0"/>
        <pt x="236" y="79" on="1"/>
        <pt x="255" y="79" on="0"/>
        <pt x="303" y="140" on="0"/>
      </contour>
      <contour>
        <pt x="312" y="104" on="1"/>
        <pt x="284" y="49" on="0"/>
        <pt x="204" y="-10" on="0"/>
        <pt x="161" y="-10" on="1"/>
        <pt x="105" y="-10" on="0"/>
        <pt x="35" y="81" on="0"/>
        <pt x="35" y="168" on="1"/>
        <pt x="35" y="246" on="0"/>
        <pt x="93" y="386" on="0"/>
        <pt x="218" y="483" on="0"/>
        <pt x="302" y="483" on="1"/>
        <pt x="404" y="483" on="0"/>
        <pt x="501" y="417" on="1"/>
        <pt x="456" y="205" on="0"/>
        <pt x="456" y="124" on="1"/>
        <pt x="456" y="86" on="0"/>
        <pt x="488" y="66" on="1"/>
        <pt x="462" y="-10" on="0"/>
        <pt x="388" y="-10" on="1"/>
        <pt x="347" y="-10" on="0"/>
        <pt x="311" y="34" on="0"/>
        <pt x="311" y="79" on="1"/>
        <pt x="311" y="95" on="0"/>
      </contour>
      <contour>
        <pt x="204" y="530" on="1"/>
        <pt x="169" y="530" on="0"/>
        <pt x="131" y="572" on="0"/>
        <pt x="131" y="603" on="1"/>
        <pt x="131" y="640" on="0"/>
        <pt x="182" y="699" on="0"/>
        <pt x="225" y="699" on="1"/>
        <pt x="259" y="699" on="0"/>
        <pt x="298" y="653" on="0"/>
        <pt x="298" y="621" on="1"/>
        <pt x="298" y="585" on="0"/>
        <pt x="248" y="530" on="0"/>
      </contour>
      <contour>
        <pt x="432" y="530" on="1"/>
        <pt x="397" y="530" on="0"/>
        <pt x="359" y="572" on="0"/>
        <pt x="359" y="603" on="1"/>
        <pt x="359" y="640" on="0"/>
        <pt x="410" y="699" on="0"/>
        <pt x="453" y="699" on="1"/>
        <pt x="487" y="699" on="0"/>
        <pt x="526" y="653" on="0"/>
        <pt x="526" y="621" on="1"/>
        <pt x="526" y="585" on="0"/>
        <pt x="476" y="530" on="0"/>
      </contour>
    </TTGlyph>
    <TTGlyph name="ae" xMin="35" yMin="-10" xMax="733" yMax="483">
      <contour>
        <pt x="653" y="131" on="1"/>
        <pt x="705" y="107" on="0"/>
        <pt x="705" y="71" on="1"/>
        <pt x="705" y="36" on="0"/>
        <pt x="606" y="-10" on="0"/>
        <pt x="539" y="-10" on="1"/>
        <pt x="468" y="-10" on="0"/>
        <pt x="352" y="49" on="0"/>
        <pt x="331" y="111" on="1"/>
        <pt x="262" y="-10" on="0"/>
        <pt x="161" y="-10" on="1"/>
        <pt x="105" y="-10" on="0"/>
        <pt x="35" y="81" on="0"/>
        <pt x="35" y="168" on="1"/>
        <pt x="35" y="246" on="0"/>
        <pt x="93" y="386" on="0"/>
        <pt x="218" y="483" on="0"/>
        <pt x="302" y="483" on="1"/>
        <pt x="380" y="483" on="0"/>
        <pt x="445" y="436" on="1"/>
        <pt x="515" y="483" on="0"/>
        <pt x="591" y="483" on="1"/>
        <pt x="650" y="483" on="0"/>
        <pt x="733" y="417" on="0"/>
        <pt x="733" y="358" on="1"/>
        <pt x="733" y="267" on="0"/>
        <pt x="606" y="165" on="0"/>
        <pt x="509" y="165" on="1"/>
        <pt x="497" y="165" on="0"/>
        <pt x="479" y="167" on="1"/>
        <pt x="485" y="80" on="0"/>
        <pt x="563" y="80" on="1"/>
        <pt x="620" y="80" on="0"/>
      </contour>
      <contour>
        <pt x="319" y="189" on="1"/>
        <pt x="321" y="195" on="1"/>
        <pt x="325" y="286" on="0"/>
        <pt x="369" y="356" on="1"/>
        <pt x="323" y="395" on="0"/>
        <pt x="288" y="395" on="1"/>
        <pt x="242" y="395" on="0"/>
        <pt x="193" y="281" on="0"/>
        <pt x="193" y="196" on="1"/>
        <pt x="193" y="146" on="0"/>
        <pt x="215" y="79" on="0"/>
        <pt x="236" y="79" on="1"/>
        <pt x="255" y="79" on="0"/>
        <pt x="303" y="140" on="0"/>
      </contour>
      <contour>
        <pt x="568" y="346" on="1"/>
        <pt x="568" y="367" on="0"/>
        <pt x="553" y="395" on="0"/>
        <pt x="539" y="395" on="1"/>
        <pt x="516" y="395" on="0"/>
        <pt x="482" y="313" on="0"/>
        <pt x="479" y="248" on="1"/>
        <pt x="495" y="249" on="0"/>
        <pt x="516" y="253" on="0"/>
        <pt x="550" y="270" on="0"/>
        <pt x="568" y="313" on="0"/>
      </contour>
    </TTGlyph>
    <TTGlyph name="agrave" xMin="35" yMin="-10" xMax="501" yMax="755">
      <contour>
        <pt x="319" y="189" on="1"/>
        <pt x="344" y="358" on="1"/>
        <pt x="314" y="394" on="0"/>
        <pt x="283" y="394" on="1"/>
        <pt x="254" y="394" on="0"/>
        <pt x="212" y="331" on="0"/>
        <pt x="193" y="244" on="0"/>
        <pt x="193" y="196" on="1"/>
        <pt x="193" y="146" on="0"/>
        <pt x="215" y="79" on="0"/>
        <pt x="236" y="79" on="1"/>
        <pt x="255" y="79" on="0"/>
        <pt x="303" y="140" on="0"/>
      </contour>
      <contour>
        <pt x="312" y="104" on="1"/>
        <pt x="284" y="49" on="0"/>
        <pt x="204" y="-10" on="0"/>
        <pt x="161" y="-10" on="1"/>
        <pt x="105" y="-10" on="0"/>
        <pt x="35" y="81" on="0"/>
        <pt x="35" y="168" on="1"/>
        <pt x="35" y="246" on="0"/>
        <pt x="93" y="386" on="0"/>
        <pt x="218" y="483" on="0"/>
        <pt x="302" y="483" on="1"/>
        <pt x="404" y="483" on="0"/>
        <pt x="501" y="417" on="1"/>
        <pt x="456" y="205" on="0"/>
        <pt x="456" y="124" on="1"/>
        <pt x="456" y="86" on="0"/>
        <pt x="488" y="66" on="1"/>
        <pt x="462" y="-10" on="0"/>
        <pt x="388" y="-10" on="1"/>
        <pt x="347" y="-10" on="0"/>
        <pt x="311" y="34" on="0"/>
        <pt x="311" y="79" on="1"/>
        <pt x="311" y="95" on="0"/>
      </contour>
      <contour>
        <pt x="220" y="755" on="1"/>
        <pt x="238" y="724" on="0"/>
        <pt x="323" y="656" on="0"/>
        <pt x="384" y="602" on="0"/>
        <pt x="384" y="579" on="1"/>
        <pt x="384" y="561" on="0"/>
        <pt x="369" y="538" on="0"/>
        <pt x="349" y="523" on="1"/>
        <pt x="319" y="549" on="0"/>
        <pt x="217" y="611" on="0"/>
        <pt x="162" y="655" on="0"/>
        <pt x="162" y="679" on="1"/>
        <pt x="162" y="726" on="0"/>
      </contour>
    </TTGlyph>
    <TTGlyph name="ampersand" xMin="35" yMin="-11" xMax="789" yMax="675">
      <contour>
        <pt x="789" y="403" on="1"/>
        <pt x="789" y="358" on="0"/>
        <pt x="708" y="272" on="0"/>
        <pt x="648" y="272" on="1"/>
        <pt x="629" y="272" on="0"/>
        <pt x="621" y="273" on="1"/>
        <pt x="578" y="119" on="0"/>
        <pt x="408" y="-11" on="0"/>
        <pt x="280" y="-11" on="1"/>
        <pt x="168" y="-11" on="0"/>
        <pt x="35" y="101" on="0"/>
        <pt x="35" y="179" on="1"/>
        <pt x="35" y="240" on="0"/>
        <pt x="103" y="345" on="0"/>
        <pt x="175" y="375" on="1"/>
        <pt x="105" y="410" on="0"/>
        <pt x="105" y="492" on="1"/>
        <pt x="105" y="566" on="0"/>
        <pt x="246" y="675" on="0"/>
        <pt x="348" y="675" on="1"/>
        <pt x="398" y="675" on="0"/>
        <pt x="502" y="625" on="0"/>
        <pt x="502" y="579" on="1"/>
        <pt x="502" y="556" on="0"/>
        <pt x="458" y="521" on="0"/>
        <pt x="410" y="517" on="1"/>
        <pt x="390" y="576" on="0"/>
        <pt x="336" y="576" on="1"/>
        <pt x="302" y="576" on="0"/>
        <pt x="256" y="534" on="0"/>
        <pt x="256" y="499" on="1"/>
        <pt x="256" y="474" on="0"/>
        <pt x="293" y="437" on="0"/>
        <pt x="340" y="437" on="1"/>
        <pt x="350" y="437" on="0"/>
        <pt x="356" y="438" on="1"/>
        <pt x="361" y="418" on="0"/>
        <pt x="361" y="402" on="1"/>
        <pt x="361" y="353" on="0"/>
        <pt x="315" y="344" on="1"/>
        <pt x="260" y="333" on="0"/>
        <pt x="204" y="255" on="0"/>
        <pt x="204" y="206" on="1"/>
        <pt x="204" y="158" on="0"/>
        <pt x="266" y="88" on="0"/>
        <pt x="319" y="88" on="1"/>
        <pt x="386" y="88" on="0"/>
        <pt x="466" y="185" on="0"/>
        <pt x="482" y="303" on="1"/>
        <pt x="476" y="303" on="1"/>
        <pt x="436" y="303" on="0"/>
        <pt x="410" y="281" on="1"/>
        <pt x="397" y="306" on="0"/>
        <pt x="397" y="334" on="1"/>
        <pt x="397" y="363" on="0"/>
        <pt x="431" y="398" on="0"/>
        <pt x="459" y="398" on="1"/>
        <pt x="483" y="398" on="0"/>
        <pt x="597" y="370" on="0"/>
        <pt x="613" y="370" on="1"/>
        <pt x="656" y="370" on="0"/>
        <pt x="656" y="402" on="1"/>
        <pt x="656" y="418" on="0"/>
        <pt x="642" y="437" on="1"/>
        <pt x="671" y="468" on="0"/>
        <pt x="723" y="468" on="1"/>
        <pt x="756" y="468" on="0"/>
        <pt x="789" y="432" on="0"/>
      </contour>
    </TTGlyph>
    <TTGlyph name="ampersand_alt" xMin="54" yMin="-10" xMax="604" yMax="673">
      <contour>
        <pt x="353" y="673" on="1"/>
        <pt x="424" y="673" on="0"/>
        <pt x="500" y="609" on="0"/>
        <pt x="500" y="562" on="1"/>
        <pt x="500" y="521" on="0"/>
        <pt x="474" y="454" on="0"/>
        <pt x="412" y="392" on="0"/>
        <pt x="374" y="362" on="0"/>
        <pt x="331" y="332" on="1"/>
        <pt x="370" y="263" on="0"/>
        <pt x="409" y="216" on="1"/>
        <pt x="413" y="240" on="0"/>
        <pt x="413" y="253" on="1"/>
        <pt x="413" y="270" on="0"/>
        <pt x="410" y="288" on="1"/>
        <pt x="441" y="307" on="0"/>
        <pt x="490" y="307" on="1"/>
        <pt x="562" y="307" on="0"/>
        <pt x="562" y="250" on="1"/>
        <pt x="562" y="182" on="0"/>
        <pt x="512" y="121" on="1"/>
        <pt x="559" y="91" on="0"/>
        <pt x="603" y="91" on="1"/>
        <pt x="604" y="85" on="0"/>
        <pt x="604" y="72" on="1"/>
        <pt x="604" y="31" on="0"/>
        <pt x="554" y="-10" on="0"/>
        <pt x="515" y="-10" on="1"/>
        <pt x="459" y="-10" on="0"/>
        <pt x="403" y="32" on="1"/>
        <pt x="324" y="-10" on="0"/>
        <pt x="250" y="-10" on="1"/>
        <pt x="159" y="-10" on="0"/>
        <pt x="54" y="82" on="0"/>
        <pt x="54" y="151" on="1"/>
        <pt x="54" y="216" on="0"/>
        <pt x="118" y="305" on="0"/>
        <pt x="176" y="346" on="1"/>
        <pt x="135" y="442" on="0"/>
        <pt x="135" y="497" on="1"/>
        <pt x="135" y="574" on="0"/>
        <pt x="262" y="673" on="0"/>
      </contour>
      <contour>
        <pt x="333" y="95" on="1"/>
        <pt x="276" y="158" on="0"/>
        <pt x="229" y="241" on="1"/>
        <pt x="211" y="214" on="0"/>
        <pt x="211" y="183" on="1"/>
        <pt x="211" y="137" on="0"/>
        <pt x="256" y="86" on="0"/>
        <pt x="297" y="86" on="1"/>
        <pt x="316" y="86" on="0"/>
      </contour>
      <contour>
        <pt x="278" y="489" on="1"/>
        <pt x="278" y="462" on="0"/>
        <pt x="290" y="424" on="1"/>
        <pt x="346" y="470" on="0"/>
        <pt x="346" y="524" on="1"/>
        <pt x="346" y="581" on="0"/>
        <pt x="318" y="581" on="1"/>
        <pt x="299" y="581" on="0"/>
        <pt x="278" y="529" on="0"/>
      </contour>
    </TTGlyph>
    <TTGlyph name="approxequal" xMin="0" yMin="14" xMax="574" yMax="444">
      <contour>
        <pt x="574" y="374" on="1"/>
        <pt x="574" y="337" on="0"/>
        <pt x="470" y="244" on="0"/>
        <pt x="420" y="244" on="1"/>
        <pt x="382" y="244" on="0"/>
        <pt x="303" y="278" on="0"/>
        <pt x="247" y="320" on="0"/>
        <pt x="180" y="354" on="0"/>
        <pt x="154" y="354" on="1"/>
        <pt x="108" y="354" on="0"/>
        <pt x="44" y="270" on="1"/>
        <pt x="0" y="290" on="0"/>
        <pt x="0" y="320" on="1"/>
        <pt x="0" y="363" on="0"/>
        <pt x="110" y="444" on="0"/>
        <pt x="157" y="444" on="1"/>
        <pt x="197" y="444" on="0"/>
        <pt x="281" y="409" on="0"/>
        <pt x="337" y="367" on="0"/>
        <pt x="398" y="332" on="0"/>
        <pt x="419" y="332" on="1"/>
        <pt x="466" y="332" on="0"/>
        <pt x="527" y="423" on="1"/>
        <pt x="574" y="409" on="0"/>
      </contour>
      <contour>
        <pt x="574" y="144" on="1"/>
        <pt x="574" y="107" on="0"/>
        <pt x="470" y="14" on="0"/>
        <pt x="420" y="14" on="1"/>
        <pt x="382" y="14" on="0"/>
        <pt x="303" y="48" on="0"/>
        <pt x="247" y="90" on="0"/>
        <pt x="180" y="124" on="0"/>
        <pt x="154" y="124" on="1"/>
        <pt x="108" y="124" on="0"/>
        <pt x="44" y="40" on="1"/>
        <pt x="0" y="60" on="0"/>
        <pt x="0" y="90" on="1"/>
        <pt x="0" y="133" on="0"/>
        <pt x="110" y="214" on="0"/>
        <pt x="157" y="214" on="1"/>
        <pt x="197" y="214" on="0"/>
        <pt x="281" y="179" on="0"/>
        <pt x="337" y="137" on="0"/>
        <pt x="398" y="102" on="0"/>
        <pt x="419" y="102" on="1"/>
        <pt x="466" y="102" on="0"/>
        <pt x="527" y="193" on="1"/>
        <pt x="574" y="179" on="0"/>
      </contour>
    </TTGlyph>
    <TTGlyph name="aring" xMin="35" yMin="-10" xMax="501" yMax="773">
      <contour>
        <pt x="319" y="189" on="1"/>
        <pt x="344" y="358" on="1"/>
        <pt x="314" y="394" on="0"/>
        <pt x="283" y="394" on="1"/>
        <pt x="254" y="394" on="0"/>
        <pt x="212" y="331" on="0"/>
        <pt x="193" y="244" on="0"/>
        <pt x="193" y="196" on="1"/>
        <pt x="193" y="146" on="0"/>
        <pt x="215" y="79" on="0"/>
        <pt x="236" y="79" on="1"/>
        <pt x="255" y="79" on="0"/>
        <pt x="303" y="140" on="0"/>
      </contour>
      <contour>
        <pt x="312" y="104" on="1"/>
        <pt x="284" y="49" on="0"/>
        <pt x="204" y="-10" on="0"/>
        <pt x="161" y="-10" on="1"/>
        <pt x="105" y="-10" on="0"/>
        <pt x="35" y="81" on="0"/>
        <pt x="35" y="168" on="1"/>
        <pt x="35" y="246" on="0"/>
        <pt x="93" y="386" on="0"/>
        <pt x="218" y="483" on="0"/>
        <pt x="302" y="483" on="1"/>
        <pt x="404" y="483" on="0"/>
        <pt x="501" y="417" on="1"/>
        <pt x="456" y="205" on="0"/>
        <pt x="456" y="124" on="1"/>
        <pt x="456" y="86" on="0"/>
        <pt x="488" y="66" on="1"/>
        <pt x="462" y="-10" on="0"/>
        <pt x="388" y="-10" on="1"/>
        <pt x="347" y="-10" on="0"/>
        <pt x="311" y="34" on="0"/>
        <pt x="311" y="79" on="1"/>
        <pt x="311" y="95" on="0"/>
      </contour>
      <contour>
        <pt x="331" y="590" on="1"/>
        <pt x="358" y="590" on="0"/>
        <pt x="391" y="635" on="0"/>
        <pt x="391" y="664" on="1"/>
        <pt x="391" y="691" on="0"/>
        <pt x="369" y="723" on="0"/>
        <pt x="348" y="723" on="1"/>
        <pt x="321" y="723" on="0"/>
        <pt x="287" y="678" on="0"/>
        <pt x="287" y="649" on="1"/>
        <pt x="287" y="623" on="0"/>
        <pt x="310" y="590" on="0"/>
      </contour>
      <contour>
        <pt x="324" y="540" on="1"/>
        <pt x="281" y="540" on="0"/>
        <pt x="229" y="593" on="0"/>
        <pt x="229" y="637" on="1"/>
        <pt x="229" y="691" on="0"/>
        <pt x="300" y="773" on="0"/>
        <pt x="355" y="773" on="1"/>
        <pt x="398" y="773" on="0"/>
        <pt x="448" y="721" on="0"/>
        <pt x="448" y="677" on="1"/>
        <pt x="448" y="620" on="0"/>
        <pt x="381" y="540" on="0"/>
      </contour>
    </TTGlyph>
    <TTGlyph name="asciicircum" xMin="19" yMin="380" xMax="518" yMax="675">
      <contour>
        <pt x="270" y="543" on="1"/>
        <pt x="263" y="536" on="0"/>
        <pt x="211" y="480" on="0"/>
        <pt x="178" y="446" on="0"/>
        <pt x="130" y="402" on="0"/>
        <pt x="92" y="380" on="0"/>
        <pt x="78" y="380" on="1"/>
        <pt x="52" y="380" on="0"/>
        <pt x="19" y="413" on="1"/>
        <pt x="47" y="455" on="0"/>
        <pt x="216" y="628" on="0"/>
        <pt x="269" y="675" on="1"/>
        <pt x="323" y="626" on="0"/>
        <pt x="490" y="455" on="0"/>
        <pt x="518" y="413" on="1"/>
        <pt x="485" y="380" on="0"/>
        <pt x="460" y="380" on="1"/>
        <pt x="451" y="380" on="0"/>
        <pt x="426" y="393" on="0"/>
        <pt x="395" y="418" on="0"/>
        <pt x="366" y="443" on="0"/>
        <pt x="330" y="480" on="0"/>
        <pt x="306" y="504" on="0"/>
        <pt x="274" y="538" on="0"/>
      </contour>
    </TTGlyph>
    <TTGlyph name="asciitilde" xMin="31" yMin="193" xMax="577" yMax="349">
      <contour>
        <pt x="31" y="267" on="1"/>
        <pt x="31" y="349" on="0"/>
        <pt x="159" y="349" on="1"/>
        <pt x="214" y="349" on="0"/>
        <pt x="389" y="309" on="0"/>
        <pt x="431" y="309" on="1"/>
        <pt x="504" y="309" on="0"/>
        <pt x="543" y="344" on="1"/>
        <pt x="577" y="308" on="0"/>
        <pt x="577" y="275" on="1"/>
        <pt x="577" y="233" on="0"/>
        <pt x="486" y="193" on="0"/>
        <pt x="424" y="193" on="1"/>
        <pt x="389" y="193" on="0"/>
        <pt x="223" y="233" on="0"/>
        <pt x="178" y="233" on="1"/>
        <pt x="104" y="233" on="0"/>
        <pt x="65" y="198" on="1"/>
        <pt x="31" y="234" on="0"/>
      </contour>
    </TTGlyph>
    <TTGlyph name="asterisk" xMin="89" yMin="392" xMax="446" yMax="743">
      <contour>
        <pt x="339" y="703" on="1"/>
        <pt x="339" y="680" on="0"/>
        <pt x="318" y="621" on="1"/>
        <pt x="398" y="674" on="0"/>
        <pt x="411" y="686" on="1"/>
        <pt x="446" y="656" on="0"/>
        <pt x="446" y="624" on="1"/>
        <pt x="446" y="579" on="0"/>
        <pt x="317" y="548" on="1"/>
        <pt x="367" y="492" on="0"/>
        <pt x="409" y="457" on="1"/>
        <pt x="396" y="437" on="0"/>
        <pt x="353" y="409" on="0"/>
        <pt x="331" y="409" on="1"/>
        <pt x="307" y="409" on="0"/>
        <pt x="274" y="454" on="0"/>
        <pt x="255" y="503" on="1"/>
        <pt x="243" y="486" on="0"/>
        <pt x="175" y="392" on="1"/>
        <pt x="147" y="402" on="0"/>
        <pt x="110" y="434" on="0"/>
        <pt x="110" y="452" on="1"/>
        <pt x="113" y="489" on="0"/>
        <pt x="208" y="552" on="1"/>
        <pt x="139" y="578" on="0"/>
        <pt x="89" y="593" on="1"/>
        <pt x="97" y="623" on="0"/>
        <pt x="136" y="664" on="0"/>
        <pt x="162" y="664" on="1"/>
        <pt x="201" y="664" on="0"/>
        <pt x="233" y="624" on="1"/>
        <pt x="233" y="634" on="0"/>
        <pt x="235" y="681" on="0"/>
        <pt x="235" y="695" on="1"/>
        <pt x="235" y="708" on="0"/>
        <pt x="233" y="734" on="1"/>
        <pt x="265" y="743" on="0"/>
        <pt x="283" y="743" on="1"/>
        <pt x="339" y="743" on="0"/>
      </contour>
    </TTGlyph>
    <TTGlyph name="at" xMin="80" yMin="-114" xMax="784" yMax="590">
      <contour>
        <pt x="448" y="204" on="1"/>
        <pt x="455" y="227" on="0"/>
        <pt x="484" y="335" on="0"/>
        <pt x="486" y="341" on="1"/>
        <pt x="467" y="354" on="0"/>
        <pt x="446" y="354" on="1"/>
        <pt x="420" y="354" on="0"/>
        <pt x="380" y="294" on="0"/>
        <pt x="362" y="225" on="0"/>
        <pt x="362" y="197" on="1"/>
        <pt x="362" y="149" on="0"/>
        <pt x="388" y="149" on="1"/>
        <pt x="418" y="149" on="0"/>
      </contour>
      <contour>
        <pt x="323" y="54" on="1"/>
        <pt x="285" y="54" on="0"/>
        <pt x="241" y="108" on="0"/>
        <pt x="241" y="161" on="1"/>
        <pt x="241" y="225" on="0"/>
        <pt x="295" y="352" on="0"/>
        <pt x="402" y="443" on="0"/>
        <pt x="468" y="443" on="1"/>
        <pt x="561" y="443" on="0"/>
        <pt x="623" y="397" on="1"/>
        <pt x="557" y="221" on="0"/>
        <pt x="557" y="150" on="1"/>
        <pt x="557" y="117" on="0"/>
        <pt x="575" y="117" on="1"/>
        <pt x="604" y="117" on="0"/>
        <pt x="673" y="270" on="0"/>
        <pt x="673" y="354" on="1"/>
        <pt x="673" y="514" on="0"/>
        <pt x="505" y="514" on="1"/>
        <pt x="420" y="514" on="0"/>
        <pt x="266" y="401" on="0"/>
        <pt x="178" y="229" on="0"/>
        <pt x="178" y="143" on="1"/>
        <pt x="178" y="53" on="0"/>
        <pt x="285" y="-29" on="0"/>
        <pt x="362" y="-29" on="1"/>
        <pt x="415" y="-29" on="0"/>
        <pt x="502" y="5" on="0"/>
        <pt x="514" y="30" on="1"/>
        <pt x="566" y="10" on="0"/>
        <pt x="566" y="-22" on="1"/>
        <pt x="566" y="-62" on="0"/>
        <pt x="455" y="-114" on="0"/>
        <pt x="377" y="-114" on="1"/>
        <pt x="323" y="-114" on="0"/>
        <pt x="222" y="-86" on="0"/>
        <pt x="134" y="-29" on="0"/>
        <pt x="80" y="71" on="0"/>
        <pt x="80" y="136" on="1"/>
        <pt x="80" y="246" on="0"/>
        <pt x="200" y="455" on="0"/>
        <pt x="411" y="590" on="0"/>
        <pt x="529" y="590" on="1"/>
        <pt x="649" y="590" on="0"/>
        <pt x="784" y="470" on="0"/>
        <pt x="784" y="373" on="1"/>
        <pt x="784" y="305" on="0"/>
        <pt x="724" y="167" on="0"/>
        <pt x="604" y="69" on="0"/>
        <pt x="529" y="69" on="1"/>
        <pt x="457" y="69" on="0"/>
        <pt x="447" y="146" on="1"/>
        <pt x="390" y="54" on="0"/>
      </contour>
    </TTGlyph>
    <TTGlyph name="atilde" xMin="35" yMin="-10" xMax="503" yMax="678">
      <contour>
        <pt x="319" y="189" on="1"/>
        <pt x="344" y="358" on="1"/>
        <pt x="314" y="394" on="0"/>
        <pt x="283" y="394" on="1"/>
        <pt x="254" y="394" on="0"/>
        <pt x="212" y="331" on="0"/>
        <pt x="193" y="244" on="0"/>
        <pt x="193" y="196" on="1"/>
        <pt x="193" y="146" on="0"/>
        <pt x="215" y="79" on="0"/>
        <pt x="236" y="79" on="1"/>
        <pt x="255" y="79" on="0"/>
        <pt x="303" y="140" on="0"/>
      </contour>
      <contour>
        <pt x="312" y="104" on="1"/>
        <pt x="284" y="49" on="0"/>
        <pt x="204" y="-10" on="0"/>
        <pt x="161" y="-10" on="1"/>
        <pt x="105" y="-10" on="0"/>
        <pt x="35" y="81" on="0"/>
        <pt x="35" y="168" on="1"/>
        <pt x="35" y="246" on="0"/>
        <pt x="93" y="386" on="0"/>
        <pt x="218" y="483" on="0"/>
        <pt x="302" y="483" on="1"/>
        <pt x="404" y="483" on="0"/>
        <pt x="501" y="417" on="1"/>
        <pt x="456" y="205" on="0"/>
        <pt x="456" y="124" on="1"/>
        <pt x="456" y="86" on="0"/>
        <pt x="488" y="66" on="1"/>
        <pt x="462" y="-10" on="0"/>
        <pt x="388" y="-10" on="1"/>
        <pt x="347" y="-10" on="0"/>
        <pt x="311" y="34" on="0"/>
        <pt x="311" y="79" on="1"/>
        <pt x="311" y="95" on="0"/>
      </contour>
      <contour>
        <pt x="503" y="640" on="1"/>
        <pt x="503" y="599" on="0"/>
        <pt x="414" y="534" on="0"/>
        <pt x="369" y="534" on="1"/>
        <pt x="346" y="534" on="0"/>
        <pt x="270" y="577" on="0"/>
        <pt x="254" y="577" on="1"/>
        <pt x="234" y="577" on="0"/>
        <pt x="185" y="537" on="1"/>
        <pt x="154" y="550" on="0"/>
        <pt x="154" y="572" on="1"/>
        <pt x="154" y="612" on="0"/>
        <pt x="245" y="678" on="0"/>
        <pt x="288" y="678" on="1"/>
        <pt x="310" y="678" on="0"/>
        <pt x="388" y="635" on="0"/>
        <pt x="404" y="635" on="1"/>
        <pt x="425" y="635" on="0"/>
        <pt x="472" y="675" on="1"/>
        <pt x="483" y="673" on="0"/>
        <pt x="503" y="654" on="0"/>
      </contour>
    </TTGlyph>
    <TTGlyph name="b" xMin="38" yMin="-10" xMax="505" yMax="742">
      <contour>
        <pt x="223" y="286" on="1"/>
        <pt x="219" y="260" on="0"/>
        <pt x="197" y="110" on="1"/>
        <pt x="227" y="79" on="0"/>
        <pt x="258" y="79" on="1"/>
        <pt x="295" y="79" on="0"/>
        <pt x="347" y="182" on="0"/>
        <pt x="347" y="271" on="1"/>
        <pt x="347" y="320" on="0"/>
        <pt x="319" y="393" on="0"/>
        <pt x="294" y="393" on="1"/>
        <pt x="278" y="393" on="0"/>
        <pt x="238" y="335" on="0"/>
      </contour>
      <contour>
        <pt x="38" y="46" on="1"/>
        <pt x="57" y="155" on="0"/>
        <pt x="117" y="575" on="0"/>
        <pt x="117" y="609" on="1"/>
        <pt x="117" y="654" on="0"/>
        <pt x="86" y="659" on="1"/>
        <pt x="93" y="697" on="0"/>
        <pt x="153" y="742" on="0"/>
        <pt x="193" y="742" on="1"/>
        <pt x="271" y="742" on="0"/>
        <pt x="271" y="655" on="1"/>
        <pt x="271" y="600" on="0"/>
        <pt x="239" y="399" on="1"/>
        <pt x="264" y="439" on="0"/>
        <pt x="337" y="484" on="0"/>
        <pt x="372" y="484" on="1"/>
        <pt x="430" y="484" on="0"/>
        <pt x="505" y="385" on="0"/>
        <pt x="505" y="296" on="1"/>
        <pt x="505" y="218" on="0"/>
        <pt x="443" y="80" on="0"/>
        <pt x="316" y="-10" on="0"/>
        <pt x="233" y="-10" on="1"/>
        <pt x="133" y="-10" on="0"/>
      </contour>
    </TTGlyph>
    <TTGlyph name="backslash" xMin="32" yMin="-122" xMax="232" yMax="742">
      <contour>
        <pt x="108" y="214" on="1"/>
        <pt x="32" y="682" on="0"/>
        <pt x="32" y="703" on="1"/>
        <pt x="32" y="742" on="0"/>
        <pt x="84" y="742" on="1"/>
        <pt x="101" y="742" on="0"/>
        <pt x="114" y="737" on="1"/>
        <pt x="126" y="600" on="0"/>
        <pt x="168" y="330" on="1"/>
        <pt x="205" y="88" on="0"/>
        <pt x="227" y="-51" on="1"/>
        <pt x="231" y="-72" on="0"/>
        <pt x="232" y="-81" on="0"/>
        <pt x="232" y="-82" on="1"/>
        <pt x="232" y="-122" on="0"/>
        <pt x="185" y="-122" on="1"/>
        <pt x="172" y="-122" on="0"/>
        <pt x="150" y="-117" on="1"/>
        <pt x="141" y="-9" on="0"/>
      </contour>
    </TTGlyph>
    <TTGlyph name="bar" xMin="196" yMin="-249" xMax="307" yMax="737">
      <contour>
        <pt x="208" y="302" on="1"/>
        <pt x="208" y="319" on="1"/>
        <pt x="208" y="654" on="0"/>
        <pt x="196" y="732" on="1"/>
        <pt x="219" y="737" on="0"/>
        <pt x="239" y="737" on="1"/>
        <pt x="305" y="737" on="0"/>
        <pt x="305" y="682" on="1"/>
        <pt x="305" y="677" on="0"/>
        <pt x="300" y="535" on="0"/>
        <pt x="295" y="302" on="0"/>
        <pt x="295" y="186" on="1"/>
        <pt x="295" y="169" on="1"/>
        <pt x="295" y="-166" on="0"/>
        <pt x="307" y="-244" on="1"/>
        <pt x="284" y="-249" on="0"/>
        <pt x="264" y="-249" on="1"/>
        <pt x="198" y="-249" on="0"/>
        <pt x="198" y="-194" on="1"/>
        <pt x="198" y="-189" on="0"/>
        <pt x="203" y="-47" on="0"/>
        <pt x="208" y="186" on="0"/>
      </contour>
    </TTGlyph>
    <TTGlyph name="braceleft" xMin="60" yMin="-142" xMax="427" yMax="715">
      <contour>
        <pt x="182" y="286" on="1"/>
        <pt x="204" y="278" on="0"/>
        <pt x="243" y="221" on="0"/>
        <pt x="243" y="191" on="1"/>
        <pt x="243" y="184" on="0"/>
        <pt x="216" y="-16" on="0"/>
        <pt x="216" y="-25" on="1"/>
        <pt x="216" y="-43" on="0"/>
        <pt x="244" y="-58" on="0"/>
        <pt x="282" y="-58" on="1"/>
        <pt x="321" y="-58" on="0"/>
        <pt x="321" y="-94" on="1"/>
        <pt x="321" y="-110" on="0"/>
        <pt x="312" y="-141" on="1"/>
        <pt x="299" y="-142" on="0"/>
        <pt x="278" y="-142" on="1"/>
        <pt x="178" y="-142" on="0"/>
        <pt x="90" y="-95" on="0"/>
        <pt x="90" y="-48" on="1"/>
        <pt x="90" y="-30" on="0"/>
        <pt x="119" y="174" on="0"/>
        <pt x="119" y="190" on="1"/>
        <pt x="119" y="218" on="0"/>
        <pt x="90" y="261" on="0"/>
        <pt x="60" y="261" on="1"/>
        <pt x="66" y="311" on="1"/>
        <pt x="101" y="311" on="0"/>
        <pt x="145" y="365" on="0"/>
        <pt x="149" y="395" on="1"/>
        <pt x="176" y="604" on="1"/>
        <pt x="184" y="660" on="0"/>
        <pt x="284" y="715" on="0"/>
        <pt x="392" y="715" on="1"/>
        <pt x="414" y="715" on="0"/>
        <pt x="426" y="714" on="1"/>
        <pt x="427" y="707" on="0"/>
        <pt x="427" y="693" on="1"/>
        <pt x="427" y="631" on="0"/>
        <pt x="374" y="631" on="1"/>
        <pt x="324" y="631" on="0"/>
        <pt x="298" y="607" on="0"/>
        <pt x="293" y="571" on="1"/>
        <pt x="269" y="393" on="1"/>
        <pt x="264" y="358" on="0"/>
        <pt x="209" y="295" on="0"/>
      </contour>
    </TTGlyph>
    <TTGlyph name="braceright" xMin="-15" yMin="-142" xMax="351" yMax="715">
      <contour>
        <pt x="229" y="287" on="1"/>
        <pt x="207" y="295" on="0"/>
        <pt x="168" y="352" on="0"/>
        <pt x="168" y="382" on="1"/>
        <pt x="168" y="389" on="0"/>
        <pt x="195" y="590" on="0"/>
        <pt x="195" y="598" on="1"/>
        <pt x="195" y="616" on="0"/>
        <pt x="167" y="631" on="0"/>
        <pt x="129" y="631" on="1"/>
        <pt x="89" y="631" on="0"/>
        <pt x="89" y="665" on="1"/>
        <pt x="89" y="682" on="0"/>
        <pt x="99" y="714" on="1"/>
        <pt x="112" y="715" on="0"/>
        <pt x="133" y="715" on="1"/>
        <pt x="233" y="715" on="0"/>
        <pt x="321" y="668" on="0"/>
        <pt x="321" y="621" on="1"/>
        <pt x="321" y="603" on="0"/>
        <pt x="292" y="395" on="0"/>
        <pt x="292" y="382" on="1"/>
        <pt x="292" y="355" on="0"/>
        <pt x="321" y="312" on="0"/>
        <pt x="351" y="312" on="1"/>
        <pt x="345" y="262" on="1"/>
        <pt x="310" y="262" on="0"/>
        <pt x="266" y="208" on="0"/>
        <pt x="262" y="178" on="1"/>
        <pt x="235" y="-31" on="1"/>
        <pt x="227" y="-87" on="0"/>
        <pt x="127" y="-142" on="0"/>
        <pt x="19" y="-142" on="1"/>
        <pt x="-3" y="-142" on="0"/>
        <pt x="-14" y="-141" on="1"/>
        <pt x="-15" y="-134" on="0"/>
        <pt x="-15" y="-121" on="1"/>
        <pt x="-15" y="-58" on="0"/>
        <pt x="37" y="-58" on="1"/>
        <pt x="87" y="-58" on="0"/>
        <pt x="113" y="-34" on="0"/>
        <pt x="118" y="2" on="1"/>
        <pt x="142" y="180" on="1"/>
        <pt x="147" y="215" on="0"/>
        <pt x="202" y="278" on="0"/>
      </contour>
    </TTGlyph>
    <TTGlyph name="bracketleft" xMin="77" yMin="-190" xMax="434" yMax="720">
      <contour>
        <pt x="310" y="640" on="1"/>
        <pt x="211" y="-109" on="1"/>
        <pt x="247" y="-107" on="0"/>
        <pt x="286" y="-107" on="1"/>
        <pt x="323" y="-107" on="0"/>
        <pt x="323" y="-141" on="1"/>
        <pt x="323" y="-160" on="0"/>
        <pt x="313" y="-190" on="1"/>
        <pt x="77" y="-190" on="1"/>
        <pt x="197" y="720" on="1"/>
        <pt x="433" y="720" on="1"/>
        <pt x="434" y="713" on="0"/>
        <pt x="434" y="699" on="1"/>
        <pt x="434" y="638" on="0"/>
        <pt x="385" y="638" on="1"/>
        <pt x="344" y="638" on="0"/>
      </contour>
    </TTGlyph>
    <TTGlyph name="bracketright" xMin="-22" yMin="-190" xMax="335" yMax="720">
      <contour>
        <pt x="102" y="-110" on="1"/>
        <pt x="201" y="639" on="1"/>
        <pt x="165" y="637" on="0"/>
        <pt x="126" y="637" on="1"/>
        <pt x="90" y="637" on="0"/>
        <pt x="90" y="670" on="1"/>
        <pt x="90" y="690" on="0"/>
        <pt x="99" y="720" on="1"/>
        <pt x="335" y="720" on="1"/>
        <pt x="215" y="-190" on="1"/>
        <pt x="-21" y="-190" on="1"/>
        <pt x="-22" y="-183" on="0"/>
        <pt x="-22" y="-170" on="1"/>
        <pt x="-22" y="-108" on="0"/>
        <pt x="27" y="-108" on="1"/>
        <pt x="68" y="-108" on="0"/>
      </contour>
    </TTGlyph>
    <TTGlyph name="breve" xMin="111" yMin="534" xMax="443" yMax="727">
      <contour>
        <pt x="236" y="639" on="0"/>
        <pt x="308" y="639" on="0"/>
        <pt x="350" y="682" on="0"/>
        <pt x="367" y="727" on="1"/>
        <pt x="443" y="723" on="0"/>
        <pt x="443" y="684" on="1"/>
        <pt x="443" y="635" on="0"/>
        <pt x="330" y="534" on="0"/>
        <pt x="258" y="534" on="1"/>
        <pt x="189" y="534" on="0"/>
        <pt x="111" y="622" on="0"/>
        <pt x="111" y="669" on="1"/>
        <pt x="111" y="720" on="0"/>
        <pt x="200" y="727" on="1"/>
        <pt x="204" y="682" on="0"/>
      </contour>
    </TTGlyph>
    <TTGlyph name="brokenbar" xMin="230" yMin="-249" xMax="341" yMax="737">
      <contour>
        <pt x="242" y="554" on="1"/>
        <pt x="242" y="561" on="1"/>
        <pt x="242" y="700" on="0"/>
        <pt x="230" y="732" on="1"/>
        <pt x="253" y="737" on="0"/>
        <pt x="273" y="737" on="1"/>
        <pt x="339" y="737" on="0"/>
        <pt x="339" y="682" on="1"/>
        <pt x="339" y="680" on="0"/>
        <pt x="334" y="621" on="0"/>
        <pt x="329" y="525" on="0"/>
        <pt x="329" y="477" on="1"/>
        <pt x="329" y="470" on="1"/>
        <pt x="329" y="332" on="0"/>
        <pt x="341" y="300" on="1"/>
        <pt x="318" y="294" on="0"/>
        <pt x="298" y="294" on="1"/>
        <pt x="232" y="294" on="0"/>
        <pt x="232" y="348" on="1"/>
        <pt x="232" y="350" on="0"/>
        <pt x="237" y="409" on="0"/>
        <pt x="242" y="506" on="0"/>
      </contour>
      <contour>
        <pt x="242" y="11" on="1"/>
        <pt x="242" y="18" on="1"/>
        <pt x="242" y="157" on="0"/>
        <pt x="230" y="189" on="1"/>
        <pt x="253" y="194" on="0"/>
        <pt x="273" y="194" on="1"/>
        <pt x="339" y="194" on="0"/>
        <pt x="339" y="139" on="1"/>
        <pt x="339" y="137" on="0"/>
        <pt x="334" y="78" on="0"/>
        <pt x="329" y="-18" on="0"/>
        <pt x="329" y="-66" on="1"/>
        <pt x="329" y="-73" on="1"/>
        <pt x="329" y="-211" on="0"/>
        <pt x="341" y="-243" on="1"/>
        <pt x="318" y="-249" on="0"/>
        <pt x="298" y="-249" on="1"/>
        <pt x="232" y="-249" on="0"/>
        <pt x="232" y="-195" on="1"/>
        <pt x="232" y="-193" on="0"/>
        <pt x="237" y="-134" on="0"/>
        <pt x="242" y="-37" on="0"/>
      </contour>
    </TTGlyph>
    <TTGlyph name="bullet" xMin="36" yMin="106" xMax="334" yMax="432">
      <contour>
        <pt x="165" y="106" on="1"/>
        <pt x="109" y="106" on="0"/>
        <pt x="36" y="183" on="0"/>
        <pt x="36" y="244" on="1"/>
        <pt x="36" y="313" on="0"/>
        <pt x="136" y="432" on="0"/>
        <pt x="208" y="432" on="1"/>
        <pt x="262" y="432" on="0"/>
        <pt x="334" y="353" on="0"/>
        <pt x="334" y="292" on="1"/>
        <pt x="334" y="223" on="0"/>
        <pt x="237" y="106" on="0"/>
      </contour>
    </TTGlyph>
    <TTGlyph name="c" xMin="25" yMin="-10" xMax="447" yMax="485">
      <contour>
        <pt x="344" y="314" on="1"/>
        <pt x="341" y="353" on="0"/>
        <pt x="304" y="391" on="0"/>
        <pt x="284" y="391" on="1"/>
        <pt x="238" y="391" on="0"/>
        <pt x="182" y="282" on="0"/>
        <pt x="182" y="207" on="1"/>
        <pt x="182" y="143" on="0"/>
        <pt x="227" y="80" on="0"/>
        <pt x="262" y="80" on="1"/>
        <pt x="283" y="80" on="0"/>
        <pt x="329" y="115" on="0"/>
        <pt x="344" y="143" on="1"/>
        <pt x="376" y="131" on="0"/>
        <pt x="405" y="102" on="0"/>
        <pt x="405" y="78" on="1"/>
        <pt x="405" y="41" on="0"/>
        <pt x="324" y="-10" on="0"/>
        <pt x="247" y="-10" on="1"/>
        <pt x="148" y="-10" on="0"/>
        <pt x="25" y="86" on="0"/>
        <pt x="25" y="184" on="1"/>
        <pt x="25" y="257" on="0"/>
        <pt x="76" y="375" on="0"/>
        <pt x="158" y="447" on="0"/>
        <pt x="255" y="485" on="0"/>
        <pt x="305" y="485" on="1"/>
        <pt x="334" y="485" on="0"/>
        <pt x="395" y="469" on="0"/>
        <pt x="447" y="426" on="0"/>
        <pt x="447" y="395" on="1"/>
        <pt x="447" y="365" on="0"/>
        <pt x="388" y="318" on="0"/>
      </contour>
    </TTGlyph>
    <TTGlyph name="caron" xMin="177" yMin="519" xMax="503" yMax="723">
      <contour>
        <pt x="313" y="519" on="1"/>
        <pt x="177" y="612" on="0"/>
        <pt x="177" y="664" on="1"/>
        <pt x="177" y="701" on="0"/>
        <pt x="237" y="723" on="1"/>
        <pt x="251" y="699" on="0"/>
        <pt x="297" y="653" on="0"/>
        <pt x="313" y="642" on="1"/>
        <pt x="329" y="631" on="1"/>
        <pt x="385" y="677" on="0"/>
        <pt x="434" y="711" on="0"/>
        <pt x="453" y="711" on="1"/>
        <pt x="475" y="711" on="0"/>
        <pt x="503" y="673" on="1"/>
        <pt x="413" y="583" on="0"/>
      </contour>
    </TTGlyph>
    <TTGlyph name="ccedilla" xMin="25" yMin="-252" xMax="447" yMax="485">
      <contour>
        <pt x="344" y="314" on="1"/>
        <pt x="341" y="353" on="0"/>
        <pt x="304" y="391" on="0"/>
        <pt x="284" y="391" on="1"/>
        <pt x="238" y="391" on="0"/>
        <pt x="182" y="282" on="0"/>
        <pt x="182" y="207" on="1"/>
        <pt x="182" y="143" on="0"/>
        <pt x="227" y="80" on="0"/>
        <pt x="262" y="80" on="1"/>
        <pt x="283" y="80" on="0"/>
        <pt x="329" y="115" on="0"/>
        <pt x="344" y="143" on="1"/>
        <pt x="376" y="131" on="0"/>
        <pt x="405" y="102" on="0"/>
        <pt x="405" y="78" on="1"/>
        <pt x="405" y="42" on="0"/>
        <pt x="327" y="-9" on="0"/>
        <pt x="254" y="-10" on="1"/>
        <pt x="249" y="-22" on="0"/>
        <pt x="249" y="-32" on="1"/>
        <pt x="249" y="-41" on="0"/>
        <pt x="271" y="-60" on="0"/>
        <pt x="297" y="-76" on="0"/>
        <pt x="319" y="-109" on="0"/>
        <pt x="319" y="-131" on="1"/>
        <pt x="319" y="-183" on="0"/>
        <pt x="212" y="-252" on="0"/>
        <pt x="154" y="-252" on="1"/>
        <pt x="93" y="-252" on="0"/>
        <pt x="93" y="-211" on="1"/>
        <pt x="93" y="-186" on="0"/>
        <pt x="123" y="-153" on="1"/>
        <pt x="134" y="-166" on="0"/>
        <pt x="155" y="-166" on="1"/>
        <pt x="171" y="-166" on="0"/>
        <pt x="190" y="-145" on="0"/>
        <pt x="190" y="-129" on="1"/>
        <pt x="190" y="-114" on="0"/>
        <pt x="155" y="-74" on="0"/>
        <pt x="155" y="-60" on="1"/>
        <pt x="155" y="-36" on="0"/>
        <pt x="173" y="-2" on="1"/>
        <pt x="104" y="14" on="0"/>
        <pt x="25" y="106" on="0"/>
        <pt x="25" y="184" on="1"/>
        <pt x="25" y="257" on="0"/>
        <pt x="76" y="375" on="0"/>
        <pt x="158" y="447" on="0"/>
        <pt x="255" y="485" on="0"/>
        <pt x="305" y="485" on="1"/>
        <pt x="334" y="485" on="0"/>
        <pt x="395" y="469" on="0"/>
        <pt x="447" y="426" on="0"/>
        <pt x="447" y="395" on="1"/>
        <pt x="447" y="365" on="0"/>
        <pt x="388" y="318" on="0"/>
      </contour>
    </TTGlyph>
    <TTGlyph name="cedilla" xMin="16" yMin="-252" xMax="242" yMax="32">
      <contour>
        <pt x="116" y="32" on="1"/>
        <pt x="197" y="27" on="1"/>
        <pt x="195" y="21" on="0"/>
        <pt x="181" y="-2" on="0"/>
        <pt x="172" y="-23" on="0"/>
        <pt x="172" y="-41" on="0"/>
        <pt x="194" y="-60" on="0"/>
        <pt x="220" y="-76" on="0"/>
        <pt x="242" y="-109" on="0"/>
        <pt x="242" y="-131" on="1"/>
        <pt x="242" y="-183" on="0"/>
        <pt x="135" y="-252" on="0"/>
        <pt x="77" y="-252" on="1"/>
        <pt x="16" y="-252" on="0"/>
        <pt x="16" y="-211" on="1"/>
        <pt x="16" y="-186" on="0"/>
        <pt x="46" y="-153" on="1"/>
        <pt x="57" y="-166" on="0"/>
        <pt x="78" y="-166" on="1"/>
        <pt x="94" y="-166" on="0"/>
        <pt x="113" y="-145" on="0"/>
        <pt x="113" y="-129" on="1"/>
        <pt x="113" y="-114" on="0"/>
        <pt x="78" y="-74" on="0"/>
        <pt x="78" y="-60" on="1"/>
        <pt x="78" y="-31" on="0"/>
      </contour>
    </TTGlyph>
    <TTGlyph name="cent" xMin="60" yMin="-16" xMax="546" yMax="682">
      <contour>
        <pt x="277" y="-16" on="1"/>
        <pt x="241" y="-16" on="0"/>
        <pt x="241" y="14" on="1"/>
        <pt x="241" y="23" on="0"/>
        <pt x="248" y="73" on="1"/>
        <pt x="167" y="87" on="0"/>
        <pt x="60" y="189" on="0"/>
        <pt x="60" y="276" on="1"/>
        <pt x="60" y="402" on="0"/>
        <pt x="210" y="554" on="0"/>
        <pt x="316" y="574" on="1"/>
        <pt x="322" y="614" on="0"/>
        <pt x="326" y="677" on="1"/>
        <pt x="340" y="682" on="0"/>
        <pt x="351" y="682" on="1"/>
        <pt x="386" y="682" on="0"/>
        <pt x="386" y="653" on="1"/>
        <pt x="386" y="651" on="0"/>
        <pt x="376" y="581" on="1"/>
        <pt x="383" y="581" on="1"/>
        <pt x="457" y="581" on="0"/>
        <pt x="546" y="526" on="0"/>
        <pt x="546" y="491" on="1"/>
        <pt x="546" y="470" on="0"/>
        <pt x="509" y="435" on="0"/>
        <pt x="474" y="426" on="1"/>
        <pt x="437" y="484" on="0"/>
        <pt x="377" y="484" on="1"/>
        <pt x="374" y="484" on="0"/>
        <pt x="365" y="483" on="0"/>
        <pt x="363" y="483" on="1"/>
        <pt x="346" y="355" on="0"/>
        <pt x="318" y="165" on="1"/>
        <pt x="324" y="164" on="0"/>
        <pt x="337" y="164" on="1"/>
        <pt x="402" y="164" on="0"/>
        <pt x="437" y="224" on="1"/>
        <pt x="501" y="212" on="0"/>
        <pt x="501" y="174" on="1"/>
        <pt x="501" y="144" on="0"/>
        <pt x="459" y="99" on="0"/>
        <pt x="393" y="78" on="0"/>
        <pt x="332" y="68" on="0"/>
        <pt x="305" y="68" on="1"/>
        <pt x="301" y="40" on="0"/>
        <pt x="299" y="-13" on="1"/>
      </contour>
      <contour>
        <pt x="216" y="296" on="1"/>
        <pt x="216" y="227" on="0"/>
        <pt x="264" y="189" on="1"/>
        <pt x="301" y="459" on="1"/>
        <pt x="263" y="433" on="0"/>
        <pt x="216" y="347" on="0"/>
      </contour>
    </TTGlyph>
    <TTGlyph name="centoldstyle" xMin="69" yMin="-96" xMax="529" yMax="569">
      <contour>
        <pt x="287" y="-96" on="1"/>
        <pt x="251" y="-96" on="0"/>
        <pt x="251" y="-66" on="1"/>
        <pt x="251" y="-61" on="0"/>
        <pt x="257" y="-7" on="1"/>
        <pt x="160" y="4" on="0"/>
        <pt x="69" y="112" on="0"/>
        <pt x="69" y="192" on="1"/>
        <pt x="69" y="301" on="0"/>
        <pt x="205" y="464" on="0"/>
        <pt x="323" y="481" on="1"/>
        <pt x="325" y="496" on="0"/>
        <pt x="330" y="564" on="1"/>
        <pt x="348" y="569" on="0"/>
        <pt x="355" y="569" on="1"/>
        <pt x="390" y="569" on="0"/>
        <pt x="390" y="540" on="1"/>
        <pt x="390" y="539" on="0"/>
        <pt x="383" y="485" on="1"/>
        <pt x="433" y="482" on="0"/>
        <pt x="529" y="430" on="0"/>
        <pt x="529" y="385" on="1"/>
        <pt x="529" y="362" on="0"/>
        <pt x="490" y="326" on="0"/>
        <pt x="457" y="319" on="1"/>
        <pt x="424" y="387" on="0"/>
        <pt x="370" y="388" on="1"/>
        <pt x="328" y="86" on="1"/>
        <pt x="340" y="86" on="1"/>
        <pt x="385" y="86" on="0"/>
        <pt x="426" y="145" on="1"/>
        <pt x="455" y="141" on="0"/>
        <pt x="487" y="112" on="0"/>
        <pt x="487" y="93" on="1"/>
        <pt x="487" y="46" on="0"/>
        <pt x="374" y="-7" on="0"/>
        <pt x="315" y="-10" on="1"/>
        <pt x="311" y="-38" on="0"/>
        <pt x="309" y="-93" on="1"/>
      </contour>
      <contour>
        <pt x="226" y="207" on="1"/>
        <pt x="226" y="136" on="0"/>
        <pt x="272" y="104" on="1"/>
        <pt x="290" y="227" on="0"/>
        <pt x="308" y="372" on="1"/>
        <pt x="271" y="351" on="0"/>
        <pt x="226" y="262" on="0"/>
      </contour>
    </TTGlyph>
    <TTGlyph name="ch" xMin="25" yMin="-10" xMax="958" yMax="743">
      <contour>
        <pt x="448" y="389" on="1"/>
        <pt x="448" y="365" on="0"/>
        <pt x="407" y="330" on="0"/>
        <pt x="365" y="324" on="1"/>
        <pt x="358" y="358" on="0"/>
        <pt x="315" y="391" on="0"/>
        <pt x="294" y="391" on="1"/>
        <pt x="243" y="391" on="0"/>
        <pt x="182" y="282" on="0"/>
        <pt x="182" y="207" on="1"/>
        <pt x="182" y="143" on="0"/>
        <pt x="227" y="80" on="0"/>
        <pt x="262" y="80" on="1"/>
        <pt x="306" y="80" on="0"/>
        <pt x="347" y="143" on="1"/>
        <pt x="405" y="114" on="0"/>
        <pt x="405" y="79" on="1"/>
        <pt x="405" y="35" on="0"/>
        <pt x="313" y="-10" on="0"/>
        <pt x="247" y="-10" on="1"/>
        <pt x="148" y="-10" on="0"/>
        <pt x="25" y="86" on="0"/>
        <pt x="25" y="184" on="1"/>
        <pt x="25" y="257" on="0"/>
        <pt x="76" y="374" on="0"/>
        <pt x="158" y="445" on="0"/>
        <pt x="255" y="483" on="0"/>
        <pt x="305" y="483" on="1"/>
        <pt x="336" y="483" on="0"/>
        <pt x="367" y="474" on="1"/>
        <pt x="332" y="529" on="0"/>
        <pt x="332" y="573" on="1"/>
        <pt x="332" y="619" on="0"/>
        <pt x="389" y="689" on="0"/>
        <pt x="480" y="726" on="0"/>
        <pt x="574" y="743" on="0"/>
        <pt x="621" y="743" on="1"/>
        <pt x="678" y="743" on="0"/>
        <pt x="728" y="709" on="0"/>
        <pt x="728" y="652" on="1"/>
        <pt x="728" y="601" on="0"/>
        <pt x="692" y="385" on="1"/>
        <pt x="723" y="432" on="0"/>
        <pt x="808" y="483" on="0"/>
        <pt x="847" y="483" on="1"/>
        <pt x="900" y="483" on="0"/>
        <pt x="958" y="418" on="0"/>
        <pt x="958" y="366" on="1"/>
        <pt x="958" y="348" on="0"/>
        <pt x="917" y="149" on="0"/>
        <pt x="917" y="126" on="1"/>
        <pt x="917" y="86" on="0"/>
        <pt x="951" y="66" on="1"/>
        <pt x="939" y="30" on="0"/>
        <pt x="881" y="-10" on="0"/>
        <pt x="847" y="-10" on="1"/>
        <pt x="811" y="-10" on="0"/>
        <pt x="761" y="35" on="0"/>
        <pt x="761" y="74" on="1"/>
        <pt x="761" y="106" on="0"/>
        <pt x="799" y="299" on="0"/>
        <pt x="799" y="336" on="1"/>
        <pt x="799" y="392" on="0"/>
        <pt x="766" y="392" on="1"/>
        <pt x="742" y="392" on="0"/>
        <pt x="684" y="309" on="0"/>
        <pt x="671" y="255" on="1"/>
        <pt x="669" y="245" on="1"/>
        <pt x="650" y="104" on="0"/>
        <pt x="650" y="72" on="1"/>
        <pt x="650" y="49" on="0"/>
        <pt x="654" y="15" on="1"/>
        <pt x="616" y="-2" on="0"/>
        <pt x="570" y="-2" on="1"/>
        <pt x="493" y="-2" on="0"/>
        <pt x="493" y="54" on="1"/>
        <pt x="493" y="83" on="0"/>
        <pt x="574" y="572" on="0"/>
        <pt x="574" y="612" on="1"/>
        <pt x="574" y="640" on="0"/>
        <pt x="541" y="662" on="0"/>
        <pt x="508" y="662" on="1"/>
        <pt x="409" y="662" on="0"/>
        <pt x="409" y="555" on="1"/>
        <pt x="409" y="521" on="0"/>
        <pt x="448" y="408" on="0"/>
      </contour>
    </TTGlyph>
    <TTGlyph name="circumflex" xMin="115" yMin="519" xMax="439" yMax="719">
      <contour>
        <pt x="304" y="719" on="1"/>
        <pt x="343" y="693" on="0"/>
        <pt x="393" y="655" on="0"/>
        <pt x="439" y="600" on="0"/>
        <pt x="439" y="578" on="1"/>
        <pt x="439" y="562" on="0"/>
        <pt x="402" y="526" on="0"/>
        <pt x="373" y="519" on="1"/>
        <pt x="354" y="547" on="0"/>
        <pt x="312" y="592" on="0"/>
        <pt x="300" y="600" on="1"/>
        <pt x="288" y="608" on="1"/>
        <pt x="185" y="527" on="0"/>
        <pt x="162" y="527" on="1"/>
        <pt x="145" y="527" on="0"/>
        <pt x="127" y="542" on="0"/>
        <pt x="115" y="565" on="1"/>
        <pt x="202" y="654" on="0"/>
      </contour>
    </TTGlyph>
    <TTGlyph name="colon" xMin="22" yMin="-10" xMax="245" yMax="485">
      <contour>
        <pt x="103" y="-10" on="1"/>
        <pt x="64" y="-10" on="0"/>
        <pt x="22" y="37" on="0"/>
        <pt x="22" y="71" on="1"/>
        <pt x="22" y="112" on="0"/>
        <pt x="79" y="177" on="0"/>
        <pt x="126" y="177" on="1"/>
        <pt x="164" y="177" on="0"/>
        <pt x="207" y="126" on="0"/>
        <pt x="207" y="91" on="1"/>
        <pt x="207" y="51" on="0"/>
        <pt x="152" y="-10" on="0"/>
      </contour>
      <contour>
        <pt x="141" y="298" on="1"/>
        <pt x="102" y="298" on="0"/>
        <pt x="60" y="345" on="0"/>
        <pt x="60" y="379" on="1"/>
        <pt x="60" y="420" on="0"/>
        <pt x="117" y="485" on="0"/>
        <pt x="164" y="485" on="1"/>
        <pt x="202" y="485" on="0"/>
        <pt x="245" y="434" on="0"/>
        <pt x="245" y="399" on="1"/>
        <pt x="245" y="359" on="0"/>
        <pt x="190" y="298" on="0"/>
      </contour>
    </TTGlyph>
    <TTGlyph name="comma" xMin="-16" yMin="-163" xMax="194" yMax="136">
      <contour>
        <pt x="29" y="12" on="1"/>
        <pt x="23" y="27" on="0"/>
        <pt x="23" y="43" on="1"/>
        <pt x="23" y="80" on="0"/>
        <pt x="78" y="136" on="0"/>
        <pt x="120" y="136" on="1"/>
        <pt x="157" y="136" on="0"/>
        <pt x="194" y="87" on="0"/>
        <pt x="194" y="47" on="1"/>
        <pt x="194" y="-25" on="0"/>
        <pt x="93" y="-163" on="0"/>
        <pt x="24" y="-163" on="1"/>
        <pt x="-16" y="-163" on="0"/>
        <pt x="-16" y="-130" on="1"/>
        <pt x="-16" y="-118" on="0"/>
        <pt x="-11" y="-103" on="1"/>
        <pt x="-7" y="-103" on="1"/>
        <pt x="20" y="-103" on="0"/>
        <pt x="65" y="-55" on="0"/>
        <pt x="65" y="-29" on="1"/>
        <pt x="65" y="4" on="0"/>
      </contour>
    </TTGlyph>
    <TTGlyph name="copyright" xMin="116" yMin="-34" xMax="808" yMax="674">
      <contour>
        <pt x="613" y="161" on="1"/>
        <pt x="613" y="135" on="0"/>
        <pt x="531" y="96" on="0"/>
        <pt x="475" y="96" on="1"/>
        <pt x="434" y="96" on="0"/>
        <pt x="360" y="119" on="0"/>
        <pt x="293" y="168" on="0"/>
        <pt x="253" y="259" on="0"/>
        <pt x="253" y="319" on="1"/>
        <pt x="253" y="433" on="0"/>
        <pt x="385" y="551" on="0"/>
        <pt x="469" y="551" on="1"/>
        <pt x="499" y="551" on="0"/>
        <pt x="562" y="534" on="0"/>
        <pt x="614" y="493" on="0"/>
        <pt x="614" y="464" on="1"/>
        <pt x="614" y="425" on="0"/>
        <pt x="541" y="415" on="1"/>
        <pt x="533" y="446" on="0"/>
        <pt x="487" y="478" on="0"/>
        <pt x="462" y="478" on="1"/>
        <pt x="422" y="478" on="0"/>
        <pt x="368" y="396" on="0"/>
        <pt x="368" y="330" on="1"/>
        <pt x="368" y="246" on="0"/>
        <pt x="437" y="169" on="0"/>
        <pt x="484" y="169" on="1"/>
        <pt x="538" y="169" on="0"/>
        <pt x="572" y="215" on="1"/>
        <pt x="613" y="190" on="0"/>
      </contour>
      <contour>
        <pt x="808" y="320" on="1"/>
        <pt x="808" y="170" on="0"/>
        <pt x="607" y="-34" on="0"/>
        <pt x="463" y="-34" on="1"/>
        <pt x="316" y="-34" on="0"/>
        <pt x="116" y="169" on="0"/>
        <pt x="116" y="320" on="1"/>
        <pt x="116" y="472" on="0"/>
        <pt x="316" y="674" on="0"/>
        <pt x="463" y="674" on="1"/>
        <pt x="608" y="674" on="0"/>
        <pt x="808" y="472" on="0"/>
      </contour>
      <contour>
        <pt x="736" y="320" on="1"/>
        <pt x="736" y="452" on="0"/>
        <pt x="577" y="617" on="0"/>
        <pt x="463" y="617" on="1"/>
        <pt x="347" y="617" on="0"/>
        <pt x="188" y="453" on="0"/>
        <pt x="188" y="187" on="0"/>
        <pt x="347" y="23" on="0"/>
        <pt x="463" y="23" on="1"/>
        <pt x="577" y="23" on="0"/>
        <pt x="736" y="187" on="0"/>
      </contour>
    </TTGlyph>
    <TTGlyph name="ct" xMin="25" yMin="-10" xMax="897" yMax="659">
      <contour>
        <pt x="552" y="475" on="1"/>
        <pt x="585" y="475" on="1"/>
        <pt x="594" y="546" on="0"/>
        <pt x="594" y="551" on="1"/>
        <pt x="594" y="592" on="0"/>
        <pt x="542" y="592" on="1"/>
        <pt x="499" y="592" on="0"/>
        <pt x="433" y="512" on="0"/>
        <pt x="433" y="465" on="1"/>
        <pt x="433" y="452" on="0"/>
        <pt x="448" y="403" on="0"/>
        <pt x="448" y="389" on="1"/>
        <pt x="448" y="365" on="0"/>
        <pt x="407" y="330" on="0"/>
        <pt x="365" y="324" on="1"/>
        <pt x="358" y="358" on="0"/>
        <pt x="315" y="391" on="0"/>
        <pt x="294" y="391" on="1"/>
        <pt x="243" y="391" on="0"/>
        <pt x="182" y="282" on="0"/>
        <pt x="182" y="207" on="1"/>
        <pt x="182" y="143" on="0"/>
        <pt x="227" y="80" on="0"/>
        <pt x="262" y="80" on="1"/>
        <pt x="306" y="80" on="0"/>
        <pt x="347" y="143" on="1"/>
        <pt x="405" y="114" on="0"/>
        <pt x="405" y="79" on="1"/>
        <pt x="405" y="35" on="0"/>
        <pt x="313" y="-10" on="0"/>
        <pt x="247" y="-10" on="1"/>
        <pt x="148" y="-10" on="0"/>
        <pt x="25" y="86" on="0"/>
        <pt x="25" y="184" on="1"/>
        <pt x="25" y="257" on="0"/>
        <pt x="76" y="374" on="0"/>
        <pt x="158" y="445" on="0"/>
        <pt x="255" y="483" on="0"/>
        <pt x="305" y="483" on="1"/>
        <pt x="344" y="483" on="0"/>
        <pt x="383" y="468" on="1"/>
        <pt x="380" y="483" on="0"/>
        <pt x="380" y="498" on="1"/>
        <pt x="380" y="572" on="0"/>
        <pt x="502" y="659" on="0"/>
        <pt x="579" y="659" on="1"/>
        <pt x="639" y="659" on="0"/>
        <pt x="745" y="600" on="0"/>
        <pt x="745" y="544" on="1"/>
        <pt x="745" y="524" on="0"/>
        <pt x="736" y="474" on="1"/>
        <pt x="850" y="474" on="0"/>
        <pt x="892" y="479" on="1"/>
        <pt x="897" y="461" on="0"/>
        <pt x="897" y="442" on="1"/>
        <pt x="897" y="386" on="0"/>
        <pt x="847" y="382" on="1"/>
        <pt x="814" y="380" on="0"/>
        <pt x="721" y="380" on="1"/>
        <pt x="688" y="146" on="0"/>
        <pt x="688" y="123" on="1"/>
        <pt x="688" y="98" on="0"/>
        <pt x="718" y="72" on="0"/>
        <pt x="741" y="72" on="1"/>
        <pt x="781" y="72" on="0"/>
        <pt x="807" y="103" on="1"/>
        <pt x="834" y="76" on="0"/>
        <pt x="834" y="48" on="1"/>
        <pt x="834" y="-10" on="0"/>
        <pt x="710" y="-10" on="1"/>
        <pt x="622" y="-10" on="0"/>
        <pt x="542" y="58" on="0"/>
        <pt x="542" y="125" on="1"/>
        <pt x="542" y="144" on="0"/>
        <pt x="552" y="225" on="0"/>
        <pt x="572" y="356" on="0"/>
        <pt x="575" y="380" on="1"/>
        <pt x="562" y="380" on="0"/>
        <pt x="496" y="374" on="1"/>
        <pt x="494" y="390" on="0"/>
        <pt x="494" y="401" on="1"/>
        <pt x="494" y="475" on="0"/>
      </contour>
    </TTGlyph>
    <TTGlyph name="d" xMin="25" yMin="-10" xMax="520" yMax="742">
      <contour>
        <pt x="311" y="189" on="1"/>
        <pt x="335" y="358" on="1"/>
        <pt x="305" y="394" on="0"/>
        <pt x="270" y="394" on="1"/>
        <pt x="234" y="394" on="0"/>
        <pt x="183" y="285" on="0"/>
        <pt x="183" y="201" on="1"/>
        <pt x="183" y="79" on="0"/>
        <pt x="227" y="79" on="1"/>
        <pt x="245" y="79" on="0"/>
        <pt x="295" y="141" on="0"/>
      </contour>
      <contour>
        <pt x="346" y="435" on="1"/>
        <pt x="353" y="475" on="0"/>
        <pt x="366" y="599" on="0"/>
        <pt x="366" y="610" on="1"/>
        <pt x="366" y="653" on="0"/>
        <pt x="335" y="659" on="1"/>
        <pt x="339" y="694" on="0"/>
        <pt x="402" y="742" on="0"/>
        <pt x="443" y="742" on="1"/>
        <pt x="520" y="742" on="0"/>
        <pt x="520" y="653" on="1"/>
        <pt x="520" y="618" on="0"/>
        <pt x="456" y="148" on="0"/>
        <pt x="456" y="126" on="1"/>
        <pt x="456" y="88" on="0"/>
        <pt x="487" y="67" on="1"/>
        <pt x="461" y="-10" on="0"/>
        <pt x="386" y="-10" on="1"/>
        <pt x="301" y="-10" on="0"/>
        <pt x="301" y="82" on="1"/>
        <pt x="301" y="97" on="0"/>
        <pt x="302" y="104" on="1"/>
        <pt x="274" y="49" on="0"/>
        <pt x="194" y="-10" on="0"/>
        <pt x="151" y="-10" on="1"/>
        <pt x="95" y="-10" on="0"/>
        <pt x="25" y="81" on="0"/>
        <pt x="25" y="168" on="1"/>
        <pt x="25" y="298" on="0"/>
        <pt x="149" y="484" on="0"/>
        <pt x="240" y="484" on="1"/>
        <pt x="290" y="484" on="0"/>
      </contour>
    </TTGlyph>
    <TTGlyph name="dagger" xMin="60" yMin="-106" xMax="489" yMax="673">
      <contour>
        <pt x="216" y="513" on="1"/>
        <pt x="216" y="517" on="0"/>
        <pt x="223" y="667" on="1"/>
        <pt x="265" y="673" on="0"/>
        <pt x="303" y="673" on="1"/>
        <pt x="338" y="673" on="0"/>
        <pt x="379" y="667" on="1"/>
        <pt x="378" y="664" on="0"/>
        <pt x="353" y="548" on="0"/>
        <pt x="347" y="513" on="1"/>
        <pt x="413" y="514" on="0"/>
        <pt x="486" y="537" on="1"/>
        <pt x="489" y="522" on="0"/>
        <pt x="489" y="505" on="1"/>
        <pt x="489" y="466" on="0"/>
        <pt x="458" y="410" on="0"/>
        <pt x="423" y="410" on="1"/>
        <pt x="408" y="410" on="0"/>
        <pt x="354" y="415" on="0"/>
        <pt x="333" y="416" on="1"/>
        <pt x="315" y="260" on="0"/>
        <pt x="298" y="64" on="0"/>
        <pt x="295" y="0" on="0"/>
        <pt x="294" y="-9" on="1"/>
        <pt x="292" y="-26" on="0"/>
        <pt x="244" y="-75" on="0"/>
        <pt x="222" y="-90" on="1"/>
        <pt x="199" y="-106" on="1"/>
        <pt x="191" y="-100" on="0"/>
        <pt x="168" y="-79" on="0"/>
        <pt x="130" y="-29" on="0"/>
        <pt x="130" y="-12" on="1"/>
        <pt x="130" y="-5" on="0"/>
        <pt x="143" y="52" on="0"/>
        <pt x="181" y="261" on="0"/>
        <pt x="204" y="417" on="1"/>
        <pt x="168" y="416" on="0"/>
        <pt x="75" y="406" on="0"/>
        <pt x="61" y="405" on="1"/>
        <pt x="60" y="412" on="0"/>
        <pt x="60" y="428" on="1"/>
        <pt x="60" y="468" on="0"/>
        <pt x="89" y="526" on="0"/>
        <pt x="124" y="526" on="1"/>
        <pt x="137" y="526" on="0"/>
        <pt x="199" y="514" on="0"/>
      </contour>
    </TTGlyph>
    <TTGlyph name="daggerdbl" xMin="16" yMin="-106" xMax="497" yMax="673">
      <contour>
        <pt x="306" y="150" on="1"/>
        <pt x="341" y="151" on="0"/>
        <pt x="428" y="161" on="0"/>
        <pt x="445" y="162" on="1"/>
        <pt x="446" y="156" on="0"/>
        <pt x="446" y="142" on="1"/>
        <pt x="446" y="101" on="0"/>
        <pt x="416" y="41" on="0"/>
        <pt x="381" y="41" on="1"/>
        <pt x="368" y="41" on="0"/>
        <pt x="306" y="53" on="0"/>
        <pt x="289" y="54" on="1"/>
        <pt x="285" y="17" on="0"/>
        <pt x="280" y="-100" on="1"/>
        <pt x="239" y="-106" on="0"/>
        <pt x="200" y="-106" on="1"/>
        <pt x="164" y="-106" on="0"/>
        <pt x="124" y="-100" on="1"/>
        <pt x="151" y="19" on="0"/>
        <pt x="157" y="54" on="1"/>
        <pt x="92" y="53" on="0"/>
        <pt x="19" y="30" on="1"/>
        <pt x="16" y="45" on="0"/>
        <pt x="16" y="61" on="1"/>
        <pt x="16" y="100" on="0"/>
        <pt x="49" y="157" on="0"/>
        <pt x="83" y="157" on="1"/>
        <pt x="99" y="157" on="0"/>
        <pt x="152" y="151" on="0"/>
        <pt x="172" y="151" on="1"/>
        <pt x="177" y="273" on="0"/>
        <pt x="179" y="284" on="1"/>
        <pt x="180" y="288" on="0"/>
        <pt x="211" y="417" on="1"/>
        <pt x="176" y="416" on="0"/>
        <pt x="84" y="406" on="0"/>
        <pt x="68" y="405" on="1"/>
        <pt x="67" y="411" on="0"/>
        <pt x="67" y="425" on="1"/>
        <pt x="67" y="466" on="0"/>
        <pt x="97" y="526" on="0"/>
        <pt x="132" y="526" on="1"/>
        <pt x="145" y="526" on="0"/>
        <pt x="207" y="514" on="0"/>
        <pt x="224" y="513" on="1"/>
        <pt x="228" y="550" on="0"/>
        <pt x="233" y="667" on="1"/>
        <pt x="273" y="673" on="0"/>
        <pt x="313" y="673" on="1"/>
        <pt x="348" y="673" on="0"/>
        <pt x="389" y="667" on="1"/>
        <pt x="362" y="548" on="0"/>
        <pt x="356" y="513" on="1"/>
        <pt x="421" y="514" on="0"/>
        <pt x="494" y="537" on="1"/>
        <pt x="497" y="522" on="0"/>
        <pt x="497" y="506" on="1"/>
        <pt x="497" y="467" on="0"/>
        <pt x="464" y="410" on="0"/>
        <pt x="430" y="410" on="1"/>
        <pt x="414" y="410" on="0"/>
        <pt x="361" y="416" on="0"/>
        <pt x="341" y="416" on="1"/>
        <pt x="338" y="290" on="0"/>
        <pt x="337" y="284" on="1"/>
        <pt x="335" y="274" on="0"/>
        <pt x="325" y="230" on="0"/>
        <pt x="310" y="169" on="0"/>
      </contour>
    </TTGlyph>
    <TTGlyph name="degree" xMin="47" yMin="387" xMax="353" yMax="711">
      <contour>
        <pt x="47" y="520" on="1"/>
        <pt x="47" y="597" on="0"/>
        <pt x="146" y="711" on="0"/>
        <pt x="224" y="711" on="1"/>
        <pt x="282" y="711" on="0"/>
        <pt x="353" y="637" on="0"/>
        <pt x="353" y="579" on="1"/>
        <pt x="353" y="502" on="0"/>
        <pt x="255" y="387" on="0"/>
        <pt x="177" y="387" on="1"/>
        <pt x="118" y="387" on="0"/>
        <pt x="47" y="461" on="0"/>
      </contour>
      <contour>
        <pt x="212" y="642" on="1"/>
        <pt x="175" y="642" on="0"/>
        <pt x="128" y="571" on="0"/>
        <pt x="128" y="528" on="1"/>
        <pt x="128" y="495" on="0"/>
        <pt x="156" y="456" on="0"/>
        <pt x="184" y="456" on="1"/>
        <pt x="221" y="456" on="0"/>
        <pt x="266" y="528" on="0"/>
        <pt x="266" y="571" on="1"/>
        <pt x="266" y="603" on="0"/>
        <pt x="239" y="642" on="0"/>
      </contour>
    </TTGlyph>
    <TTGlyph name="dieresis" xMin="118" yMin="530" xMax="513" yMax="699">
      <contour>
        <pt x="191" y="530" on="1"/>
        <pt x="156" y="530" on="0"/>
        <pt x="118" y="572" on="0"/>
        <pt x="118" y="603" on="1"/>
        <pt x="118" y="640" on="0"/>
        <pt x="169" y="699" on="0"/>
        <pt x="212" y="699" on="1"/>
        <pt x="246" y="699" on="0"/>
        <pt x="285" y="653" on="0"/>
        <pt x="285" y="621" on="1"/>
        <pt x="285" y="585" on="0"/>
        <pt x="235" y="530" on="0"/>
      </contour>
      <contour>
        <pt x="419" y="530" on="1"/>
        <pt x="384" y="530" on="0"/>
        <pt x="346" y="572" on="0"/>
        <pt x="346" y="603" on="1"/>
        <pt x="346" y="640" on="0"/>
        <pt x="397" y="699" on="0"/>
        <pt x="440" y="699" on="1"/>
        <pt x="474" y="699" on="0"/>
        <pt x="513" y="653" on="0"/>
        <pt x="513" y="621" on="1"/>
        <pt x="513" y="585" on="0"/>
        <pt x="463" y="530" on="0"/>
      </contour>
    </TTGlyph>
    <TTGlyph name="divide" xMin="62" yMin="-6" xMax="509" yMax="514">
      <contour>
        <pt x="312" y="359" on="0"/>
        <pt x="250" y="359" on="0"/>
        <pt x="206" y="402" on="0"/>
        <pt x="206" y="437" on="1"/>
        <pt x="206" y="469" on="0"/>
        <pt x="250" y="514" on="0"/>
        <pt x="281" y="514" on="1"/>
        <pt x="311" y="514" on="0"/>
        <pt x="354" y="469" on="0"/>
        <pt x="354" y="437" on="1"/>
        <pt x="354" y="402" on="0"/>
      </contour>
      <contour>
        <pt x="509" y="260" on="1"/>
        <pt x="509" y="235" on="0"/>
        <pt x="481" y="200" on="0"/>
        <pt x="458" y="200" on="1"/>
        <pt x="441" y="200" on="0"/>
        <pt x="312" y="211" on="0"/>
        <pt x="282" y="211" on="1"/>
        <pt x="169" y="211" on="0"/>
        <pt x="66" y="200" on="1"/>
        <pt x="62" y="221" on="0"/>
        <pt x="62" y="242" on="1"/>
        <pt x="62" y="265" on="0"/>
        <pt x="87" y="302" on="0"/>
        <pt x="113" y="302" on="1"/>
        <pt x="117" y="302" on="0"/>
        <pt x="244" y="292" on="0"/>
        <pt x="290" y="292" on="1"/>
        <pt x="434" y="292" on="0"/>
        <pt x="503" y="302" on="1"/>
        <pt x="509" y="290" on="0"/>
      </contour>
      <contour>
        <pt x="312" y="-6" on="0"/>
        <pt x="250" y="-6" on="0"/>
        <pt x="206" y="38" on="0"/>
        <pt x="206" y="72" on="1"/>
        <pt x="206" y="104" on="0"/>
        <pt x="250" y="149" on="0"/>
        <pt x="281" y="149" on="1"/>
        <pt x="311" y="149" on="0"/>
        <pt x="354" y="104" on="0"/>
        <pt x="354" y="72" on="1"/>
        <pt x="354" y="37" on="0"/>
      </contour>
    </TTGlyph>
</ttFont>
